<svg xmlns="http://www.w3.org/2000/svg" width="406.5368957519531" height="400.01239013671875" viewBox="-97.6886978149414 -84.85972595214844 406.5368957519531 400.01239013671875"><title>Neo4j Graph Visualization</title><desc>Created using Neo4j (http://www.neo4j.com/)</desc><g class="layer relationships"><g class="relationship" transform="translate(279.8481807934218 106.65196656316246) rotate(465.1998131143756)"><path class="outline" fill="#A5ABB6" stroke="none" d="M 25 0.5 L 33.04135211870268 0.5 L 33.04135211870268 -0.5 L 25 -0.5 Z M 67.48666461870269 0.5 L 75.52801673740537 0.5 L 75.52801673740537 3.5 L 82.52801673740537 0 L 75.52801673740537 -3.5 L 75.52801673740537 -0.5 L 67.48666461870269 -0.5 Z"/><text text-anchor="middle" pointer-events="none" font-size="8px" fill="#000000" x="50.26400836870268" y="3" transform="rotate(180 50.26400836870268 0)" font-family="sans-serif">ORIGIN</text></g><g class="relationship" transform="translate(279.8481807934218 106.65196656316246) rotate(251.39756842501345)"><path class="outline" fill="#A5ABB6" stroke="none" d="M 25 0.5 L 26.302098996333164 0.5 L 26.302098996333164 -0.5 L 25 -0.5 Z M 74.97397399633317 0.5 L 76.27607299266633 0.5 L 76.27607299266633 3.5 L 83.27607299266633 0 L 76.27607299266633 -3.5 L 76.27607299266633 -0.5 L 74.97397399633317 -0.5 Z"/><text text-anchor="middle" pointer-events="none" font-size="8px" fill="#000000" x="50.638036496333164" y="3" transform="rotate(180 50.638036496333164 0)" font-family="sans-serif">DESTINA…</text></g><g class="relationship" transform="translate(154.05882590596644 -54.54252237910039) rotate(392.6974561536792)"><path class="outline" fill="#A5ABB6" stroke="none" d="M 25 0.5 L 33.4933678099776 0.5 L 33.4933678099776 -0.5 L 25 -0.5 Z M 67.9386803099776 0.5 L 76.4320481199552 0.5 L 76.4320481199552 3.5 L 83.4320481199552 0 L 76.4320481199552 -3.5 L 76.4320481199552 -0.5 L 67.9386803099776 -0.5 Z"/><text text-anchor="middle" pointer-events="none" font-size="8px" fill="#000000" x="50.7160240599776" y="3" font-family="sans-serif">ORIGIN</text></g><g class="relationship" transform="translate(154.05882590596644 -54.54252237910039) rotate(180.69416873216312)"><path class="outline" fill="#A5ABB6" stroke="none" d="M 25 0.5 L 26.52555022336948 0.5 L 26.52555022336948 -0.5 L 25 -0.5 Z M 75.19742522336948 0.5 L 76.72297544673896 0.5 L 76.72297544673896 3.5 L 83.72297544673896 0 L 76.72297544673896 -3.5 L 76.72297544673896 -0.5 L 75.19742522336948 -0.5 Z"/><text text-anchor="middle" pointer-events="none" font-size="8px" fill="#000000" x="50.86148772336948" y="3" transform="rotate(180 50.86148772336948 0)" font-family="sans-serif">DESTINA…</text></g><g class="relationship" transform="translate(-44.87245541731412 4.983006922676015) rotate(326.0038934450395)"><path class="outline" fill="#A5ABB6" stroke="none" d="M 25 0.5 L 26.571820117532674 0.5 L 26.571820117532674 -0.5 L 25 -0.5 Z M 75.24369511753267 0.5 L 76.81551523506535 0.5 L 76.81551523506535 3.5 L 83.81551523506535 0 L 76.81551523506535 -3.5 L 76.81551523506535 -0.5 L 75.24369511753267 -0.5 Z"/><text text-anchor="middle" pointer-events="none" font-size="8px" fill="#000000" x="50.907757617532674" y="3" font-family="sans-serif">DESTINA…</text></g><g class="relationship" transform="translate(-44.87245541731412 4.983006922676015) rotate(462.60781935618866)"><path class="outline" fill="#A5ABB6" stroke="none" d="M 25 0.5 L 33.83257562796718 0.5 L 33.83257562796718 -0.5 L 25 -0.5 Z M 68.27788812796717 0.5 L 77.11046375593436 0.5 L 77.11046375593436 3.5 L 84.11046375593436 0 L 77.11046375593436 -3.5 L 77.11046375593436 -0.5 L 68.27788812796717 -0.5 Z"/><text text-anchor="middle" pointer-events="none" font-size="8px" fill="#000000" x="51.05523187796718" y="3" transform="rotate(180 51.05523187796718 0)" font-family="sans-serif">ORIGIN</text></g><g class="relationship" transform="translate(-33.376054976818054 213.1609744662301) rotate(250.85152664237125)"><path class="outline" fill="#A5ABB6" stroke="none" d="M 25 0.5 L 33.10476438565335 0.5 L 33.10476438565335 -0.5 L 25 -0.5 Z M 67.55007688565334 0.5 L 75.6548412713067 0.5 L 75.6548412713067 3.5 L 82.6548412713067 0 L 75.6548412713067 -3.5 L 75.6548412713067 -0.5 L 67.55007688565334 -0.5 Z"/><text text-anchor="middle" pointer-events="none" font-size="8px" fill="#000000" x="50.32742063565335" y="3" transform="rotate(180 50.32742063565335 0)" font-family="sans-serif">ORIGIN</text></g><g class="relationship" transform="translate(-33.376054976818054 213.1609744662301) rotate(403.2658979111503)"><path class="outline" fill="#A5ABB6" stroke="none" d="M 25 0.5 L 25.412738979580766 0.5 L 25.412738979580766 -0.5 L 25 -0.5 Z M 74.08461397958077 0.5 L 74.49735295916153 0.5 L 74.49735295916153 3.5 L 81.49735295916153 0 L 74.49735295916153 -3.5 L 74.49735295916153 -0.5 L 74.08461397958077 -0.5 Z"/><text text-anchor="middle" pointer-events="none" font-size="8px" fill="#000000" x="49.748676479580766" y="3" font-family="sans-serif">DESTINA…</text></g></g><g class="layer nodes"><g class="node" transform="translate(251.65583686609153,210.41836829013212)"><circle class="outline" cx="0" cy="0" r="25" fill="#F16667" stroke="#eb2728" stroke-width="2px"/><text text-anchor="middle" pointer-events="none" font-family="sans-serif" dy="1.5625" font-size="25" fill="#FFFFFF"/><text text-anchor="middle" pointer-events="none" y="5" font-size="10px" fill="#FFFFFF" font-family="sans-serif"> LAX</text></g><g class="node" transform="translate(44.17327520256053,286.15266972012836)"><circle class="outline" cx="0" cy="0" r="25" fill="#F16667" stroke="#eb2728" stroke-width="2px"/><text text-anchor="middle" pointer-events="none" font-family="sans-serif" dy="1.5625" font-size="25" fill="#FFFFFF"/><text text-anchor="middle" pointer-events="none" y="5" font-size="10px" fill="#FFFFFF" font-family="sans-serif"> DAY</text></g><g class="node" transform="translate(279.8481807934218,106.65196656316246)"><circle class="outline" cx="0" cy="0" r="25" fill="#D9C8AE" stroke="#c0a378" stroke-width="2px"/><text text-anchor="middle" pointer-events="none" font-family="sans-serif" dy="1.5625" font-size="25" fill="#604A0E"/><text text-anchor="middle" pointer-events="none" y="5" font-size="10px" fill="#604A0E" font-family="sans-serif"> 11/29/20…</text></g><g class="node" transform="translate(245.30816425294404,4.032790771808883)"><circle class="outline" cx="0" cy="0" r="25" fill="#F16667" stroke="#eb2728" stroke-width="2px"/><text text-anchor="middle" pointer-events="none" font-family="sans-serif" dy="1.5625" font-size="25" fill="#FFFFFF"/><text text-anchor="middle" pointer-events="none" y="5" font-size="10px" fill="#FFFFFF" font-family="sans-serif"> LAS</text></g><g class="node" transform="translate(154.05882590596644,-54.54252237910039)"><circle class="outline" cx="0" cy="0" r="25" fill="#D9C8AE" stroke="#c0a378" stroke-width="2px"/><text text-anchor="middle" pointer-events="none" font-family="sans-serif" dy="1.5625" font-size="25" fill="#604A0E"/><text text-anchor="middle" pointer-events="none" y="5" font-size="10px" fill="#604A0E" font-family="sans-serif"> 11/29/20…</text></g><g class="node" transform="translate(45.343829870532055,-55.85972661827107)"><circle class="outline" cx="0" cy="0" r="25" fill="#F16667" stroke="#eb2728" stroke-width="2px"/><text text-anchor="middle" pointer-events="none" font-family="sans-serif" dy="1.5625" font-size="25" fill="#FFFFFF"/><text text-anchor="middle" pointer-events="none" y="5" font-size="10px" fill="#FFFFFF" font-family="sans-serif"> DEN</text></g><g class="node" transform="translate(-44.87245541731412,4.983006922676015)"><circle class="outline" cx="0" cy="0" r="25" fill="#D9C8AE" stroke="#c0a378" stroke-width="2px"/><text text-anchor="middle" pointer-events="none" font-family="sans-serif" dy="1.5625" font-size="25" fill="#604A0E"/><text text-anchor="middle" pointer-events="none" y="5" font-size="10px" fill="#604A0E" font-family="sans-serif"> 11/29/20…</text></g><g class="node" transform="translate(-68.68869750169165,111.46248811043064)"><circle class="outline" cx="0" cy="0" r="25" fill="#F16667" stroke="#eb2728" stroke-width="2px"/><text text-anchor="middle" pointer-events="none" font-family="sans-serif" dy="1.5625" font-size="25" fill="#FFFFFF"/><text text-anchor="middle" pointer-events="none" y="5" font-size="10px" fill="#FFFFFF" font-family="sans-serif"> MSP</text></g><g class="node" transform="translate(-33.376054976818054,213.1609744662301)"><circle class="outline" cx="0" cy="0" r="25" fill="#D9C8AE" stroke="#c0a378" stroke-width="2px"/><text text-anchor="middle" pointer-events="none" font-family="sans-serif" dy="1.5625" font-size="25" fill="#604A0E"/><text text-anchor="middle" pointer-events="none" y="5" font-size="10px" fill="#604A0E" font-family="sans-serif"> 11/23/20…</text></g></g></svg>