<svg xmlns="http://www.w3.org/2000/svg" width="289.33404541015625" height="268.1648864746094" viewBox="-48.9339599609375 -30.669593811035156 289.33404541015625 268.1648864746094"><title>Neo4j Graph Visualization</title><desc>Created using Neo4j (http://www.neo4j.com/)</desc><g class="layer relationships"><g class="relationship" transform="translate(211.40007406312165 115.85574286496386) rotate(481.2823256865712)"><path class="outline" fill="#A5ABB6" stroke="none" d="M 25 0.5 L 26.19932916675363 0.5 L 26.19932916675363 -0.5 L 25 -0.5 Z M 75.19932916675363 0.5 L 76.39865833350726 0.5 L 76.39865833350726 3.5 L 83.39865833350726 0 L 76.39865833350726 -3.5 L 76.39865833350726 -0.5 L 75.19932916675363 -0.5 Z"/><text text-anchor="middle" pointer-events="none" font-size="8px" fill="#000000" x="50.69932916675363" y="3" transform="rotate(180 50.69932916675363 0)" font-family="sans-serif">DESTINA…</text></g><g class="relationship" transform="translate(211.40007406312165 115.85574286496386) rotate(239.48465564230236)"><path class="outline" fill="#A5ABB6" stroke="none" d="M 25 0.5 L 32.984090240931955 0.5 L 32.984090240931955 -0.5 L 25 -0.5 Z M 67.76742306563898 0.5 L 75.75151330657094 0.5 L 75.75151330657094 3.5 L 82.75151330657094 0 L 75.75151330657094 -3.5 L 75.75151330657094 -0.5 L 67.76742306563898 -0.5 Z"/><text text-anchor="middle" pointer-events="none" font-size="8px" fill="#000000" x="50.37575665328547" y="3" transform="rotate(180 50.37575665328547 0)" font-family="sans-serif">ORIGIN</text></g><g class="relationship" transform="translate(51.81589846811998 -1.6695946080450497) rotate(373.2521899542736)"><path class="outline" fill="#A5ABB6" stroke="none" d="M 25 0.5 L 32.97851315749125 0.5 L 32.97851315749125 -0.5 L 25 -0.5 Z M 67.76184598219828 0.5 L 75.74035913968953 0.5 L 75.74035913968953 3.5 L 82.74035913968953 0 L 75.74035913968953 -3.5 L 75.74035913968953 -0.5 L 67.76184598219828 -0.5 Z"/><text text-anchor="middle" pointer-events="none" font-size="8px" fill="#000000" x="50.370179569844765" y="3" font-family="sans-serif">ORIGIN</text></g><g class="relationship" transform="translate(51.81589846811998 -1.6695946080450497) rotate(491.4528742586859)"><path class="outline" fill="#A5ABB6" stroke="none" d="M 25 0.5 L 26.191425907165623 0.5 L 26.191425907165623 -0.5 L 25 -0.5 Z M 75.19142590716562 0.5 L 76.38285181433125 0.5 L 76.38285181433125 3.5 L 83.38285181433125 0 L 76.38285181433125 -3.5 L 76.38285181433125 -0.5 L 75.19142590716562 -0.5 Z"/><text text-anchor="middle" pointer-events="none" font-size="8px" fill="#000000" x="50.69142590716562" y="3" transform="rotate(180 50.69142590716562 0)" font-family="sans-serif">DESTINA…</text></g></g><g class="layer nodes"><g class="node" transform="translate(155.1134736625175,208.49530106688508)"><circle class="outline" cx="0" cy="0" r="25" fill="#D9C8AE" stroke="#c0a378" stroke-width="2px"/><text text-anchor="middle" pointer-events="none" font-family="sans-serif" dy="1.5625" font-size="25" fill="#604A0E"/><text text-anchor="middle" pointer-events="none" y="5" font-size="10px" fill="#604A0E" font-family="sans-serif"> MSN</text></g><g class="node" transform="translate(211.40007406312165,115.85574286496386)"><circle class="outline" cx="0" cy="0" r="25" fill="#8DCC93" stroke="#5db665" stroke-width="2px"/><text text-anchor="middle" pointer-events="none" font-family="sans-serif" dy="1.5625" font-size="25" fill="#604A0E"/><text text-anchor="middle" pointer-events="none" y="5" font-size="10px" fill="#604A0E" font-family="sans-serif"> 11/30/2…</text></g><g class="node" transform="translate(156.68718542019877,23.028546224091112)"><circle class="outline" cx="0" cy="0" r="25" fill="#D9C8AE" stroke="#c0a378" stroke-width="2px"/><text text-anchor="middle" pointer-events="none" font-family="sans-serif" dy="1.5625" font-size="25" fill="#604A0E"/><text text-anchor="middle" pointer-events="none" y="5" font-size="10px" fill="#604A0E" font-family="sans-serif"> ORD</text></g><g class="node" transform="translate(51.81589846811998,-1.6695946080450497)"><circle class="outline" cx="0" cy="0" r="25" fill="#8DCC93" stroke="#5db665" stroke-width="2px"/><text text-anchor="middle" pointer-events="none" font-family="sans-serif" dy="1.5625" font-size="25" fill="#604A0E"/><text text-anchor="middle" pointer-events="none" y="5" font-size="10px" fill="#604A0E" font-family="sans-serif"> 11/10/2…</text></g><g class="node" transform="translate(-19.933962215555923,79.56340397799993)"><circle class="outline" cx="0" cy="0" r="25" fill="#D9C8AE" stroke="#c0a378" stroke-width="2px"/><text text-anchor="middle" pointer-events="none" font-family="sans-serif" dy="1.5625" font-size="25" fill="#604A0E"/><text text-anchor="middle" pointer-events="none" y="5" font-size="10px" fill="#604A0E" font-family="sans-serif"> GRR</text></g></g></svg>