<svg xmlns="http://www.w3.org/2000/svg" width="409.6669921875" height="398.1337585449219" viewBox="-105.68925476074219 -81.95746612548828 409.6669921875 398.1337585449219"><title>Neo4j Graph Visualization</title><desc>Created using Neo4j (http://www.neo4j.com/)</desc><g class="layer relationships"><g class="relationship" transform="translate(65.47041854996918 287.1763130668397) rotate(280.4263758761903)"><path class="outline" fill="#A5ABB6" stroke="none" d="M 21.40063509461097,12.933012701892217 L 21.90063509461097,12.06698729810778 A 64.90538344151466 64.90538344151466 0 0 0 41.698883434153046,19.517105663156514 L 41.503915887391415,20.49791535708789 A 65.90538344151466 65.90538344151466 0 0 1 21.40063509461097,12.933012701892217 Z M 63.3594699264987,21.14440340243803 L 63.22281730965864,20.153784372583075 A 64.90538344151466 64.90538344151466 0 0 0 83.4268140653227,13.886933802756694 L 82.08300470583474,11.204737612066587 L 89.90924007018096,11.198411329066438 L 85.21855987797333,17.463195390343504 L 83.87475051848537,14.780999199653397 A 65.90538344151466 65.90538344151466 0 0 1 63.3594699264987,21.14440340243803"/><text text-anchor="middle" pointer-events="none" font-size="8px" fill="#000000" x="52.41947916065874" y="24.234064450321554" font-family="sans-serif">trek</text></g><g class="relationship" transform="translate(85.78648342401922 176.7690598533972) rotate(346.20423557937556)"><path class="outline" fill="#A5ABB6" stroke="none" d="M 24.018736134675446,-6.953439040707552 L 24.277555179777966,-5.987513214418485 A 139.36701444599018 139.36701444599018 0 0 1 32.47433269174884,-7.92040942401448 L 32.27432797616723,-8.90020435855186 A 140.36701444599018 140.36701444599018 0 0 0 24.018736134675446,-6.953439040707552 Z M 84.59892014956296,-9.625636967058142 L 84.42615500621501,-8.640673919404094 A 139.36701444599018 139.36701444599018 0 0 1 92.6733674476352,-6.9357585889826385 L 91.97754337193147,-4.017569277839334 L 99.59844651958687,-5.798533964197803 L 93.60113288190685,-10.826677670507046 L 92.90530880620312,-7.908488359363741 A 140.36701444599018 140.36701444599018 0 0 0 84.59892014956296,-9.625636967058142"/><text text-anchor="middle" pointer-events="none" font-size="8px" fill="#000000" x="58.40945089617223" y="-8.222888892233414" font-family="sans-serif">twowheeler</text></g><g class="relationship" transform="translate(206.1284144536226 147.21967932329414) rotate(305.15874698948664)"><path class="outline" fill="#A5ABB6" stroke="none" d="M 24.018736134675446,-6.953439040707552 L 24.277555179777966,-5.987513214418485 A 130.72875571952162 130.72875571952162 0 0 1 45.39952306356664,-9.82235546576112 L 45.30227495798339,-10.817615635747075 A 131.72875571952162 131.72875571952162 0 0 0 24.018736134675446,-6.953439040707552 Z M 67.1579348555516,-11.131068702654119 L 67.08926884634502,-10.133428998562664 A 130.72875571952162 130.72875571952162 0 0 1 88.3125249921808,-6.905900386028513 L 87.61948975467507,-3.9870475018331857 L 95.23868759488752,-5.775293645881041 L 89.23657197552177,-10.797704231622284 L 88.54353673801604,-7.878851347426956 A 131.72875571952162 131.72875571952162 0 0 0 67.1579348555516,-11.131068702654119"/><text text-anchor="middle" pointer-events="none" font-size="8px" fill="#000000" x="56.23076246982569" y="-7.928493281190185" font-family="sans-serif">trek</text></g><g class="relationship" transform="translate(274.9777192999341 49.47022687895215) rotate(235.3616858191524)"><path class="outline" fill="#A5ABB6" stroke="none" d="M 25 0.5 L 47.84666494513938 0.5 L 47.84666494513938 -0.5 L 25 -0.5 Z M 69.64666513587424 0.5 L 92.49333008101362 0.5 L 92.49333008101362 3.5 L 99.49333008101362 0 L 92.49333008101362 -3.5 L 92.49333008101362 -0.5 L 69.64666513587424 -0.5 Z"/><text text-anchor="middle" pointer-events="none" font-size="8px" fill="#000000" x="58.74666504050681" y="3" transform="rotate(180 58.74666504050681 0)" font-family="sans-serif">trek</text></g><g class="relationship" transform="translate(204.21645041746163 -52.9574649861028) rotate(530.710240660922)"><path class="outline" fill="#A5ABB6" stroke="none" d="M 25 0.5 L 45.097387758685834 0.5 L 45.097387758685834 -0.5 L 25 -0.5 Z M 66.8973879494207 0.5 L 86.99477570810653 0.5 L 86.99477570810653 3.5 L 93.99477570810653 0 L 86.99477570810653 -3.5 L 86.99477570810653 -0.5 L 66.8973879494207 -0.5 Z"/><text text-anchor="middle" pointer-events="none" font-size="8px" fill="#000000" x="55.997387854053265" y="3" transform="rotate(180 55.997387854053265 0)" font-family="sans-serif">trek</text></g><g class="relationship" transform="translate(65.47041854996918 287.1763130668397) rotate(280.4263758761903)"><path class="outline" fill="#A5ABB6" stroke="none" d="M 25 0.5 L 40.630437496299244 0.5 L 40.630437496299244 -0.5 L 25 -0.5 Z M 64.63043749629924 0.5 L 80.26087499259849 0.5 L 80.26087499259849 3.5 L 87.26087499259849 0 L 80.26087499259849 -3.5 L 80.26087499259849 -0.5 L 64.63043749629924 -0.5 Z"/><text text-anchor="middle" pointer-events="none" font-size="8px" fill="#000000" x="52.630437496299244" y="3" font-family="sans-serif">road</text></g><g class="relationship" transform="translate(65.47041854996918 287.1763130668397) rotate(280.4263758761903)"><path class="outline" fill="#A5ABB6" stroke="none" d="M 21.40063509461097,-12.933012701892217 L 21.90063509461097,-12.06698729810778 A 64.90538344151466 64.90538344151466 0 0 1 22.2194615215692,-12.249860136247207 L 21.72437369387376,-13.118703069617688 A 65.90538344151466 65.90538344151466 0 0 0 21.40063509461097,-12.933012701892217 Z M 83.54060210116796,-14.947229246645307 L 83.09773577126184,-14.050641596810962 A 64.90538344151466 64.90538344151466 0 0 1 83.4268140653227,-13.886933802756694 L 82.08300470583474,-11.204737612066587 L 89.90924007018096,-11.198411329066438 L 85.21855987797333,-17.463195390343504 L 83.87475051848537,-14.780999199653397 A 65.90538344151466 65.90538344151466 0 0 0 83.54060210116796,-14.947229246645307"/><text text-anchor="middle" pointer-events="none" font-size="8px" fill="#000000" x="52.41947916065874" y="-18.234064450321554" font-family="sans-serif">PublicTransp…</text></g><g class="relationship" transform="translate(85.78648342401922 176.7690598533972) rotate(346.20423557937556)"><path class="outline" fill="#A5ABB6" stroke="none" d="M 24.018736134675446,6.953439040707552 L 24.277555179777966,5.987513214418485 A 139.36701444599018 139.36701444599018 0 0 0 47.573244533585225,10.149573681658609 L 47.4815790251098,11.145363536274516 A 140.36701444599018 140.36701444599018 0 0 1 24.018736134675446,6.953439040707552 Z M 69.33527184271205,11.448344997336477 L 69.27124769073657,10.450396647989777 A 139.36701444599018 139.36701444599018 0 0 0 92.6733674476352,6.9357585889826385 L 91.97754337193147,4.017569277839334 L 99.59844651958687,5.798533964197803 L 93.60113288190685,10.826677670507046 L 92.90530880620312,7.908488359363741 A 140.36701444599018 140.36701444599018 0 0 1 69.33527184271205,11.448344997336477"/><text text-anchor="middle" pointer-events="none" font-size="8px" fill="#000000" x="58.40945089617228" y="14.222888892233414" font-family="sans-serif">trek</text></g><g class="relationship" transform="translate(206.1284144536226 147.21967932329414) rotate(305.15874698948664)"><path class="outline" fill="#A5ABB6" stroke="none" d="M 24.018736134675446,6.953439040707552 L 24.277555179777966,5.987513214418485 A 130.72875571952162 130.72875571952162 0 0 0 30.32637746244921,7.454888315388075 L 30.113828438424903,8.432038719566634 A 131.72875571952162 131.72875571952162 0 0 1 24.018736134675446,6.953439040707552 Z M 82.40854801897342,9.182047656033973 L 82.22410916214432,8.199203666332863 A 130.72875571952162 130.72875571952162 0 0 0 88.3125249921808,6.905900386028513 L 87.61948975467507,3.9870475018331857 L 95.23868759488752,5.775293645881041 L 89.23657197552177,10.797704231622284 L 88.54353673801604,7.878851347426956 A 131.72875571952162 131.72875571952162 0 0 1 82.40854801897342,9.182047656033973"/><text text-anchor="middle" pointer-events="none" font-size="8px" fill="#000000" x="56.23076246982572" y="13.928493281190185" font-family="sans-serif">twowheeler</text></g><g class="relationship" transform="translate(274.9777192999341 49.47022687895215) rotate(183.89055243883865)"><path class="outline" fill="#A5ABB6" stroke="none" d="M 21.40063509461097,12.933012701892217 L 21.90063509461097,12.06698729810778 A 55.39911824501664 55.39911824501664 0 0 0 36.06971053762058,17.811338857602024 L 35.82547409292381,18.78105456804601 A 56.39911824501664 56.39911824501664 0 0 1 21.40063509461097,12.933012701892217 Z M 59.84224089788578,19.55129061873044 L 59.66064148641499,18.567918027210084 A 55.39911824501664 55.39911824501664 0 0 0 74.16867303518194,13.743263186836147 L 72.83822881893634,11.05441246813519 L 80.66439874819176,11.087035135379928 L 75.94259865684272,17.328397478437424 L 74.61215444059712,14.639546759736467 A 56.39911824501664 56.39911824501664 0 0 1 59.84224089788578,19.55129061873044"/><text text-anchor="middle" pointer-events="none" font-size="8px" fill="#000000" x="47.808388040187204" y="22.96033688375961" transform="rotate(180 47.808388040187204 19.96033688375961)" font-family="sans-serif">road</text></g><g class="relationship" transform="translate(172.14376149523002 42.4767459625028) rotate(221.76389805490248)"><path class="outline" fill="#A5ABB6" stroke="none" d="M 24.018736134675446,6.953439040707552 L 24.277555179777966,5.987513214418485 A 120.5472893899433 120.5472893899433 0 0 0 42.84395637373444,9.431228257997788 L 42.73915490370902,10.4257214213129 A 121.5472893899433 121.5472893899433 0 0 1 24.018736134675446,6.953439040707552 Z M 64.59718995384785,10.752453796339125 L 64.5221598936117,9.755272523921235 A 120.5472893899433 120.5472893899433 0 0 0 83.18319578834071,6.868030599184715 L 82.49369775601237,3.9483401252790755 L 90.11072323284192,5.745816936069524 L 84.10252649811183,10.760951231058902 L 83.41302846578348,7.841260757153263 A 121.5472893899433 121.5472893899433 0 0 1 64.59718995384785,10.752453796339125"/><text text-anchor="middle" pointer-events="none" font-size="8px" fill="#000000" x="53.66828523018381" y="13.581541319383021" transform="rotate(180 53.66828523018381 10.581541319383021)" font-family="sans-serif">trek</text></g><g class="relationship" transform="translate(274.9777192999341 49.47022687895215) rotate(183.89055243883865)"><path class="outline" fill="#A5ABB6" stroke="none" d="M 25 0.5 L 37.13574393998244 0.5 L 37.13574393998244 -0.5 L 25 -0.5 Z M 58.9357441307173 0.5 L 71.07148807069974 0.5 L 71.07148807069974 3.5 L 78.07148807069974 0 L 71.07148807069974 -3.5 L 71.07148807069974 -0.5 L 58.9357441307173 -0.5 Z"/><text text-anchor="middle" pointer-events="none" font-size="8px" fill="#000000" x="48.03574403534987" y="3" transform="rotate(180 48.03574403534987 0)" font-family="sans-serif">trek</text></g><g class="relationship" transform="translate(274.9777192999341 49.47022687895215) rotate(183.89055243883865)"><path class="outline" fill="#A5ABB6" stroke="none" d="M 21.40063509461097,-12.933012701892217 L 21.90063509461097,-12.06698729810778 A 55.39911824501664 55.39911824501664 0 0 1 22.98170722651144,-12.675110553117648 L 22.50122147450216,-13.55211308567732 A 56.39911824501664 56.39911824501664 0 0 0 21.40063509461097,-12.933012701892217 Z M 73.4741604723242,-15.186854162371695 L 73.05085658038234,-14.280866405795003 A 55.39911824501664 55.39911824501664 0 0 1 74.16867303518194,-13.743263186836147 L 72.83822881893634,-11.05441246813519 L 80.66439874819176,-11.087035135379928 L 75.94259865684272,-17.328397478437424 L 74.61215444059712,-14.639546759736467 A 56.39911824501664 56.39911824501664 0 0 0 73.4741604723242,-15.186854162371695"/><text text-anchor="middle" pointer-events="none" font-size="8px" fill="#000000" x="47.80838804018718" y="-16.96033688375961" transform="rotate(180 47.80838804018718 -19.96033688375961)" font-family="sans-serif">twowheeler</text></g><g class="relationship" transform="translate(172.14376149523002 42.4767459625028) rotate(221.76389805490248)"><path class="outline" fill="#A5ABB6" stroke="none" d="M 24.018736134675446,-6.953439040707552 L 24.277555179777966,-5.987513214418485 A 120.5472893899433 120.5472893899433 0 0 1 27.807927298912443,-6.876560305749905 L 27.578394454578106,-7.849861221896489 A 121.5472893899433 121.5472893899433 0 0 0 24.018736134675446,-6.953439040707552 Z M 79.8281672098777,-8.630887160767927 L 79.6278280840715,-7.651160548558579 A 120.5472893899433 120.5472893899433 0 0 1 83.18319578834071,-6.868030599184715 L 82.49369775601237,-3.9483401252790755 L 90.11072323284192,-5.745816936069524 L 84.10252649811183,-10.760951231058902 L 83.41302846578348,-7.841260757153263 A 121.5472893899433 121.5472893899433 0 0 0 79.8281672098777,-8.630887160767927"/><text text-anchor="middle" pointer-events="none" font-size="8px" fill="#000000" x="53.66828523018378" y="-7.581541319383021" transform="rotate(180 53.66828523018378 -10.581541319383021)" font-family="sans-serif">twowheeler</text></g><g class="relationship" transform="translate(85.78648342401922 176.7690598533972) rotate(516.8963262066022)"><path class="outline" fill="#A5ABB6" stroke="none" d="M 25 0.5 L 43.216275473625004 0.5 L 43.216275473625004 -0.5 L 25 -0.5 Z M 65.01627566435987 0.5 L 83.23255113798487 0.5 L 83.23255113798487 3.5 L 90.23255113798487 0 L 83.23255113798487 -3.5 L 83.23255113798487 -0.5 L 65.01627566435987 -0.5 Z"/><text text-anchor="middle" pointer-events="none" font-size="8px" fill="#000000" x="54.116275568992435" y="3" transform="rotate(180 54.116275568992435 0)" font-family="sans-serif">trek</text></g><g class="relationship" transform="translate(-20.203995229857085 221.9858628860143) rotate(240.3260887691198)"><path class="outline" fill="#A5ABB6" stroke="none" d="M 21.40063509461097,-12.933012701892217 L 21.90063509461097,-12.06698729810778 A 66.79880571930184 66.79880571930184 0 0 1 41.543176376411964,-19.584406164060866 L 41.33723165285421,-20.56296979042284 A 67.79880571930184 67.79880571930184 0 0 0 21.40063509461097,-12.933012701892217 Z M 65.37742662369781,-21.263212715903336 L 65.228789954327,-20.274320840864235 A 66.79880571930184 66.79880571930184 0 0 1 85.2755920147551,-13.912973376414678 L 83.92936042852938,-11.231992116456272 L 91.75558688569568,-11.218596551881056 L 87.07056746305608,-17.48761505635922 L 85.72433587683035,-14.806633796400815 A 67.79880571930184 67.79880571930184 0 0 0 65.37742662369781,-21.263212715903336"/><text text-anchor="middle" pointer-events="none" font-size="8px" fill="#000000" x="53.34058904935836" y="-18.487798953542324" transform="rotate(180 53.34058904935836 -21.487798953542324)" font-family="sans-serif">road</text></g><g class="relationship" transform="translate(-76.68925782829128 122.85179840287225) rotate(330.9792571924382)"><path class="outline" fill="#A5ABB6" stroke="none" d="M 21.40063509461097,12.933012701892217 L 21.90063509461097,12.06698729810778 A 66.04457539570916 66.04457539570916 0 0 0 41.179286313240006,19.469456402538313 L 40.97118994201073,20.447564730016012 A 67.04457539570916 67.04457539570916 0 0 1 21.40063509461097,12.933012701892217 Z M 65.01035873224255,21.15206754539541 L 64.85990008767304,20.16345124152707 A 66.04457539570916 66.04457539570916 0 0 0 84.53897200650577,13.902694892250766 L 83.19369652990859,11.221233743536088 L 91.01992726627289,11.210628971643136 L 86.33267264196867,17.477976423870338 L 84.98739716537149,14.796515275155658 A 67.04457539570916 67.04457539570916 0 0 1 65.01035873224255,21.15206754539541"/><text text-anchor="middle" pointer-events="none" font-size="8px" fill="#000000" x="52.973574133681915" y="24.38672450032375" font-family="sans-serif">road</text></g><g class="relationship" transform="translate(22.44248342066812 67.85525172380427) rotate(302.34376075098555)"><path class="outline" fill="#A5ABB6" stroke="none" d="M 25 0.5 L 45.730957261777924 0.5 L 45.730957261777924 -0.5 L 25 -0.5 Z M 67.53095745251278 0.5 L 88.26191471429071 0.5 L 88.26191471429071 3.5 L 95.26191471429071 0 L 88.26191471429071 -3.5 L 88.26191471429071 -0.5 L 67.53095745251278 -0.5 Z"/><text text-anchor="middle" pointer-events="none" font-size="8px" fill="#000000" x="56.630957357145356" y="3" font-family="sans-serif">trek</text></g><g class="relationship" transform="translate(-20.203995229857085 221.9858628860143) rotate(240.3260887691198)"><path class="outline" fill="#A5ABB6" stroke="none" d="M 25 0.5 L 27.323548311204824 0.5 L 27.323548311204824 -0.5 L 25 -0.5 Z M 79.77354907414428 0.5 L 82.0970973853491 0.5 L 82.0970973853491 3.5 L 89.0970973853491 0 L 82.0970973853491 -3.5 L 82.0970973853491 -0.5 L 79.77354907414428 -0.5 Z"/><text text-anchor="middle" pointer-events="none" font-size="8px" fill="#000000" x="53.54854869267455" y="3" transform="rotate(180 53.54854869267455 0)" font-family="sans-serif">twowheeler</text></g><g class="relationship" transform="translate(-76.68925782829128 122.85179840287225) rotate(330.9792571924382)"><path class="outline" fill="#A5ABB6" stroke="none" d="M 25 0.5 L 26.957718037977884 0.5 L 26.957718037977884 -0.5 L 25 -0.5 Z M 79.40771880091734 0.5 L 81.36543683889522 0.5 L 81.36543683889522 3.5 L 88.36543683889522 0 L 81.36543683889522 -3.5 L 81.36543683889522 -0.5 L 79.40771880091734 -0.5 Z"/><text text-anchor="middle" pointer-events="none" font-size="8px" fill="#000000" x="53.18271841944761" y="3" font-family="sans-serif">twowheeler</text></g><g class="relationship" transform="translate(-20.203995229857085 221.9858628860143) rotate(240.3260887691198)"><path class="outline" fill="#A5ABB6" stroke="none" d="M 21.40063509461097,12.933012701892217 L 21.90063509461097,12.06698729810778 A 66.79880571930184 66.79880571930184 0 0 0 42.61338897860026,19.800520747260663 L 42.4234656882203,20.78231967971641 A 67.79880571930184 67.79880571930184 0 0 1 21.40063509461097,12.933012701892217 Z M 64.2802666192212,21.41896469212712 L 64.14781253585372,20.42777554983425 A 66.79880571930184 66.79880571930184 0 0 0 85.2755920147551,13.912973376414678 L 83.92936042852938,11.231992116456272 L 91.75558688569568,11.218596551881056 L 87.07056746305608,17.48761505635922 L 85.72433587683035,14.806633796400815 A 67.79880571930184 67.79880571930184 0 0 1 64.2802666192212,21.41896469212712"/><text text-anchor="middle" pointer-events="none" font-size="8px" fill="#000000" x="53.340589049358364" y="24.487798953542324" transform="rotate(180 53.340589049358364 21.487798953542324)" font-family="sans-serif">trek</text></g><g class="relationship" transform="translate(-76.68925782829128 122.85179840287225) rotate(330.9792571924382)"><path class="outline" fill="#A5ABB6" stroke="none" d="M 21.40063509461097,-12.933012701892217 L 21.90063509461097,-12.06698729810778 A 66.04457539570916 66.04457539570916 0 0 1 42.24895023248572,-19.68780650075999 L 42.057049951742854,-20.669220930168294 A 67.04457539570916 67.04457539570916 0 0 0 21.40063509461097,-12.933012701892217 Z M 63.91338157729441,-21.30975252668189 L 63.779284840432915,-20.318784280387845 A 66.04457539570916 66.04457539570916 0 0 1 84.53897200650577,-13.902694892250766 L 83.19369652990859,-11.221233743536088 L 91.01992726627289,-11.210628971643136 L 86.33267264196867,-17.477976423870338 L 84.98739716537149,-14.796515275155658 A 67.04457539570916 67.04457539570916 0 0 0 63.91338157729441,-21.30975252668189"/><text text-anchor="middle" pointer-events="none" font-size="8px" fill="#000000" x="52.97357413368191" y="-18.38672450032375" font-family="sans-serif">trek</text></g><g class="relationship" transform="translate(206.1284144536226 147.21967932329414) rotate(252.02394513691746)"><path class="outline" fill="#A5ABB6" stroke="none" d="M 24.018736134675446,-6.953439040707552 L 24.277555179777966,-5.987513214418485 A 111.93111332669946 111.93111332669946 0 0 1 40.68755514538721,-9.094561340488099 L 40.57534412979398,-10.08824574107993 A 112.93111332669946 112.93111332669946 0 0 0 24.018736134675446,-6.953439040707552 Z M 62.43538119268449,-10.42709442060935 L 62.35402254958098,-9.430409529988268 A 111.93111332669946 111.93111332669946 0 0 1 78.85243906177016,-6.83346911493605 L 78.16616928603463,-3.9130181574789806 L 85.7812029251259,-5.71891479779601 L 79.76746542941751,-10.72740372487881 L 79.08119565368199,-7.80695276742174 A 112.93111332669946 112.93111332669946 0 0 0 62.43538119268449,-10.42709442060935"/><text text-anchor="middle" pointer-events="none" font-size="8px" fill="#000000" x="51.50489300884539" y="-7.287968616315439" transform="rotate(180 51.50489300884539 -10.287968616315439)" font-family="sans-serif">trek</text></g><g class="relationship" transform="translate(85.78648342401922 176.7690598533972) rotate(239.8178237734541)"><path class="outline" fill="#A5ABB6" stroke="none" d="M 25 0.5 L 48.597380678983676 0.5 L 48.597380678983676 -0.5 L 25 -0.5 Z M 70.39738086971855 0.5 L 93.99476154870221 0.5 L 93.99476154870221 3.5 L 100.99476154870221 0 L 93.99476154870221 -3.5 L 93.99476154870221 -0.5 L 70.39738086971855 -0.5 Z"/><text text-anchor="middle" pointer-events="none" font-size="8px" fill="#000000" x="59.49738077435111" y="3" transform="rotate(180 59.49738077435111 0)" font-family="sans-serif">trek</text></g><g class="relationship" transform="translate(206.1284144536226 147.21967932329414) rotate(252.02394513691746)"><path class="outline" fill="#A5ABB6" stroke="none" d="M 24.018736134675446,6.953439040707552 L 24.277555179777966,5.987513214418485 A 111.93111332669946 111.93111332669946 0 0 0 25.690461521969432,6.35623943478727 L 25.444265475961608,7.325459485616861 A 112.93111332669946 112.93111332669946 0 0 1 24.018736134675446,6.953439040707552 Z M 77.6448207083558,8.13461132558453 L 77.42878315288142,7.158226271098002 A 111.93111332669946 111.93111332669946 0 0 0 78.85243906177016,6.83346911493605 L 78.16616928603463,3.9130181574789806 L 85.7812029251259,5.71891479779601 L 79.76746542941751,10.72740372487881 L 79.08119565368199,7.80695276742174 A 112.93111332669946 112.93111332669946 0 0 1 77.6448207083558,8.13461132558453"/><text text-anchor="middle" pointer-events="none" font-size="8px" fill="#000000" x="51.504893008845414" y="13.287968616315439" transform="rotate(180 51.504893008845414 10.287968616315439)" font-family="sans-serif">twowheeler</text></g><g class="relationship" transform="translate(65.47041854996918 287.1763130668397) rotate(217.26784036144466)"><path class="outline" fill="#A5ABB6" stroke="none" d="M 24.018736134675446,-6.953439040707552 L 24.277555179777966,-5.987513214418485 A 107.01502182946378 107.01502182946378 0 0 1 39.46010275694203,-8.899654062998394 L 39.34315676216097,-9.892792338519314 A 108.01502182946378 108.01502182946378 0 0 0 24.018736134675446,-6.953439040707552 Z M 61.20429940340688,-10.238949433534842 L 61.11885556137653,-9.242606445473456 A 107.01502182946378 107.01502182946378 0 0 1 76.38599233107315,-6.812616710887136 L 75.70167032732675,-3.891708736440062 L 83.31549793874073,-5.702683364553371 L 77.2984216694017,-10.707160676816567 L 76.6140996656553,-7.786252702369493 A 108.01502182946378 108.01502182946378 0 0 0 61.20429940340688,-10.238949433534842"/><text text-anchor="middle" pointer-events="none" font-size="8px" fill="#000000" x="50.27286329174266" y="-7.120485743212583" transform="rotate(180 50.27286329174266 -10.120485743212583)" font-family="sans-serif">trek</text></g><g class="relationship" transform="translate(65.47041854996918 287.1763130668397) rotate(217.26784036144466)"><path class="outline" fill="#A5ABB6" stroke="none" d="M 24.018736134675446,6.953439040707552 L 24.277555179777966,5.987513214418485 A 107.01502182946378 107.01502182946378 0 0 0 38.3734051839962,8.766051488418654 L 38.24630456274899,9.757941317017867 A 108.01502182946378 108.01502182946378 0 0 1 24.018736134675446,6.953439040707552 Z M 62.30487120764293,10.138893203966418 L 62.209238303150755,9.14347653363265 A 107.01502182946378 107.01502182946378 0 0 0 76.38599233107315,6.812616710887136 L 75.70167032732675,3.891708736440062 L 83.31549793874073,5.702683364553371 L 77.2984216694017,10.707160676816567 L 76.6140996656553,7.786252702369493 A 108.01502182946378 108.01502182946378 0 0 1 62.30487120764293,10.138893203966418"/><text text-anchor="middle" pointer-events="none" font-size="8px" fill="#000000" x="50.27286329174265" y="13.120485743212583" transform="rotate(180 50.27286329174265 10.120485743212583)" font-family="sans-serif">road</text></g></g><g class="layer nodes"><g class="node" transform="translate(65.47041854996918,287.1763130668397)"><circle class="outline" cx="0" cy="0" r="25" fill="#F79767" stroke="#f36924" stroke-width="2px"/><text text-anchor="middle" pointer-events="none" font-family="sans-serif" dy="1.5625" font-size="25" fill="#FFFFFF"/><text text-anchor="middle" pointer-events="none" y="5" font-size="10px" fill="#FFFFFF" font-family="sans-serif"> Darjeeli…</text></g><g class="node" transform="translate(85.78648342401922,176.7690598533972)"><circle class="outline" cx="0" cy="0" r="25" fill="#F79767" stroke="#f36924" stroke-width="2px"/><text text-anchor="middle" pointer-events="none" font-family="sans-serif" dy="1.5625" font-size="25" fill="#FFFFFF"/><text text-anchor="middle" pointer-events="none" y="5" font-size="10px" fill="#FFFFFF" font-family="sans-serif"> Rimbik</text></g><g class="node" transform="translate(206.1284144536226,147.21967932329414)"><circle class="outline" cx="0" cy="0" r="25" fill="#57C7E3" stroke="#23b3d7" stroke-width="2px"/><text text-anchor="middle" pointer-events="none" font-family="sans-serif" dy="1.5625" font-size="25" fill="#FFFFFF"/><text text-anchor="middle" pointer-events="none" y="5" font-size="10px" fill="#FFFFFF" font-family="sans-serif"> Sirikhola</text></g><g class="node" transform="translate(274.9777192999341,49.47022687895215)"><circle class="outline" cx="0" cy="0" r="25" fill="#57C7E3" stroke="#23b3d7" stroke-width="2px"/><text text-anchor="middle" pointer-events="none" font-family="sans-serif" dy="1.5625" font-size="25" fill="#FFFFFF"/><text text-anchor="middle" pointer-events="none" y="5" font-size="10px" fill="#FFFFFF" font-family="sans-serif"> Ramm…</text></g><g class="node" transform="translate(204.21645041746163,-52.9574649861028)"><circle class="outline" cx="0" cy="0" r="25" fill="#F16667" stroke="#eb2728" stroke-width="2px"/><text text-anchor="middle" pointer-events="none" font-family="sans-serif" dy="1.5625" font-size="25" fill="#FFFFFF"/><text text-anchor="middle" pointer-events="none" y="5" font-size="10px" fill="#FFFFFF" font-family="sans-serif"> Sabarg…</text></g><g class="node" transform="translate(86.78234062080696,-33.748443613585266)"><circle class="outline" cx="0" cy="0" r="25" fill="#F16667" stroke="#eb2728" stroke-width="2px"/><text text-anchor="middle" pointer-events="none" font-family="sans-serif" dy="1.5625" font-size="25" fill="#FFFFFF"/><text text-anchor="middle" pointer-events="none" y="5" font-size="10px" fill="#FFFFFF" font-family="sans-serif"> Sandak…</text></g><g class="node" transform="translate(172.14376149523002,42.4767459625028)"><circle class="outline" cx="0" cy="0" r="25" fill="#57C7E3" stroke="#23b3d7" stroke-width="2px"/><text text-anchor="middle" pointer-events="none" font-family="sans-serif" dy="1.5625" font-size="25" fill="#FFFFFF"/><text text-anchor="middle" pointer-events="none" y="5" font-size="10px" fill="#FFFFFF" font-family="sans-serif"> Gurdum</text></g><g class="node" transform="translate(-20.203995229857085,221.9858628860143)"><circle class="outline" cx="0" cy="0" r="25" fill="#57C7E3" stroke="#23b3d7" stroke-width="2px"/><text text-anchor="middle" pointer-events="none" font-family="sans-serif" dy="1.5625" font-size="25" fill="#FFFFFF"/><text text-anchor="middle" pointer-events="none" y="5" font-size="10px" fill="#FFFFFF" font-family="sans-serif"> Tumbling</text></g><g class="node" transform="translate(-76.68925782829128,122.85179840287225)"><circle class="outline" cx="0" cy="0" r="25" fill="#57C7E3" stroke="#23b3d7" stroke-width="2px"/><text text-anchor="middle" pointer-events="none" font-family="sans-serif" dy="1.5625" font-size="25" fill="#FFFFFF"/><text text-anchor="middle" pointer-events="none" y="5" font-size="10px" fill="#FFFFFF" font-family="sans-serif"> Gairibus</text></g><g class="node" transform="translate(22.44248342066812,67.85525172380427)"><circle class="outline" cx="0" cy="0" r="25" fill="#57C7E3" stroke="#23b3d7" stroke-width="2px"/><text text-anchor="middle" pointer-events="none" font-family="sans-serif" dy="1.5625" font-size="25" fill="#FFFFFF"/><text text-anchor="middle" pointer-events="none" y="5" font-size="10px" fill="#FFFFFF" font-family="sans-serif"> BhikeB…</text></g></g></svg>