<svg xmlns="http://www.w3.org/2000/svg" width="406.431640625" height="399.60540771484375" viewBox="-108.29206848144531 -86.96406555175781 406.431640625 399.60540771484375"><title>Neo4j Graph Visualization</title><desc>Created using Neo4j (http://www.neo4j.com/)</desc><g class="layer relationships"><g class="relationship" transform="translate(237.86355123184399 207.29816063234247) rotate(494.2284916709049)"><path class="outline" fill="#A5ABB6" stroke="none" d="M 25 0.5 L 32.378676814252024 0.5 L 32.378676814252024 -0.5 L 25 -0.5 Z M 67.16200963895906 0.5 L 74.54068645321108 0.5 L 74.54068645321108 3.5 L 81.54068645321108 0 L 74.54068645321108 -3.5 L 74.54068645321108 -0.5 L 67.16200963895906 -0.5 Z"/><text text-anchor="middle" pointer-events="none" font-size="8px" fill="#000000" x="49.77034322660554" y="3" transform="rotate(180 49.77034322660554 0)" font-family="sans-serif">ORIGIN</text></g><g class="relationship" transform="translate(237.86355123184399 207.29816063234247) rotate(286.8844312992282)"><path class="outline" fill="#A5ABB6" stroke="none" d="M 25 0.5 L 25.84207086967359 0.5 L 25.84207086967359 -0.5 L 25 -0.5 Z M 74.84207086967359 0.5 L 75.68414173934718 0.5 L 75.68414173934718 3.5 L 82.68414173934718 0 L 75.68414173934718 -3.5 L 75.68414173934718 -0.5 L 74.84207086967359 -0.5 Z"/><text text-anchor="middle" pointer-events="none" font-size="8px" fill="#000000" x="50.34207086967359" y="3" font-family="sans-serif">DESTINA…</text></g><g class="relationship" transform="translate(240.68884509159028 -1.0801831859538484) rotate(434.88537930994266)"><path class="outline" fill="#A5ABB6" stroke="none" d="M 25 0.5 L 33.663711526585956 0.5 L 33.663711526585956 -0.5 L 25 -0.5 Z M 68.44704435129299 0.5 L 77.11075587787894 0.5 L 77.11075587787894 3.5 L 84.11075587787894 0 L 77.11075587787894 -3.5 L 77.11075587787894 -0.5 L 68.44704435129299 -0.5 Z"/><text text-anchor="middle" pointer-events="none" font-size="8px" fill="#000000" x="51.05537793893947" y="3" font-family="sans-serif">ORIGIN</text></g><g class="relationship" transform="translate(240.68884509159028 -1.0801831859538484) rotate(211.5160610160546)"><path class="outline" fill="#A5ABB6" stroke="none" d="M 25 0.5 L 26.409594839112813 0.5 L 26.409594839112813 -0.5 L 25 -0.5 Z M 75.40959483911281 0.5 L 76.81918967822563 0.5 L 76.81918967822563 3.5 L 83.81918967822563 0 L 76.81918967822563 -3.5 L 76.81918967822563 -0.5 L 75.40959483911281 -0.5 Z"/><text text-anchor="middle" pointer-events="none" font-size="8px" fill="#000000" x="50.90959483911281" y="3" transform="rotate(180 50.90959483911281 0)" font-family="sans-serif">DESTINA…</text></g><g class="relationship" transform="translate(39.35966513881076 -52.099122608662874) rotate(356.9076533074899)"><path class="outline" fill="#A5ABB6" stroke="none" d="M 25 0.5 L 26.359909322513346 0.5 L 26.359909322513346 -0.5 L 25 -0.5 Z M 75.35990932251335 0.5 L 76.71981864502669 0.5 L 76.71981864502669 3.5 L 83.71981864502669 0 L 76.71981864502669 -3.5 L 76.71981864502669 -0.5 L 75.35990932251335 -0.5 Z"/><text text-anchor="middle" pointer-events="none" font-size="8px" fill="#000000" x="50.859909322513346" y="3" font-family="sans-serif">DESTINA…</text></g><g class="relationship" transform="translate(39.35966513881076 -52.099122608662874) rotate(504.8248043056298)"><path class="outline" fill="#A5ABB6" stroke="none" d="M 25 0.5 L 33.31995048019879 0.5 L 33.31995048019879 -0.5 L 25 -0.5 Z M 68.10328330490583 0.5 L 76.42323378510461 0.5 L 76.42323378510461 3.5 L 83.42323378510461 0 L 76.42323378510461 -3.5 L 76.42323378510461 -0.5 L 68.10328330490583 -0.5 Z"/><text text-anchor="middle" pointer-events="none" font-size="8px" fill="#000000" x="50.71161689255231" y="3" transform="rotate(180 50.71161689255231 0)" font-family="sans-serif">ORIGIN</text></g><g class="relationship" transform="translate(-79.29206638763402 114.3642572418902) rotate(286.1041916359153)"><path class="outline" fill="#A5ABB6" stroke="none" d="M 25 0.5 L 33.23382187907957 0.5 L 33.23382187907957 -0.5 L 25 -0.5 Z M 68.0171547037866 0.5 L 76.25097658286617 0.5 L 76.25097658286617 3.5 L 83.25097658286617 0 L 76.25097658286617 -3.5 L 76.25097658286617 -0.5 L 68.0171547037866 -0.5 Z"/><text text-anchor="middle" pointer-events="none" font-size="8px" fill="#000000" x="50.625488291433086" y="3" font-family="sans-serif">ORIGIN</text></g><g class="relationship" transform="translate(-79.29206638763402 114.3642572418902) rotate(432.3593276556141)"><path class="outline" fill="#A5ABB6" stroke="none" d="M 25 0.5 L 25.73064038747897 0.5 L 25.73064038747897 -0.5 L 25 -0.5 Z M 74.73064038747897 0.5 L 75.46128077495794 0.5 L 75.46128077495794 3.5 L 82.46128077495794 0 L 75.46128077495794 -3.5 L 75.46128077495794 -0.5 L 74.73064038747897 -0.5 Z"/><text text-anchor="middle" pointer-events="none" font-size="8px" fill="#000000" x="50.23064038747897" y="3" font-family="sans-serif">DESTINA…</text></g></g><g class="layer nodes"><g class="node" transform="translate(163.5491299665205,283.6413637477572)"><circle class="outline" cx="0" cy="0" r="25" fill="#D9C8AE" stroke="#c0a378" stroke-width="2px"/><text text-anchor="middle" pointer-events="none" font-family="sans-serif" dy="1.5625" font-size="25" fill="#604A0E"/><text text-anchor="middle" pointer-events="none" y="5" font-size="10px" fill="#604A0E" font-family="sans-serif"> LAX</text></g><g class="node" transform="translate(237.86355123184399,207.29816063234247)"><circle class="outline" cx="0" cy="0" r="25" fill="#8DCC93" stroke="#5db665" stroke-width="2px"/><text text-anchor="middle" pointer-events="none" font-family="sans-serif" dy="1.5625" font-size="25" fill="#604A0E"/><text text-anchor="middle" pointer-events="none" y="5" font-size="10px" fill="#604A0E" font-family="sans-serif"> 11/29/2…</text></g><g class="node" transform="translate(269.139569468323,104.2560087457905)"><circle class="outline" cx="0" cy="0" r="25" fill="#D9C8AE" stroke="#c0a378" stroke-width="2px"/><text text-anchor="middle" pointer-events="none" font-family="sans-serif" dy="1.5625" font-size="25" fill="#604A0E"/><text text-anchor="middle" pointer-events="none" y="5" font-size="10px" fill="#604A0E" font-family="sans-serif"> LAS</text></g><g class="node" transform="translate(240.68884509159028,-1.0801831859538484)"><circle class="outline" cx="0" cy="0" r="25" fill="#8DCC93" stroke="#5db665" stroke-width="2px"/><text text-anchor="middle" pointer-events="none" font-family="sans-serif" dy="1.5625" font-size="25" fill="#604A0E"/><text text-anchor="middle" pointer-events="none" y="5" font-size="10px" fill="#604A0E" font-family="sans-serif"> 11/29/2…</text></g><g class="node" transform="translate(147.92117522705746,-57.964060252577)"><circle class="outline" cx="0" cy="0" r="25" fill="#D9C8AE" stroke="#c0a378" stroke-width="2px"/><text text-anchor="middle" pointer-events="none" font-family="sans-serif" dy="1.5625" font-size="25" fill="#604A0E"/><text text-anchor="middle" pointer-events="none" y="5" font-size="10px" fill="#604A0E" font-family="sans-serif"> DEN</text></g><g class="node" transform="translate(39.35966513881076,-52.099122608662874)"><circle class="outline" cx="0" cy="0" r="25" fill="#8DCC93" stroke="#5db665" stroke-width="2px"/><text text-anchor="middle" pointer-events="none" font-family="sans-serif" dy="1.5625" font-size="25" fill="#604A0E"/><text text-anchor="middle" pointer-events="none" y="5" font-size="10px" fill="#604A0E" font-family="sans-serif"> 11/29/2…</text></g><g class="node" transform="translate(-49.26487562468604,10.361171970203326)"><circle class="outline" cx="0" cy="0" r="25" fill="#D9C8AE" stroke="#c0a378" stroke-width="2px"/><text text-anchor="middle" pointer-events="none" font-family="sans-serif" dy="1.5625" font-size="25" fill="#604A0E"/><text text-anchor="middle" pointer-events="none" y="5" font-size="10px" fill="#604A0E" font-family="sans-serif"> MSP</text></g><g class="node" transform="translate(-79.29206638763402,114.3642572418902)"><circle class="outline" cx="0" cy="0" r="25" fill="#8DCC93" stroke="#5db665" stroke-width="2px"/><text text-anchor="middle" pointer-events="none" font-family="sans-serif" dy="1.5625" font-size="25" fill="#604A0E"/><text text-anchor="middle" pointer-events="none" y="5" font-size="10px" fill="#604A0E" font-family="sans-serif"> 11/23/2…</text></g><g class="node" transform="translate(-46.72630647139054,216.77225569353428)"><circle class="outline" cx="0" cy="0" r="25" fill="#D9C8AE" stroke="#c0a378" stroke-width="2px"/><text text-anchor="middle" pointer-events="none" font-family="sans-serif" dy="1.5625" font-size="25" fill="#604A0E"/><text text-anchor="middle" pointer-events="none" y="5" font-size="10px" fill="#604A0E" font-family="sans-serif"> DAY</text></g></g></svg>