<svg xmlns="http://www.w3.org/2000/svg" width="1072.5767822265625" height="951.406982421875" viewBox="-341.8807678222656 -389.6678161621094 1072.5767822265625 951.406982421875"><title>Neo4j Graph Visualization</title><desc>Created using Neo4j (http://www.neo4j.com/)</desc><g class="layer relationships"><g class="relationship" transform="translate(-224.67267565544904 199.7029129525402) rotate(414.5633024546224)"><path class="outline" fill="#A5ABB6" stroke="none" d="M 25 0.5 L 106.78514180293604 0.5 L 106.78514180293604 -0.5 L 25 -0.5 Z M 141.23045430293604 0.5 L 223.01559610587208 0.5 L 223.01559610587208 3.5 L 230.01559610587208 0 L 223.01559610587208 -3.5 L 223.01559610587208 -0.5 L 141.23045430293604 -0.5 Z"/><text text-anchor="middle" pointer-events="none" font-size="8px" fill="#000000" x="124.00779805293604" y="3" font-family="sans-serif">ORIGIN</text></g><g class="relationship" transform="translate(-224.67267565544904 199.7029129525402) rotate(261.4100998397514)"><path class="outline" fill="#A5ABB6" stroke="none" d="M 25 0.5 L 104.43181613660457 0.5 L 104.43181613660457 -0.5 L 25 -0.5 Z M 163.61931613660457 0.5 L 243.05113227320913 0.5 L 243.05113227320913 3.5 L 250.05113227320913 0 L 243.05113227320913 -3.5 L 243.05113227320913 -0.5 L 163.61931613660457 -0.5 Z"/><text text-anchor="middle" pointer-events="none" font-size="8px" fill="#000000" x="134.02556613660457" y="3" transform="rotate(180 134.02556613660457 0)" font-family="sans-serif">DESTINATION</text></g><g class="relationship" transform="translate(-122.47129962922317 -235.63151390753103) rotate(491.2525509035064)"><path class="outline" fill="#A5ABB6" stroke="none" d="M 25 0.5 L 87.92748183410114 0.5 L 87.92748183410114 -0.5 L 25 -0.5 Z M 122.37279433410114 0.5 L 185.3002761682023 0.5 L 185.3002761682023 3.5 L 192.3002761682023 0 L 185.3002761682023 -3.5 L 185.3002761682023 -0.5 L 122.37279433410114 -0.5 Z"/><text text-anchor="middle" pointer-events="none" font-size="8px" fill="#000000" x="105.15013808410114" y="3" transform="rotate(180 105.15013808410114 0)" font-family="sans-serif">ORIGIN</text></g><g class="relationship" transform="translate(-122.47129962922317 -235.63151390753103) rotate(357.29153356416055)"><path class="outline" fill="#A5ABB6" stroke="none" d="M 25 0.5 L 69.36035772797484 0.5 L 69.36035772797484 -0.5 L 25 -0.5 Z M 128.54785772797484 0.5 L 172.9082154559497 0.5 L 172.9082154559497 3.5 L 179.9082154559497 0 L 172.9082154559497 -3.5 L 172.9082154559497 -0.5 L 128.54785772797484 -0.5 Z"/><text text-anchor="middle" pointer-events="none" font-size="8px" fill="#000000" x="98.95410772797484" y="3" font-family="sans-serif">DESTINATION</text></g><g class="relationship" transform="translate(321.76634450248207 -108.70527703183171) rotate(209.6941023912634)"><path class="outline" fill="#A5ABB6" stroke="none" d="M 25 0.5 L 104.79226046172059 0.5 L 104.79226046172059 -0.5 L 25 -0.5 Z M 163.9797604617206 0.5 L 243.77202092344118 0.5 L 243.77202092344118 3.5 L 250.77202092344118 0 L 243.77202092344118 -3.5 L 243.77202092344118 -0.5 L 163.9797604617206 -0.5 Z"/><text text-anchor="middle" pointer-events="none" font-size="8px" fill="#000000" x="134.3860104617206" y="3" transform="rotate(180 134.3860104617206 0)" font-family="sans-serif">DESTINATION</text></g><g class="relationship" transform="translate(321.76634450248207 -108.70527703183171) rotate(410.80254094781617)"><path class="outline" fill="#A5ABB6" stroke="none" d="M 25 0.5 L 100.94700295193708 0.5 L 100.94700295193708 -0.5 L 25 -0.5 Z M 135.39231545193707 0.5 L 211.33931840387416 0.5 L 211.33931840387416 3.5 L 218.33931840387416 0 L 211.33931840387416 -3.5 L 211.33931840387416 -0.5 L 135.39231545193707 -0.5 Z"/><text text-anchor="middle" pointer-events="none" font-size="8px" fill="#000000" x="118.16965920193708" y="3" font-family="sans-serif">ORIGIN</text></g><g class="relationship" transform="translate(576.7069974163253 165.38115881685727) rotate(220.2084454901253)"><path class="outline" fill="#A5ABB6" stroke="none" d="M 25 0.5 L 45.50185587842856 0.5 L 45.50185587842856 -0.5 L 25 -0.5 Z M 79.94716837842856 0.5 L 100.44902425685711 0.5 L 100.44902425685711 3.5 L 107.44902425685711 0 L 100.44902425685711 -3.5 L 100.44902425685711 -0.5 L 79.94716837842856 -0.5 Z"/><text text-anchor="middle" pointer-events="none" font-size="8px" fill="#000000" x="62.72451212842856" y="3" transform="rotate(180 62.72451212842856 0)" font-family="sans-serif">ORIGIN</text></g><g class="relationship" transform="translate(576.7069974163253 165.38115881685727) rotate(374.5482545113533)"><path class="outline" fill="#A5ABB6" stroke="none" d="M 25 0.5 L 31.470989031091307 0.5 L 31.470989031091307 -0.5 L 25 -0.5 Z M 90.6584890310913 0.5 L 97.12947806218261 0.5 L 97.12947806218261 3.5 L 104.12947806218261 0 L 97.12947806218261 -3.5 L 97.12947806218261 -0.5 L 90.6584890310913 -0.5 Z"/><text text-anchor="middle" pointer-events="none" font-size="8px" fill="#000000" x="61.06473903109131" y="3" font-family="sans-serif">DESTINATION</text></g><g class="relationship" transform="translate(575.8837737484297 225.24400587929708) rotate(235.3878382236348)"><path class="outline" fill="#A5ABB6" stroke="none" d="M 25 0.5 L 67.59156303862281 0.5 L 67.59156303862281 -0.5 L 25 -0.5 Z M 102.03687553862281 0.5 L 144.62843857724562 0.5 L 144.62843857724562 3.5 L 151.62843857724562 0 L 144.62843857724562 -3.5 L 144.62843857724562 -0.5 L 102.03687553862281 -0.5 Z"/><text text-anchor="middle" pointer-events="none" font-size="8px" fill="#000000" x="84.81421928862281" y="3" transform="rotate(180 84.81421928862281 0)" font-family="sans-serif">ORIGIN</text></g><g class="relationship" transform="translate(575.8837737484297 225.24400587929708) rotate(347.7023466855593)"><path class="outline" fill="#A5ABB6" stroke="none" d="M 25 0.5 L 31.289749176178987 0.5 L 31.289749176178987 -0.5 L 25 -0.5 Z M 90.47724917617899 0.5 L 96.76699835235797 0.5 L 96.76699835235797 3.5 L 103.76699835235797 0 L 96.76699835235797 -3.5 L 96.76699835235797 -0.5 L 90.47724917617899 -0.5 Z"/><text text-anchor="middle" pointer-events="none" font-size="8px" fill="#000000" x="60.88349917617899" y="3" font-family="sans-serif">DESTINATION</text></g><g class="relationship" transform="translate(629.6829595243435 137.36684980445554) rotate(200.45594718687028)"><path class="outline" fill="#A5ABB6" stroke="none" d="M 25 0.5 L 61.52765061266848 0.5 L 61.52765061266848 -0.5 L 25 -0.5 Z M 95.97296311266848 0.5 L 132.50061372533696 0.5 L 132.50061372533696 3.5 L 139.50061372533696 0 L 132.50061372533696 -3.5 L 132.50061372533696 -0.5 L 95.97296311266848 -0.5 Z"/><text text-anchor="middle" pointer-events="none" font-size="8px" fill="#000000" x="78.75030686266848" y="3" transform="rotate(180 78.75030686266848 0)" font-family="sans-serif">ORIGIN</text></g><g class="relationship" transform="translate(629.6829595243435 137.36684980445554) rotate(400.01158012707094)"><path class="outline" fill="#A5ABB6" stroke="none" d="M 25 0.5 L 25.843259201564088 0.5 L 25.843259201564088 -0.5 L 25 -0.5 Z M 61.17919670156409 0.5 L 62.022455903128176 0.5 L 62.022455903128176 3.5 L 69.02245590312818 0 L 62.022455903128176 -3.5 L 62.022455903128176 -0.5 L 61.17919670156409 -0.5 Z"/><text text-anchor="middle" pointer-events="none" font-size="8px" fill="#000000" x="43.51122795156409" y="3" font-family="sans-serif">DEST…</text></g><g class="relationship" transform="translate(595.5882187558982 88.21169661827767) rotate(183.9725379028501)"><path class="outline" fill="#A5ABB6" stroke="none" d="M 25 0.5 L 39.438216837367435 0.5 L 39.438216837367435 -0.5 L 25 -0.5 Z M 73.88352933736743 0.5 L 88.32174617473487 0.5 L 88.32174617473487 3.5 L 95.32174617473487 0 L 88.32174617473487 -3.5 L 88.32174617473487 -0.5 L 73.88352933736743 -0.5 Z"/><text text-anchor="middle" pointer-events="none" font-size="8px" fill="#000000" x="56.660873087367435" y="3" transform="rotate(180 56.660873087367435 0)" font-family="sans-serif">ORIGIN</text></g><g class="relationship" transform="translate(595.5882187558982 88.21169661827767) rotate(405.9290946311147)"><path class="outline" fill="#A5ABB6" stroke="none" d="M 25 0.5 L 43.182723727665746 0.5 L 43.182723727665746 -0.5 L 25 -0.5 Z M 102.37022372766575 0.5 L 120.55294745533149 0.5 L 120.55294745533149 3.5 L 127.55294745533149 0 L 120.55294745533149 -3.5 L 120.55294745533149 -0.5 L 102.37022372766575 -0.5 Z"/><text text-anchor="middle" pointer-events="none" font-size="8px" fill="#000000" x="72.77647372766575" y="3" font-family="sans-serif">DESTINATION</text></g><g class="relationship" transform="translate(653.1807958189834 72.08121228940009) rotate(537.4872799531283)"><path class="outline" fill="#A5ABB6" stroke="none" d="M 25 0.5 L 68.17543540897138 0.5 L 68.17543540897138 -0.5 L 25 -0.5 Z M 102.62074790897138 0.5 L 145.79618331794276 0.5 L 145.79618331794276 3.5 L 152.79618331794276 0 L 145.79618331794276 -3.5 L 145.79618331794276 -0.5 L 102.62074790897138 -0.5 Z"/><text text-anchor="middle" pointer-events="none" font-size="8px" fill="#000000" x="85.39809165897138" y="3" transform="rotate(180 85.39809165897138 0)" font-family="sans-serif">ORIGIN</text></g><g class="relationship" transform="translate(653.1807958189834 72.08121228940009) rotate(428.90095712871505)"><path class="outline" fill="#A5ABB6" stroke="none" d="M 25 0.5 L 34.29216363445977 0.5 L 34.29216363445977 -0.5 L 25 -0.5 Z M 93.47966363445977 0.5 L 102.77182726891954 0.5 L 102.77182726891954 3.5 L 109.77182726891954 0 L 102.77182726891954 -3.5 L 102.77182726891954 -0.5 L 93.47966363445977 -0.5 Z"/><text text-anchor="middle" pointer-events="none" font-size="8px" fill="#000000" x="63.88591363445977" y="3" font-family="sans-serif">DESTINATION</text></g><g class="relationship" transform="translate(80.7297113838352 421.8772823556925) rotate(185.22205314915607)"><path class="outline" fill="#A5ABB6" stroke="none" d="M 25 0.5 L 58.3774255569447 0.5 L 58.3774255569447 -0.5 L 25 -0.5 Z M 92.8227380569447 0.5 L 126.2001636138894 0.5 L 126.2001636138894 3.5 L 133.2001636138894 0 L 126.2001636138894 -3.5 L 126.2001636138894 -0.5 L 92.8227380569447 -0.5 Z"/><text text-anchor="middle" pointer-events="none" font-size="8px" fill="#000000" x="75.6000818069447" y="3" transform="rotate(180 75.6000818069447 0)" font-family="sans-serif">ORIGIN</text></g><g class="relationship" transform="translate(80.7297113838352 421.8772823556925) rotate(338.7108926345336)"><path class="outline" fill="#A5ABB6" stroke="none" d="M 25 0.5 L 30.474809174846946 0.5 L 30.474809174846946 -0.5 L 25 -0.5 Z M 89.66230917484694 0.5 L 95.13711834969389 0.5 L 95.13711834969389 3.5 L 102.13711834969389 0 L 95.13711834969389 -3.5 L 95.13711834969389 -0.5 L 89.66230917484694 -0.5 Z"/><text text-anchor="middle" pointer-events="none" font-size="8px" fill="#000000" x="60.068559174846946" y="3" font-family="sans-serif">DESTINATION</text></g><g class="relationship" transform="translate(163.32946212155042 50.69161727639654) rotate(443.70375855582535)"><path class="outline" fill="#A5ABB6" stroke="none" d="M 25 0.5 L 142.77627977510116 0.5 L 142.77627977510116 -0.5 L 25 -0.5 Z M 177.22159227510116 0.5 L 294.9978720502023 0.5 L 294.9978720502023 3.5 L 301.9978720502023 0 L 294.9978720502023 -3.5 L 294.9978720502023 -0.5 L 177.22159227510116 -0.5 Z"/><text text-anchor="middle" pointer-events="none" font-size="8px" fill="#000000" x="159.99893602510116" y="3" font-family="sans-serif">ORIGIN</text></g><g class="relationship" transform="translate(163.32946212155042 50.69161727639654) rotate(254.67417810531026)"><path class="outline" fill="#A5ABB6" stroke="none" d="M 25 0.5 L 120.36647889701155 0.5 L 120.36647889701155 -0.5 L 25 -0.5 Z M 179.55397889701155 0.5 L 274.9204577940231 0.5 L 274.9204577940231 3.5 L 281.9204577940231 0 L 274.9204577940231 -3.5 L 274.9204577940231 -0.5 L 179.55397889701155 -0.5 Z"/><text text-anchor="middle" pointer-events="none" font-size="8px" fill="#000000" x="149.96022889701155" y="3" transform="rotate(180 149.96022889701155 0)" font-family="sans-serif">DESTINATION</text></g><g class="relationship" transform="translate(49.10954745219264 472.71223420498984) rotate(207.38608283521398)"><path class="outline" fill="#A5ABB6" stroke="none" d="M 25 0.5 L 50.18596595795252 0.5 L 50.18596595795252 -0.5 L 25 -0.5 Z M 84.63127845795252 0.5 L 109.81724441590504 0.5 L 109.81724441590504 3.5 L 116.81724441590504 0 L 109.81724441590504 -3.5 L 109.81724441590504 -0.5 L 84.63127845795252 -0.5 Z"/><text text-anchor="middle" pointer-events="none" font-size="8px" fill="#000000" x="67.40862220795252" y="3" transform="rotate(180 67.40862220795252 0)" font-family="sans-serif">ORIGIN</text></g><g class="relationship" transform="translate(49.10954745219264 472.71223420498984) rotate(327.1260908791463)"><path class="outline" fill="#A5ABB6" stroke="none" d="M 25 0.5 L 56.25459768147144 0.5 L 56.25459768147144 -0.5 L 25 -0.5 Z M 115.44209768147144 0.5 L 146.69669536294288 0.5 L 146.69669536294288 3.5 L 153.69669536294288 0 L 146.69669536294288 -3.5 L 146.69669536294288 -0.5 L 115.44209768147144 -0.5 Z"/><text text-anchor="middle" pointer-events="none" font-size="8px" fill="#000000" x="85.84834768147144" y="3" font-family="sans-serif">DESTINATION</text></g><g class="relationship" transform="translate(110.5476415307723 473.78946456842743) rotate(199.4898728273521)"><path class="outline" fill="#A5ABB6" stroke="none" d="M 25 0.5 L 78.6522136082865 0.5 L 78.6522136082865 -0.5 L 25 -0.5 Z M 113.0975261082865 0.5 L 166.749739716573 0.5 L 166.749739716573 3.5 L 173.749739716573 0 L 166.749739716573 -3.5 L 166.749739716573 -0.5 L 113.0975261082865 -0.5 Z"/><text text-anchor="middle" pointer-events="none" font-size="8px" fill="#000000" x="95.8748698582865" y="3" transform="rotate(180 95.8748698582865 0)" font-family="sans-serif">ORIGIN</text></g><g class="relationship" transform="translate(110.5476415307723 473.78946456842743) rotate(312.109066393332)"><path class="outline" fill="#A5ABB6" stroke="none" d="M 25 0.5 L 33.00436055355196 0.5 L 33.00436055355196 -0.5 L 25 -0.5 Z M 92.19186055355196 0.5 L 100.19622110710392 0.5 L 100.19622110710392 3.5 L 107.19622110710392 0 L 100.19622110710392 -3.5 L 100.19622110710392 -0.5 L 92.19186055355196 -0.5 Z"/><text text-anchor="middle" pointer-events="none" font-size="8px" fill="#000000" x="62.59811055355196" y="3" font-family="sans-serif">DESTINATION</text></g><g class="relationship" transform="translate(78.951901621302 524.5528711736788) rotate(216.9287094668582)"><path class="outline" fill="#A5ABB6" stroke="none" d="M 25 0.5 L 76.70598415716684 0.5 L 76.70598415716684 -0.5 L 25 -0.5 Z M 111.15129665716684 0.5 L 162.85728081433368 0.5 L 162.85728081433368 3.5 L 169.85728081433368 0 L 162.85728081433368 -3.5 L 162.85728081433368 -0.5 L 111.15129665716684 -0.5 Z"/><text text-anchor="middle" pointer-events="none" font-size="8px" fill="#000000" x="93.92864040716684" y="3" transform="rotate(180 93.92864040716684 0)" font-family="sans-serif">ORIGIN</text></g><g class="relationship" transform="translate(78.951901621302 524.5528711736788) rotate(308.9335091197896)"><path class="outline" fill="#A5ABB6" stroke="none" d="M 25 0.5 L 62.574345109803986 0.5 L 62.574345109803986 -0.5 L 25 -0.5 Z M 121.76184510980399 0.5 L 159.33619021960797 0.5 L 159.33619021960797 3.5 L 166.33619021960797 0 L 159.33619021960797 -3.5 L 159.33619021960797 -0.5 L 121.76184510980399 -0.5 Z"/><text text-anchor="middle" pointer-events="none" font-size="8px" fill="#000000" x="92.16809510980399" y="3" font-family="sans-serif">DESTINATION</text></g><g class="relationship" transform="translate(112.56384883664731 121.38202185429587) rotate(483.5020217536886)"><path class="outline" fill="#A5ABB6" stroke="none" d="M 25 0.5 L 138.4544443574584 0.5 L 138.4544443574584 -0.5 L 25 -0.5 Z M 197.6419443574584 0.5 L 311.0963887149168 0.5 L 311.0963887149168 3.5 L 318.0963887149168 0 L 311.0963887149168 -3.5 L 311.0963887149168 -0.5 L 197.6419443574584 -0.5 Z"/><text text-anchor="middle" pointer-events="none" font-size="8px" fill="#000000" x="168.0481943574584" y="3" transform="rotate(180 168.0481943574584 0)" font-family="sans-serif">DESTINATION</text></g><g class="relationship" transform="translate(112.56384883664731 121.38202185429587) rotate(297.06117168464965)"><path class="outline" fill="#A5ABB6" stroke="none" d="M 25 0.5 L 158.30215726503667 0.5 L 158.30215726503667 -0.5 L 25 -0.5 Z M 192.74746976503667 0.5 L 326.04962703007334 0.5 L 326.04962703007334 3.5 L 333.04962703007334 0 L 326.04962703007334 -3.5 L 326.04962703007334 -0.5 L 192.74746976503667 -0.5 Z"/><text text-anchor="middle" pointer-events="none" font-size="8px" fill="#000000" x="175.52481351503667" y="3" font-family="sans-serif">ORIGIN</text></g><g class="relationship" transform="translate(215.0659444385896 -344.8172094959913) rotate(427.71412763198464)"><path class="outline" fill="#A5ABB6" stroke="none" d="M 25 0.5 L 58.89902782242417 0.5 L 58.89902782242417 -0.5 L 25 -0.5 Z M 93.34434032242417 0.5 L 127.24336814484835 0.5 L 127.24336814484835 3.5 L 134.24336814484835 0 L 127.24336814484835 -3.5 L 127.24336814484835 -0.5 L 93.34434032242417 -0.5 Z"/><text text-anchor="middle" pointer-events="none" font-size="8px" fill="#000000" x="76.12168407242417" y="3" font-family="sans-serif">ORIGIN</text></g><g class="relationship" transform="translate(215.0659444385896 -344.8172094959913) rotate(503.1688995695253)"><path class="outline" fill="#A5ABB6" stroke="none" d="M 25 0.5 L 49.90032694479906 0.5 L 49.90032694479906 -0.5 L 25 -0.5 Z M 109.08782694479906 0.5 L 133.98815388959812 0.5 L 133.98815388959812 3.5 L 140.98815388959812 0 L 133.98815388959812 -3.5 L 133.98815388959812 -0.5 L 109.08782694479906 -0.5 Z"/><text text-anchor="middle" pointer-events="none" font-size="8px" fill="#000000" x="79.49407694479906" y="3" transform="rotate(180 79.49407694479906 0)" font-family="sans-serif">DESTINATION</text></g><g class="relationship" transform="translate(187.4469216691992 -244.80455077351704) rotate(388.27375710221526)"><path class="outline" fill="#A5ABB6" stroke="none" d="M 25 0.5 L 29.24278507298169 0.5 L 29.24278507298169 -0.5 L 25 -0.5 Z M 63.68809757298169 0.5 L 67.93088264596338 0.5 L 67.93088264596338 3.5 L 74.93088264596338 0 L 67.93088264596338 -3.5 L 67.93088264596338 -0.5 L 63.68809757298169 -0.5 Z"/><text text-anchor="middle" pointer-events="none" font-size="8px" fill="#000000" x="46.46544132298169" y="3" font-family="sans-serif">ORIGIN</text></g><g class="relationship" transform="translate(187.4469216691992 -244.80455077351704) rotate(180.27750026067213)"><path class="outline" fill="#A5ABB6" stroke="none" d="M 25 0.5 L 27.452102486217605 0.5 L 27.452102486217605 -0.5 L 25 -0.5 Z M 70.7880399862176 0.5 L 73.24014247243521 0.5 L 73.24014247243521 3.5 L 80.24014247243521 0 L 73.24014247243521 -3.5 L 73.24014247243521 -0.5 L 70.7880399862176 -0.5 Z"/><text text-anchor="middle" pointer-events="none" font-size="8px" fill="#000000" x="49.120071236217605" y="3" transform="rotate(180 49.120071236217605 0)" font-family="sans-serif">DESTIN…</text></g><g class="relationship" transform="translate(230.07301592407063 -286.73788154818317) rotate(423.0521978795914)"><path class="outline" fill="#A5ABB6" stroke="none" d="M 25 0.5 L 27.791995969791053 0.5 L 27.791995969791053 -0.5 L 25 -0.5 Z M 65.35058971979106 0.5 L 68.1425856895821 0.5 L 68.1425856895821 3.5 L 75.1425856895821 0 L 68.1425856895821 -3.5 L 68.1425856895821 -0.5 L 65.35058971979106 -0.5 Z"/><text text-anchor="middle" pointer-events="none" font-size="8px" fill="#000000" x="46.57129284479105" y="3" font-family="sans-serif">DESTI…</text></g><g class="relationship" transform="translate(230.07301592407063 -286.73788154818317) rotate(524.3500561096237)"><path class="outline" fill="#A5ABB6" stroke="none" d="M 25 0.5 L 56.05620729679062 0.5 L 56.05620729679062 -0.5 L 25 -0.5 Z M 90.50151979679062 0.5 L 121.55772709358124 0.5 L 121.55772709358124 3.5 L 128.55772709358124 0 L 121.55772709358124 -3.5 L 121.55772709358124 -0.5 L 90.50151979679062 -0.5 Z"/><text text-anchor="middle" pointer-events="none" font-size="8px" fill="#000000" x="73.27886354679062" y="3" transform="rotate(180 73.27886354679062 0)" font-family="sans-serif">ORIGIN</text></g><g class="relationship" transform="translate(172.3573730097873 -302.82702103168566) rotate(405.62118110778596)"><path class="outline" fill="#A5ABB6" stroke="none" d="M 25 0.5 L 40.61102610193454 0.5 L 40.61102610193454 -0.5 L 25 -0.5 Z M 99.79852610193454 0.5 L 115.40955220386908 0.5 L 115.40955220386908 3.5 L 122.40955220386908 0 L 115.40955220386908 -3.5 L 115.40955220386908 -0.5 L 99.79852610193454 -0.5 Z"/><text text-anchor="middle" pointer-events="none" font-size="8px" fill="#000000" x="70.20477610193454" y="3" font-family="sans-serif">DESTINATION</text></g><g class="relationship" transform="translate(172.3573730097873 -302.82702103168566) rotate(507.4632663348234)"><path class="outline" fill="#A5ABB6" stroke="none" d="M 25 0.5 L 32.743746674198015 0.5 L 32.743746674198015 -0.5 L 25 -0.5 Z M 67.18905917419801 0.5 L 74.93280584839603 0.5 L 74.93280584839603 3.5 L 81.93280584839603 0 L 74.93280584839603 -3.5 L 74.93280584839603 -0.5 L 67.18905917419801 -0.5 Z"/><text text-anchor="middle" pointer-events="none" font-size="8px" fill="#000000" x="49.966402924198015" y="3" transform="rotate(180 49.966402924198015 0)" font-family="sans-serif">ORIGIN</text></g><g class="relationship" transform="translate(272.7938858178269 -328.5141070318664) rotate(448.8364499077332)"><path class="outline" fill="#A5ABB6" stroke="none" d="M 25 0.5 L 32.44241542964177 0.5 L 32.44241542964177 -0.5 L 25 -0.5 Z M 91.62991542964177 0.5 L 99.07233085928354 0.5 L 99.07233085928354 3.5 L 106.07233085928354 0 L 99.07233085928354 -3.5 L 99.07233085928354 -0.5 L 91.62991542964177 -0.5 Z"/><text text-anchor="middle" pointer-events="none" font-size="8px" fill="#000000" x="62.03616542964177" y="3" font-family="sans-serif">DESTINATION</text></g><g class="relationship" transform="translate(272.7938858178269 -328.5141070318664) rotate(516.4164288701976)"><path class="outline" fill="#A5ABB6" stroke="none" d="M 25 0.5 L 83.2547327022017 0.5 L 83.2547327022017 -0.5 L 25 -0.5 Z M 117.7000452022017 0.5 L 175.9547779044034 0.5 L 175.9547779044034 3.5 L 182.9547779044034 0 L 175.9547779044034 -3.5 L 175.9547779044034 -0.5 L 117.7000452022017 -0.5 Z"/><text text-anchor="middle" pointer-events="none" font-size="8px" fill="#000000" x="100.4773889522017" y="3" transform="rotate(180 100.4773889522017 0)" font-family="sans-serif">ORIGIN</text></g><g class="relationship" transform="translate(157.27529060045165 -360.66781373801007) rotate(414.0899070042914)"><path class="outline" fill="#A5ABB6" stroke="none" d="M 25 0.5 L 67.65405015067452 0.5 L 67.65405015067452 -0.5 L 25 -0.5 Z M 126.84155015067452 0.5 L 169.49560030134904 0.5 L 169.49560030134904 3.5 L 176.49560030134904 0 L 169.49560030134904 -3.5 L 169.49560030134904 -0.5 L 126.84155015067452 -0.5 Z"/><text text-anchor="middle" pointer-events="none" font-size="8px" fill="#000000" x="97.24780015067452" y="3" font-family="sans-serif">DESTINATION</text></g><g class="relationship" transform="translate(157.27529060045165 -360.66781373801007) rotate(483.05439751564666)"><path class="outline" fill="#A5ABB6" stroke="none" d="M 25 0.5 L 48.09147563642284 0.5 L 48.09147563642284 -0.5 L 25 -0.5 Z M 82.53678813642284 0.5 L 105.62826377284568 0.5 L 105.62826377284568 3.5 L 112.62826377284568 0 L 105.62826377284568 -3.5 L 105.62826377284568 -0.5 L 82.53678813642284 -0.5 Z"/><text text-anchor="middle" pointer-events="none" font-size="8px" fill="#000000" x="65.31413188642284" y="3" transform="rotate(180 65.31413188642284 0)" font-family="sans-serif">ORIGIN</text></g><g class="relationship" transform="translate(6.384325110803135 265.95970043623436) rotate(480.4510370349876)"><path class="outline" fill="#A5ABB6" stroke="none" d="M 25 0.5 L 48.98779384545003 0.5 L 48.98779384545003 -0.5 L 25 -0.5 Z M 108.17529384545003 0.5 L 132.16308769090006 0.5 L 132.16308769090006 3.5 L 139.16308769090006 0 L 132.16308769090006 -3.5 L 132.16308769090006 -0.5 L 108.17529384545003 -0.5 Z"/><text text-anchor="middle" pointer-events="none" font-size="8px" fill="#000000" x="78.58154384545003" y="3" transform="rotate(180 78.58154384545003 0)" font-family="sans-serif">DESTINATION</text></g><g class="relationship" transform="translate(6.384325110803135 265.95970043623436) rotate(279.5178780648458)"><path class="outline" fill="#A5ABB6" stroke="none" d="M 25 0.5 L 85.57615729031478 0.5 L 85.57615729031478 -0.5 L 25 -0.5 Z M 120.02146979031478 0.5 L 180.59762708062956 0.5 L 180.59762708062956 3.5 L 187.59762708062956 0 L 180.59762708062956 -3.5 L 180.59762708062956 -0.5 L 120.02146979031478 -0.5 Z"/><text text-anchor="middle" pointer-events="none" font-size="8px" fill="#000000" x="102.79881354031478" y="3" font-family="sans-serif">ORIGIN</text></g><g class="relationship" transform="translate(253.09288229785085 81.31359992917167) rotate(186.74620874136815)"><path class="outline" fill="#A5ABB6" stroke="none" d="M 25 0.5 L 73.42093405588648 0.5 L 73.42093405588648 -0.5 L 25 -0.5 Z M 132.60843405588648 0.5 L 181.02936811177295 0.5 L 181.02936811177295 3.5 L 188.02936811177295 0 L 181.02936811177295 -3.5 L 181.02936811177295 -0.5 L 132.60843405588648 -0.5 Z"/><text text-anchor="middle" pointer-events="none" font-size="8px" fill="#000000" x="103.01468405588648" y="3" transform="rotate(180 103.01468405588648 0)" font-family="sans-serif">DESTINATION</text></g><g class="relationship" transform="translate(253.09288229785085 81.31359992917167) rotate(359.62974977359045)"><path class="outline" fill="#A5ABB6" stroke="none" d="M 25 0.5 L 90.5110056664032 0.5 L 90.5110056664032 -0.5 L 25 -0.5 Z M 124.9563181664032 0.5 L 190.4673238328064 0.5 L 190.4673238328064 3.5 L 197.4673238328064 0 L 190.4673238328064 -3.5 L 190.4673238328064 -0.5 L 124.9563181664032 -0.5 Z"/><text text-anchor="middle" pointer-events="none" font-size="8px" fill="#000000" x="107.7336619164032" y="3" font-family="sans-serif">ORIGIN</text></g><g class="relationship" transform="translate(298.0162638115092 120.54148664866004) rotate(194.06427944665495)"><path class="outline" fill="#A5ABB6" stroke="none" d="M 25 0.5 L 99.10806220721847 0.5 L 99.10806220721847 -0.5 L 25 -0.5 Z M 158.29556220721847 0.5 L 232.40362441443693 0.5 L 232.40362441443693 3.5 L 239.40362441443693 0 L 232.40362441443693 -3.5 L 232.40362441443693 -0.5 L 158.29556220721847 -0.5 Z"/><text text-anchor="middle" pointer-events="none" font-size="8px" fill="#000000" x="128.70181220721847" y="3" transform="rotate(180 128.70181220721847 0)" font-family="sans-serif">DESTINATION</text></g><g class="relationship" transform="translate(298.0162638115092 120.54148664866004) rotate(347.0989107190213)"><path class="outline" fill="#A5ABB6" stroke="none" d="M 25 0.5 L 70.34583904826454 0.5 L 70.34583904826454 -0.5 L 25 -0.5 Z M 104.79115154826454 0.5 L 150.13699059652907 0.5 L 150.13699059652907 3.5 L 157.13699059652907 0 L 150.13699059652907 -3.5 L 150.13699059652907 -0.5 L 104.79115154826454 -0.5 Z"/><text text-anchor="middle" pointer-events="none" font-size="8px" fill="#000000" x="87.56849529826454" y="3" font-family="sans-serif">ORIGIN</text></g><g class="relationship" transform="translate(300.7868331756835 45.407647170428035) rotate(537.5966226762034)"><path class="outline" fill="#A5ABB6" stroke="none" d="M 25 0.5 L 96.64454955743219 0.5 L 96.64454955743219 -0.5 L 25 -0.5 Z M 155.83204955743219 0.5 L 227.47659911486437 0.5 L 227.47659911486437 3.5 L 234.47659911486437 0 L 227.47659911486437 -3.5 L 227.47659911486437 -0.5 L 155.83204955743219 -0.5 Z"/><text text-anchor="middle" pointer-events="none" font-size="8px" fill="#000000" x="126.23829955743219" y="3" transform="rotate(180 126.23829955743219 0)" font-family="sans-serif">DESTINATION</text></g><g class="relationship" transform="translate(300.7868331756835 45.407647170428035) rotate(371.15684363271043)"><path class="outline" fill="#A5ABB6" stroke="none" d="M 25 0.5 L 68.34498114675654 0.5 L 68.34498114675654 -0.5 L 25 -0.5 Z M 102.79029364675654 0.5 L 146.13527479351308 0.5 L 146.13527479351308 3.5 L 153.13527479351308 0 L 146.13527479351308 -3.5 L 146.13527479351308 -0.5 L 102.79029364675654 -0.5 Z"/><text text-anchor="middle" pointer-events="none" font-size="8px" fill="#000000" x="85.56763739675654" y="3" font-family="sans-serif">ORIGIN</text></g><g class="relationship" transform="translate(-48.79920797615793 242.75529759983024) rotate(459.65199094198505)"><path class="outline" fill="#A5ABB6" stroke="none" d="M 25 0.5 L 50.450505239801984 0.5 L 50.450505239801984 -0.5 L 25 -0.5 Z M 109.63800523980198 0.5 L 135.08851047960397 0.5 L 135.08851047960397 3.5 L 142.08851047960397 0 L 135.08851047960397 -3.5 L 135.08851047960397 -0.5 L 109.63800523980198 -0.5 Z"/><text text-anchor="middle" pointer-events="none" font-size="8px" fill="#000000" x="80.04425523980198" y="3" transform="rotate(180 80.04425523980198 0)" font-family="sans-serif">DESTINATION</text></g><g class="relationship" transform="translate(-48.79920797615793 242.75529759983024) rotate(295.84884744439836)"><path class="outline" fill="#A5ABB6" stroke="none" d="M 25 0.5 L 82.875964663065 0.5 L 82.875964663065 -0.5 L 25 -0.5 Z M 117.321277163065 0.5 L 175.19724182613 0.5 L 175.19724182613 3.5 L 182.19724182613 0 L 175.19724182613 -3.5 L 175.19724182613 -0.5 L 117.321277163065 -0.5 Z"/><text text-anchor="middle" pointer-events="none" font-size="8px" fill="#000000" x="100.098620913065" y="3" font-family="sans-serif">ORIGIN</text></g><g class="relationship" transform="translate(-141.06825602167123 -14.64469142635875) rotate(204.8019024177039)"><path class="outline" fill="#A5ABB6" stroke="none" d="M 25 0.5 L 35.58401570099636 0.5 L 35.58401570099636 -0.5 L 25 -0.5 Z M 94.77151570099636 0.5 L 105.35553140199272 0.5 L 105.35553140199272 3.5 L 112.35553140199272 0 L 105.35553140199272 -3.5 L 105.35553140199272 -0.5 L 94.77151570099636 -0.5 Z"/><text text-anchor="middle" pointer-events="none" font-size="8px" fill="#000000" x="65.17776570099636" y="3" transform="rotate(180 65.17776570099636 0)" font-family="sans-serif">DESTINATION</text></g><g class="relationship" transform="translate(-141.06825602167123 -14.64469142635875) rotate(381.22860079002965)"><path class="outline" fill="#A5ABB6" stroke="none" d="M 25 0.5 L 77.22728424668485 0.5 L 77.22728424668485 -0.5 L 25 -0.5 Z M 111.67259674668485 0.5 L 163.8998809933697 0.5 L 163.8998809933697 3.5 L 170.8998809933697 0 L 163.8998809933697 -3.5 L 163.8998809933697 -0.5 L 111.67259674668485 -0.5 Z"/><text text-anchor="middle" pointer-events="none" font-size="8px" fill="#000000" x="94.44994049668485" y="3" font-family="sans-serif">ORIGIN</text></g><g class="relationship" transform="translate(-124.53753858652678 -72.19936664404004) rotate(180.0257753233564)"><path class="outline" fill="#A5ABB6" stroke="none" d="M 25 0.5 L 37.514788314413906 0.5 L 37.514788314413906 -0.5 L 25 -0.5 Z M 96.7022883144139 0.5 L 109.21707662882781 0.5 L 109.21707662882781 3.5 L 116.21707662882781 0 L 109.21707662882781 -3.5 L 109.21707662882781 -0.5 L 96.7022883144139 -0.5 Z"/><text text-anchor="middle" pointer-events="none" font-size="8px" fill="#000000" x="67.1085383144139" y="3" transform="rotate(180 67.1085383144139 0)" font-family="sans-serif">DESTINATION</text></g><g class="relationship" transform="translate(-124.53753858652678 -72.19936664404004) rotate(397.728048184955)"><path class="outline" fill="#A5ABB6" stroke="none" d="M 25 0.5 L 84.26594114665984 0.5 L 84.26594114665984 -0.5 L 25 -0.5 Z M 118.71125364665984 0.5 L 177.97719479331968 0.5 L 177.97719479331968 3.5 L 184.97719479331968 0 L 177.97719479331968 -3.5 L 177.97719479331968 -0.5 L 118.71125364665984 -0.5 Z"/><text text-anchor="middle" pointer-events="none" font-size="8px" fill="#000000" x="101.48859739665984" y="3" font-family="sans-serif">ORIGIN</text></g><g class="relationship" transform="translate(136.55589657499547 236.95347843215998) rotate(425.7065312211598)"><path class="outline" fill="#A5ABB6" stroke="none" d="M 25 0.5 L 43.02868238655081 0.5 L 43.02868238655081 -0.5 L 25 -0.5 Z M 102.21618238655081 0.5 L 120.24486477310163 0.5 L 120.24486477310163 3.5 L 127.24486477310163 0 L 120.24486477310163 -3.5 L 120.24486477310163 -0.5 L 102.21618238655081 -0.5 Z"/><text text-anchor="middle" pointer-events="none" font-size="8px" fill="#000000" x="72.62243238655081" y="3" font-family="sans-serif">DESTINATION</text></g><g class="relationship" transform="translate(136.55589657499547 236.95347843215998) rotate(242.25867715231067)"><path class="outline" fill="#A5ABB6" stroke="none" d="M 25 0.5 L 81.3411454938655 0.5 L 81.3411454938655 -0.5 L 25 -0.5 Z M 115.7864579938655 0.5 L 172.127603487731 0.5 L 172.127603487731 3.5 L 179.127603487731 0 L 172.127603487731 -3.5 L 172.127603487731 -0.5 L 115.7864579938655 -0.5 Z"/><text text-anchor="middle" pointer-events="none" font-size="8px" fill="#000000" x="98.5638017438655" y="3" transform="rotate(180 98.5638017438655 0)" font-family="sans-serif">ORIGIN</text></g><g class="relationship" transform="translate(189.97963083369507 210.10444192012721) rotate(446.8164816803295)"><path class="outline" fill="#A5ABB6" stroke="none" d="M 25 0.5 L 49.84055878531129 0.5 L 49.84055878531129 -0.5 L 25 -0.5 Z M 109.02805878531129 0.5 L 133.86861757062258 0.5 L 133.86861757062258 3.5 L 140.86861757062258 0 L 133.86861757062258 -3.5 L 133.86861757062258 -0.5 L 109.02805878531129 -0.5 Z"/><text text-anchor="middle" pointer-events="none" font-size="8px" fill="#000000" x="79.43430878531129" y="3" font-family="sans-serif">DESTINATION</text></g><g class="relationship" transform="translate(189.97963083369507 210.10444192012721) rotate(226.0187030362498)"><path class="outline" fill="#A5ABB6" stroke="none" d="M 25 0.5 L 86.15819280483105 0.5 L 86.15819280483105 -0.5 L 25 -0.5 Z M 120.60350530483105 0.5 L 181.7616981096621 0.5 L 181.7616981096621 3.5 L 188.7616981096621 0 L 181.7616981096621 -3.5 L 181.7616981096621 -0.5 L 120.60350530483105 -0.5 Z"/><text text-anchor="middle" pointer-events="none" font-size="8px" fill="#000000" x="103.38084905483105" y="3" transform="rotate(180 103.38084905483105 0)" font-family="sans-serif">ORIGIN</text></g><g class="relationship" transform="translate(174.49099112144557 -82.48914233760495) rotate(311.28660992161224)"><path class="outline" fill="#A5ABB6" stroke="none" d="M 25 0.5 L 55.78576245610381 0.5 L 55.78576245610381 -0.5 L 25 -0.5 Z M 90.23107495610381 0.5 L 121.01683741220762 0.5 L 121.01683741220762 3.5 L 128.01683741220762 0 L 121.01683741220762 -3.5 L 121.01683741220762 -0.5 L 90.23107495610381 -0.5 Z"/><text text-anchor="middle" pointer-events="none" font-size="8px" fill="#000000" x="73.00841870610381" y="3" font-family="sans-serif">ORIGIN</text></g><g class="relationship" transform="translate(174.49099112144557 -82.48914233760495) rotate(493.7718902027153)"><path class="outline" fill="#A5ABB6" stroke="none" d="M 25 0.5 L 62.99950473489898 0.5 L 62.99950473489898 -0.5 L 25 -0.5 Z M 122.18700473489898 0.5 L 160.18650946979795 0.5 L 160.18650946979795 3.5 L 167.18650946979795 0 L 160.18650946979795 -3.5 L 160.18650946979795 -0.5 L 122.18700473489898 -0.5 Z"/><text text-anchor="middle" pointer-events="none" font-size="8px" fill="#000000" x="92.59325473489898" y="3" transform="rotate(180 92.59325473489898 0)" font-family="sans-serif">DESTINATION</text></g><g class="relationship" transform="translate(217.6434710609567 -41.138399514479545) rotate(290.2947280204079)"><path class="outline" fill="#A5ABB6" stroke="none" d="M 25 0.5 L 50.24505341334141 0.5 L 50.24505341334141 -0.5 L 25 -0.5 Z M 109.43255341334141 0.5 L 134.67760682668282 0.5 L 134.67760682668282 3.5 L 141.67760682668282 0 L 134.67760682668282 -3.5 L 134.67760682668282 -0.5 L 109.43255341334141 -0.5 Z"/><text text-anchor="middle" pointer-events="none" font-size="8px" fill="#000000" x="79.83880341334141" y="3" font-family="sans-serif">DESTINATION</text></g><g class="relationship" transform="translate(217.6434710609567 -41.138399514479545) rotate(511.04718673753985)"><path class="outline" fill="#A5ABB6" stroke="none" d="M 25 0.5 L 79.90661863427142 0.5 L 79.90661863427142 -0.5 L 25 -0.5 Z M 114.35193113427142 0.5 L 169.25854976854285 0.5 L 169.25854976854285 3.5 L 176.25854976854285 0 L 169.25854976854285 -3.5 L 169.25854976854285 -0.5 L 114.35193113427142 -0.5 Z"/><text text-anchor="middle" pointer-events="none" font-size="8px" fill="#000000" x="97.12927488427142" y="3" transform="rotate(180 97.12927488427142 0)" font-family="sans-serif">ORIGIN</text></g><g class="relationship" transform="translate(-257.969422294926 320.71685420533004) rotate(385.59137805811145)"><path class="outline" fill="#A5ABB6" stroke="none" d="M 25 0.5 L 79.70759322141303 0.5 L 79.70759322141303 -0.5 L 25 -0.5 Z M 114.15290572141303 0.5 L 168.86049894282607 0.5 L 168.86049894282607 3.5 L 175.86049894282607 0 L 168.86049894282607 -3.5 L 168.86049894282607 -0.5 L 114.15290572141303 -0.5 Z"/><text text-anchor="middle" pointer-events="none" font-size="8px" fill="#000000" x="96.93024947141303" y="3" font-family="sans-serif">ORIGIN</text></g><g class="relationship" transform="translate(-257.969422294926 320.71685420533004) rotate(253.53087815158773)"><path class="outline" fill="#A5ABB6" stroke="none" d="M 25 0.5 L 63.752122398912846 0.5 L 63.752122398912846 -0.5 L 25 -0.5 Z M 122.93962239891285 0.5 L 161.6917447978257 0.5 L 161.6917447978257 3.5 L 168.6917447978257 0 L 161.6917447978257 -3.5 L 161.6917447978257 -0.5 L 122.93962239891285 -0.5 Z"/><text text-anchor="middle" pointer-events="none" font-size="8px" fill="#000000" x="93.34587239891285" y="3" transform="rotate(180 93.34587239891285 0)" font-family="sans-serif">DESTINATION</text></g><g class="relationship" transform="translate(-184.2627494011042 47.105557253289675) rotate(505.66081513248423)"><path class="outline" fill="#A5ABB6" stroke="none" d="M 25 0.5 L 57.16036850618707 0.5 L 57.16036850618707 -0.5 L 25 -0.5 Z M 91.60568100618707 0.5 L 123.76604951237414 0.5 L 123.76604951237414 3.5 L 130.76604951237414 0 L 123.76604951237414 -3.5 L 123.76604951237414 -0.5 L 91.60568100618707 -0.5 Z"/><text text-anchor="middle" pointer-events="none" font-size="8px" fill="#000000" x="74.38302475618707" y="3" transform="rotate(180 74.38302475618707 0)" font-family="sans-serif">ORIGIN</text></g><g class="relationship" transform="translate(-184.2627494011042 47.105557253289675) rotate(362.32888206769724)"><path class="outline" fill="#A5ABB6" stroke="none" d="M 25 0.5 L 79.9001934066595 0.5 L 79.9001934066595 -0.5 L 25 -0.5 Z M 139.0876934066595 0.5 L 193.987886813319 0.5 L 193.987886813319 3.5 L 200.987886813319 0 L 193.987886813319 -3.5 L 193.987886813319 -0.5 L 139.0876934066595 -0.5 Z"/><text text-anchor="middle" pointer-events="none" font-size="8px" fill="#000000" x="109.4939434066595" y="3" font-family="sans-serif">DESTINATION</text></g><g class="relationship" transform="translate(-170.86836571852606 105.55925332519598) rotate(528.2987769872367)"><path class="outline" fill="#A5ABB6" stroke="none" d="M 25 0.5 L 39.41937761899881 0.5 L 39.41937761899881 -0.5 L 25 -0.5 Z M 98.60687761899881 0.5 L 113.02625523799762 0.5 L 113.02625523799762 3.5 L 120.02625523799762 0 L 113.02625523799762 -3.5 L 113.02625523799762 -0.5 L 98.60687761899881 -0.5 Z"/><text text-anchor="middle" pointer-events="none" font-size="8px" fill="#000000" x="69.01312761899881" y="3" transform="rotate(180 69.01312761899881 0)" font-family="sans-serif">DESTINATION</text></g><g class="relationship" transform="translate(-170.86836571852606 105.55925332519598) rotate(346.94044953008256)"><path class="outline" fill="#A5ABB6" stroke="none" d="M 25 0.5 L 88.300572284178 0.5 L 88.300572284178 -0.5 L 25 -0.5 Z M 122.745884784178 0.5 L 186.046457068356 0.5 L 186.046457068356 3.5 L 193.046457068356 0 L 186.046457068356 -3.5 L 186.046457068356 -0.5 L 122.745884784178 -0.5 Z"/><text text-anchor="middle" pointer-events="none" font-size="8px" fill="#000000" x="105.523228534178" y="3" font-family="sans-serif">ORIGIN</text></g><g class="relationship" transform="translate(-127.08359809284877 64.87652280536874) rotate(519.3301348700311)"><path class="outline" fill="#A5ABB6" stroke="none" d="M 25 0.5 L 66.19613720693613 0.5 L 66.19613720693613 -0.5 L 25 -0.5 Z M 125.38363720693613 0.5 L 166.57977441387226 0.5 L 166.57977441387226 3.5 L 173.57977441387226 0 L 166.57977441387226 -3.5 L 166.57977441387226 -0.5 L 125.38363720693613 -0.5 Z"/><text text-anchor="middle" pointer-events="none" font-size="8px" fill="#000000" x="95.78988720693613" y="3" transform="rotate(180 95.78988720693613 0)" font-family="sans-serif">DESTINATION</text></g><g class="relationship" transform="translate(-127.08359809284877 64.87652280536874) rotate(357.0844723566413)"><path class="outline" fill="#A5ABB6" stroke="none" d="M 25 0.5 L 63.697655685509545 0.5 L 63.697655685509545 -0.5 L 25 -0.5 Z M 98.14296818550955 0.5 L 136.8406238710191 0.5 L 136.8406238710191 3.5 L 143.8406238710191 0 L 136.8406238710191 -3.5 L 136.8406238710191 -0.5 L 98.14296818550955 -0.5 Z"/><text text-anchor="middle" pointer-events="none" font-size="8px" fill="#000000" x="80.92031193550955" y="3" font-family="sans-serif">ORIGIN</text></g><g class="relationship" transform="translate(66.92076436684354 -135.36078360755076) rotate(457.5444146617305)"><path class="outline" fill="#A5ABB6" stroke="none" d="M 25 0.5 L 63.56774389186978 0.5 L 63.56774389186978 -0.5 L 25 -0.5 Z M 122.75524389186978 0.5 L 161.32298778373956 0.5 L 161.32298778373956 3.5 L 168.32298778373956 0 L 161.32298778373956 -3.5 L 161.32298778373956 -0.5 L 122.75524389186978 -0.5 Z"/><text text-anchor="middle" pointer-events="none" font-size="8px" fill="#000000" x="93.16149389186978" y="3" transform="rotate(180 93.16149389186978 0)" font-family="sans-serif">DESTINATION</text></g><g class="relationship" transform="translate(66.92076436684354 -135.36078360755076) rotate(277.9153081260002)"><path class="outline" fill="#A5ABB6" stroke="none" d="M 25 0.5 L 34.782898519058556 0.5 L 34.782898519058556 -0.5 L 25 -0.5 Z M 69.22821101905856 0.5 L 79.01110953811711 0.5 L 79.01110953811711 3.5 L 86.01110953811711 0 L 79.01110953811711 -3.5 L 79.01110953811711 -0.5 L 69.22821101905856 -0.5 Z"/><text text-anchor="middle" pointer-events="none" font-size="8px" fill="#000000" x="52.005554769058556" y="3" font-family="sans-serif">ORIGIN</text></g><g class="relationship" transform="translate(-36.114600145959955 -123.39280126245114) rotate(426.6274116138212)"><path class="outline" fill="#A5ABB6" stroke="none" d="M 25 0.5 L 64.77789540920145 0.5 L 64.77789540920145 -0.5 L 25 -0.5 Z M 123.96539540920145 0.5 L 163.7432908184029 0.5 L 163.7432908184029 3.5 L 170.7432908184029 0 L 163.7432908184029 -3.5 L 163.7432908184029 -0.5 L 123.96539540920145 -0.5 Z"/><text text-anchor="middle" pointer-events="none" font-size="8px" fill="#000000" x="94.37164540920145" y="3" font-family="sans-serif">DESTINATION</text></g><g class="relationship" transform="translate(-36.114600145959955 -123.39280126245114) rotate(314.1417766232411)"><path class="outline" fill="#A5ABB6" stroke="none" d="M 25 0.5 L 64.22597886923499 0.5 L 64.22597886923499 -0.5 L 25 -0.5 Z M 98.67129136923499 0.5 L 137.89727023846999 0.5 L 137.89727023846999 3.5 L 144.89727023846999 0 L 137.89727023846999 -3.5 L 137.89727023846999 -0.5 L 98.67129136923499 -0.5 Z"/><text text-anchor="middle" pointer-events="none" font-size="8px" fill="#000000" x="81.44863511923499" y="3" font-family="sans-serif">ORIGIN</text></g><g class="relationship" transform="translate(11.768619821771539 -158.96646711227055) rotate(442.1259231142313)"><path class="outline" fill="#A5ABB6" stroke="none" d="M 25 0.5 L 75.55824414617267 0.5 L 75.55824414617267 -0.5 L 25 -0.5 Z M 134.74574414617268 0.5 L 185.30398829234534 0.5 L 185.30398829234534 3.5 L 192.30398829234534 0 L 185.30398829234534 -3.5 L 185.30398829234534 -0.5 L 134.74574414617268 -0.5 Z"/><text text-anchor="middle" pointer-events="none" font-size="8px" fill="#000000" x="105.15199414617267" y="3" font-family="sans-serif">DESTINATION</text></g><g class="relationship" transform="translate(11.768619821771539 -158.96646711227055) rotate(309.2063170894683)"><path class="outline" fill="#A5ABB6" stroke="none" d="M 25 0.5 L 34.9945967255158 0.5 L 34.9945967255158 -0.5 L 25 -0.5 Z M 69.4399092255158 0.5 L 79.4345059510316 0.5 L 79.4345059510316 3.5 L 86.4345059510316 0 L 79.4345059510316 -3.5 L 79.4345059510316 -0.5 L 69.4399092255158 -0.5 Z"/><text text-anchor="middle" pointer-events="none" font-size="8px" fill="#000000" x="52.2172529755158" y="3" font-family="sans-serif">ORIGIN</text></g><g class="relationship" transform="translate(73.89996243745402 -75.99027344426885) rotate(463.747150766608)"><path class="outline" fill="#A5ABB6" stroke="none" d="M 25 0.5 L 34.99624064862218 0.5 L 34.99624064862218 -0.5 L 25 -0.5 Z M 94.18374064862218 0.5 L 104.17998129724435 0.5 L 104.17998129724435 3.5 L 111.17998129724435 0 L 104.17998129724435 -3.5 L 104.17998129724435 -0.5 L 94.18374064862218 -0.5 Z"/><text text-anchor="middle" pointer-events="none" font-size="8px" fill="#000000" x="64.58999064862218" y="3" transform="rotate(180 64.58999064862218 0)" font-family="sans-serif">DESTINATION</text></g><g class="relationship" transform="translate(73.89996243745402 -75.99027344426885) rotate(272.8090221116458)"><path class="outline" fill="#A5ABB6" stroke="none" d="M 25 0.5 L 64.04118530425325 0.5 L 64.04118530425325 -0.5 L 25 -0.5 Z M 98.48649780425325 0.5 L 137.5276831085065 0.5 L 137.5276831085065 3.5 L 144.5276831085065 0 L 137.5276831085065 -3.5 L 137.5276831085065 -0.5 L 98.48649780425325 -0.5 Z"/><text text-anchor="middle" pointer-events="none" font-size="8px" fill="#000000" x="81.26384155425325" y="3" font-family="sans-serif">ORIGIN</text></g><g class="relationship" transform="translate(121.84188915443188 -111.66985819931007) rotate(475.5531385080213)"><path class="outline" fill="#A5ABB6" stroke="none" d="M 25 0.5 L 59.99049728589203 0.5 L 59.99049728589203 -0.5 L 25 -0.5 Z M 119.17799728589203 0.5 L 154.16849457178407 0.5 L 154.16849457178407 3.5 L 161.16849457178407 0 L 154.16849457178407 -3.5 L 154.16849457178407 -0.5 L 119.17799728589203 -0.5 Z"/><text text-anchor="middle" pointer-events="none" font-size="8px" fill="#000000" x="89.58424728589203" y="3" transform="rotate(180 89.58424728589203 0)" font-family="sans-serif">DESTINATION</text></g><g class="relationship" transform="translate(121.84188915443188 -111.66985819931007) rotate(253.48163463288745)"><path class="outline" fill="#A5ABB6" stroke="none" d="M 25 0.5 L 48.9761055781983 0.5 L 48.9761055781983 -0.5 L 25 -0.5 Z M 83.4214180781983 0.5 L 107.3975236563966 0.5 L 107.3975236563966 3.5 L 114.3975236563966 0 L 107.3975236563966 -3.5 L 107.3975236563966 -0.5 L 83.4214180781983 -0.5 Z"/><text text-anchor="middle" pointer-events="none" font-size="8px" fill="#000000" x="66.1987618281983" y="3" transform="rotate(180 66.1987618281983 0)" font-family="sans-serif">ORIGIN</text></g><g class="relationship" transform="translate(18.84310466283528 -99.61134021714602) rotate(441.7172660320081)"><path class="outline" fill="#A5ABB6" stroke="none" d="M 25 0.5 L 58.04900212277305 0.5 L 58.04900212277305 -0.5 L 25 -0.5 Z M 92.49431462277305 0.5 L 125.5433167455461 0.5 L 125.5433167455461 3.5 L 132.5433167455461 0 L 125.5433167455461 -3.5 L 125.5433167455461 -0.5 L 92.49431462277305 -0.5 Z"/><text text-anchor="middle" pointer-events="none" font-size="8px" fill="#000000" x="75.27165837277305" y="3" font-family="sans-serif">ORIGIN</text></g><g class="relationship" transform="translate(18.84310466283528 -99.61134021714602) rotate(293.5037955710959)"><path class="outline" fill="#A5ABB6" stroke="none" d="M 25 0.5 L 46.34876353020107 0.5 L 46.34876353020107 -0.5 L 25 -0.5 Z M 105.53626353020107 0.5 L 126.88502706040214 0.5 L 126.88502706040214 3.5 L 133.88502706040214 0 L 126.88502706040214 -3.5 L 126.88502706040214 -0.5 L 105.53626353020107 -0.5 Z"/><text text-anchor="middle" pointer-events="none" font-size="8px" fill="#000000" x="75.94251353020107" y="3" font-family="sans-serif">DESTINATION</text></g><g class="relationship" transform="translate(-201.44765174128835 444.5053954189693) rotate(343.454103685061)"><path class="outline" fill="#A5ABB6" stroke="none" d="M 25 0.5 L 44.28614271916163 0.5 L 44.28614271916163 -0.5 L 25 -0.5 Z M 78.73145521916163 0.5 L 98.01759793832326 0.5 L 98.01759793832326 3.5 L 105.01759793832326 0 L 98.01759793832326 -3.5 L 98.01759793832326 -0.5 L 78.73145521916163 -0.5 Z"/><text text-anchor="middle" pointer-events="none" font-size="8px" fill="#000000" x="61.50879896916163" y="3" font-family="sans-serif">ORIGIN</text></g><g class="relationship" transform="translate(-201.44765174128835 444.5053954189693) rotate(265.9964857079922)"><path class="outline" fill="#A5ABB6" stroke="none" d="M 25 0.5 L 59.48825643240035 0.5 L 59.48825643240035 -0.5 L 25 -0.5 Z M 118.67575643240035 0.5 L 153.1640128648007 0.5 L 153.1640128648007 3.5 L 160.1640128648007 0 L 153.1640128648007 -3.5 L 153.1640128648007 -0.5 L 118.67575643240035 -0.5 Z"/><text text-anchor="middle" pointer-events="none" font-size="8px" fill="#000000" x="89.08200643240035" y="3" transform="rotate(180 89.08200643240035 0)" font-family="sans-serif">DESTINATION</text></g><g class="relationship" transform="translate(-115.1827578001075 136.02330393665963) rotate(488.70964344917604)"><path class="outline" fill="#A5ABB6" stroke="none" d="M 25 0.5 L 46.21288235220216 0.5 L 46.21288235220216 -0.5 L 25 -0.5 Z M 105.40038235220216 0.5 L 126.61326470440432 0.5 L 126.61326470440432 3.5 L 133.61326470440432 0 L 126.61326470440432 -3.5 L 126.61326470440432 -0.5 L 105.40038235220216 -0.5 Z"/><text text-anchor="middle" pointer-events="none" font-size="8px" fill="#000000" x="75.80663235220216" y="3" transform="rotate(180 75.80663235220216 0)" font-family="sans-serif">DESTINATION</text></g><g class="relationship" transform="translate(-115.1827578001075 136.02330393665963) rotate(333.03450152174605)"><path class="outline" fill="#A5ABB6" stroke="none" d="M 25 0.5 L 67.19656307385537 0.5 L 67.19656307385537 -0.5 L 25 -0.5 Z M 101.64187557385537 0.5 L 143.83843864771075 0.5 L 143.83843864771075 3.5 L 150.83843864771075 0 L 143.83843864771075 -3.5 L 143.83843864771075 -0.5 L 101.64187557385537 -0.5 Z"/><text text-anchor="middle" pointer-events="none" font-size="8px" fill="#000000" x="84.41921932385537" y="3" font-family="sans-serif">ORIGIN</text></g><g class="relationship" transform="translate(-191.45748232420019 385.46652143624044) rotate(370.86874303769827)"><path class="outline" fill="#A5ABB6" stroke="none" d="M 25 0.5 L 37.64620508339783 0.5 L 37.64620508339783 -0.5 L 25 -0.5 Z M 72.09151758339783 0.5 L 84.73772266679566 0.5 L 84.73772266679566 3.5 L 91.73772266679566 0 L 84.73772266679566 -3.5 L 84.73772266679566 -0.5 L 72.09151758339783 -0.5 Z"/><text text-anchor="middle" pointer-events="none" font-size="8px" fill="#000000" x="54.86886133339783" y="3" font-family="sans-serif">ORIGIN</text></g><g class="relationship" transform="translate(-191.45748232420019 385.46652143624044) rotate(259.66505945900775)"><path class="outline" fill="#A5ABB6" stroke="none" d="M 25 0.5 L 30.77918423980976 0.5 L 30.77918423980976 -0.5 L 25 -0.5 Z M 89.96668423980975 0.5 L 95.74586847961952 0.5 L 95.74586847961952 3.5 L 102.74586847961952 0 L 95.74586847961952 -3.5 L 95.74586847961952 -0.5 L 89.96668423980975 -0.5 Z"/><text text-anchor="middle" pointer-events="none" font-size="8px" fill="#000000" x="60.37293423980976" y="3" transform="rotate(180 60.37293423980976 0)" font-family="sans-serif">DESTINATION</text></g><g class="relationship" transform="translate(-78.61396501042245 183.29860306924337) rotate(510.600960323677)"><path class="outline" fill="#A5ABB6" stroke="none" d="M 25 0.5 L 57.19169783429413 0.5 L 57.19169783429413 -0.5 L 25 -0.5 Z M 91.63701033429413 0.5 L 123.82870816858826 0.5 L 123.82870816858826 3.5 L 130.82870816858826 0 L 123.82870816858826 -3.5 L 123.82870816858826 -0.5 L 91.63701033429413 -0.5 Z"/><text text-anchor="middle" pointer-events="none" font-size="8px" fill="#000000" x="74.41435408429413" y="3" transform="rotate(180 74.41435408429413 0)" font-family="sans-serif">ORIGIN</text></g><g class="relationship" transform="translate(-78.61396501042245 183.29860306924337) rotate(313.41074622213966)"><path class="outline" fill="#A5ABB6" stroke="none" d="M 25 0.5 L 54.32496994021062 0.5 L 54.32496994021062 -0.5 L 25 -0.5 Z M 113.51246994021062 0.5 L 142.83743988042124 0.5 L 142.83743988042124 3.5 L 149.83743988042124 0 L 142.83743988042124 -3.5 L 142.83743988042124 -0.5 L 113.51246994021062 -0.5 Z"/><text text-anchor="middle" pointer-events="none" font-size="8px" fill="#000000" x="83.91871994021062" y="3" font-family="sans-serif">DESTINATION</text></g><g class="relationship" transform="translate(-247.6045806357438 406.28363262790197) rotate(360.4008578994448)"><path class="outline" fill="#A5ABB6" stroke="none" d="M 25 0.5 L 52.303713822030105 0.5 L 52.303713822030105 -0.5 L 25 -0.5 Z M 111.4912138220301 0.5 L 138.7949276440602 0.5 L 138.7949276440602 3.5 L 145.7949276440602 0 L 138.7949276440602 -3.5 L 138.7949276440602 -0.5 L 111.4912138220301 -0.5 Z"/><text text-anchor="middle" pointer-events="none" font-size="8px" fill="#000000" x="81.8974638220301" y="3" font-family="sans-serif">DESTINATION</text></g><g class="relationship" transform="translate(-247.6045806357438 406.28363262790197) rotate(282.780437744354)"><path class="outline" fill="#A5ABB6" stroke="none" d="M 25 0.5 L 54.383302013912314 0.5 L 54.383302013912314 -0.5 L 25 -0.5 Z M 88.82861451391231 0.5 L 118.21191652782463 0.5 L 118.21191652782463 3.5 L 125.21191652782463 0 L 118.21191652782463 -3.5 L 118.21191652782463 -0.5 L 88.82861451391231 -0.5 Z"/><text text-anchor="middle" pointer-events="none" font-size="8px" fill="#000000" x="71.60595826391231" y="3" font-family="sans-serif">ORIGIN</text></g><g class="relationship" transform="translate(-60.76085851373134 532.739117385506) rotate(262.6969730334079)"><path class="outline" fill="#A5ABB6" stroke="none" d="M 25 0.5 L 42.41985476984247 0.5 L 42.41985476984247 -0.5 L 25 -0.5 Z M 76.86516726984247 0.5 L 94.28502203968495 0.5 L 94.28502203968495 3.5 L 101.28502203968495 0 L 94.28502203968495 -3.5 L 94.28502203968495 -0.5 L 76.86516726984247 -0.5 Z"/><text text-anchor="middle" pointer-events="none" font-size="8px" fill="#000000" x="59.64251101984247" y="3" transform="rotate(180 59.64251101984247 0)" font-family="sans-serif">ORIGIN</text></g><g class="relationship" transform="translate(-60.76085851373134 532.739117385506) rotate(296.20747762470035)"><path class="outline" fill="#A5ABB6" stroke="none" d="M 25 0.5 L 47.72798336577043 0.5 L 47.72798336577043 -0.5 L 25 -0.5 Z M 106.91548336577043 0.5 L 129.64346673154085 0.5 L 129.64346673154085 3.5 L 136.64346673154085 0 L 129.64346673154085 -3.5 L 129.64346673154085 -0.5 L 106.91548336577043 -0.5 Z"/><text text-anchor="middle" pointer-events="none" font-size="8px" fill="#000000" x="77.32173336577043" y="3" font-family="sans-serif">DESTINATION</text></g><g class="relationship" transform="translate(21.87454704643927 207.99763778863624) rotate(453.58197555191776)"><path class="outline" fill="#A5ABB6" stroke="none" d="M 25 0.5 L 56.93955687764354 0.5 L 56.93955687764354 -0.5 L 25 -0.5 Z M 116.12705687764354 0.5 L 148.06661375528708 0.5 L 148.06661375528708 3.5 L 155.06661375528708 0 L 148.06661375528708 -3.5 L 148.06661375528708 -0.5 L 116.12705687764354 -0.5 Z"/><text text-anchor="middle" pointer-events="none" font-size="8px" fill="#000000" x="86.53330687764354" y="3" transform="rotate(180 86.53330687764354 0)" font-family="sans-serif">DESTINATION</text></g><g class="relationship" transform="translate(21.87454704643927 207.99763778863624) rotate(277.3852843685611)"><path class="outline" fill="#A5ABB6" stroke="none" d="M 25 0.5 L 55.76635907156519 0.5 L 55.76635907156519 -0.5 L 25 -0.5 Z M 90.21167157156519 0.5 L 120.97803064313038 0.5 L 120.97803064313038 3.5 L 127.97803064313038 0 L 120.97803064313038 -3.5 L 120.97803064313038 -0.5 L 90.21167157156519 -0.5 Z"/><text text-anchor="middle" pointer-events="none" font-size="8px" fill="#000000" x="72.98901532156519" y="3" font-family="sans-serif">ORIGIN</text></g><g class="relationship" transform="translate(76.63650246443969 232.26080240599325) rotate(473.0082988500602)"><path class="outline" fill="#A5ABB6" stroke="none" d="M 25 0.5 L 51.34971375390448 0.5 L 51.34971375390448 -0.5 L 25 -0.5 Z M 110.53721375390448 0.5 L 136.88692750780896 0.5 L 136.88692750780896 3.5 L 143.88692750780896 0 L 136.88692750780896 -3.5 L 136.88692750780896 -0.5 L 110.53721375390448 -0.5 Z"/><text text-anchor="middle" pointer-events="none" font-size="8px" fill="#000000" x="80.94346375390448" y="3" transform="rotate(180 80.94346375390448 0)" font-family="sans-serif">DESTINATION</text></g><g class="relationship" transform="translate(76.63650246443969 232.26080240599325) rotate(258.72025152042306)"><path class="outline" fill="#A5ABB6" stroke="none" d="M 25 0.5 L 68.99643135300003 0.5 L 68.99643135300003 -0.5 L 25 -0.5 Z M 103.44174385300003 0.5 L 147.43817520600007 0.5 L 147.43817520600007 3.5 L 154.43817520600007 0 L 147.43817520600007 -3.5 L 147.43817520600007 -0.5 L 103.44174385300003 -0.5 Z"/><text text-anchor="middle" pointer-events="none" font-size="8px" fill="#000000" x="86.21908760300003" y="3" transform="rotate(180 86.21908760300003 0)" font-family="sans-serif">ORIGIN</text></g><g class="relationship" transform="translate(-74.24026366581785 -22.702574402429264) rotate(476.3842094379012)"><path class="outline" fill="#A5ABB6" stroke="none" d="M 25 0.5 L 124.57816005291065 0.5 L 124.57816005291065 -0.5 L 25 -0.5 Z M 183.76566005291065 0.5 L 283.3438201058213 0.5 L 283.3438201058213 3.5 L 290.3438201058213 0 L 283.3438201058213 -3.5 L 283.3438201058213 -0.5 L 183.76566005291065 -0.5 Z"/><text text-anchor="middle" pointer-events="none" font-size="8px" fill="#000000" x="154.17191005291065" y="3" transform="rotate(180 154.17191005291065 0)" font-family="sans-serif">DESTINATION</text></g><g class="relationship" transform="translate(-74.24026366581785 -22.702574402429264) rotate(305.0989948579829)"><path class="outline" fill="#A5ABB6" stroke="none" d="M 25 0.5 L 115.32147717316283 0.5 L 115.32147717316283 -0.5 L 25 -0.5 Z M 149.76678967316283 0.5 L 240.08826684632567 0.5 L 240.08826684632567 3.5 L 247.08826684632567 0 L 240.08826684632567 -3.5 L 240.08826684632567 -0.5 L 149.76678967316283 -0.5 Z"/><text text-anchor="middle" pointer-events="none" font-size="8px" fill="#000000" x="132.54413342316283" y="3" font-family="sans-serif">ORIGIN</text></g></g><g class="layer nodes"><g class="node" transform="translate(-76.81383301620426,407.4785537543828)"><circle class="outline" cx="0" cy="0" r="25" fill="#F16667" stroke="#eb2728" stroke-width="2px"/><text text-anchor="middle" pointer-events="none" font-family="sans-serif" dy="1.5625" font-size="25" fill="#FFFFFF"/><text text-anchor="middle" pointer-events="none" y="5" font-size="10px" fill="#FFFFFF" font-family="sans-serif"> LAX</text></g><g class="node" transform="translate(701.6961230301481,197.81787540321548)"><circle class="outline" cx="0" cy="0" r="25" fill="#F16667" stroke="#eb2728" stroke-width="2px"/><text text-anchor="middle" pointer-events="none" font-family="sans-serif" dy="1.5625" font-size="25" fill="#FFFFFF"/><text text-anchor="middle" pointer-events="none" y="5" font-size="10px" fill="#FFFFFF" font-family="sans-serif"> DAY</text></g><g class="node" transform="translate(-224.67267565544904,199.7029129525402)"><circle class="outline" cx="0" cy="0" r="25" fill="#D9C8AE" stroke="#c0a378" stroke-width="2px"/><text text-anchor="middle" pointer-events="none" font-family="sans-serif" dy="1.5625" font-size="25" fill="#604A0E"/><text text-anchor="middle" pointer-events="none" y="5" font-size="10px" fill="#604A0E" font-family="sans-serif"> 11/29/20…</text></g><g class="node" transform="translate(-265.7546009257506,-72.26289515733923)"><circle class="outline" cx="0" cy="0" r="25" fill="#F16667" stroke="#eb2728" stroke-width="2px"/><text text-anchor="middle" pointer-events="none" font-family="sans-serif" dy="1.5625" font-size="25" fill="#FFFFFF"/><text text-anchor="middle" pointer-events="none" y="5" font-size="10px" fill="#FFFFFF" font-family="sans-serif"> LAS</text></g><g class="node" transform="translate(-122.47129962922317,-235.63151390753103)"><circle class="outline" cx="0" cy="0" r="25" fill="#D9C8AE" stroke="#c0a378" stroke-width="2px"/><text text-anchor="middle" pointer-events="none" font-family="sans-serif" dy="1.5625" font-size="25" fill="#604A0E"/><text text-anchor="middle" pointer-events="none" y="5" font-size="10px" fill="#604A0E" font-family="sans-serif"> 11/29/20…</text></g><g class="node" transform="translate(82.20801352910662,-245.31425764968697)"><circle class="outline" cx="0" cy="0" r="25" fill="#F16667" stroke="#eb2728" stroke-width="2px"/><text text-anchor="middle" pointer-events="none" font-family="sans-serif" dy="1.5625" font-size="25" fill="#FFFFFF"/><text text-anchor="middle" pointer-events="none" y="5" font-size="10px" fill="#FFFFFF" font-family="sans-serif"> DEN</text></g><g class="node" transform="translate(321.76634450248207,-108.70527703183171)"><circle class="outline" cx="0" cy="0" r="25" fill="#D9C8AE" stroke="#c0a378" stroke-width="2px"/><text text-anchor="middle" pointer-events="none" font-family="sans-serif" dy="1.5625" font-size="25" fill="#604A0E"/><text text-anchor="middle" pointer-events="none" y="5" font-size="10px" fill="#604A0E" font-family="sans-serif"> 11/29/20…</text></g><g class="node" transform="translate(475.5555611904883,79.87600706537533)"><circle class="outline" cx="0" cy="0" r="25" fill="#F16667" stroke="#eb2728" stroke-width="2px"/><text text-anchor="middle" pointer-events="none" font-family="sans-serif" dy="1.5625" font-size="25" fill="#FFFFFF"/><text text-anchor="middle" pointer-events="none" y="5" font-size="10px" fill="#FFFFFF" font-family="sans-serif"> MSP</text></g><g class="node" transform="translate(576.7069974163253,165.38115881685727)"><circle class="outline" cx="0" cy="0" r="25" fill="#D9C8AE" stroke="#c0a378" stroke-width="2px"/><text text-anchor="middle" pointer-events="none" font-family="sans-serif" dy="1.5625" font-size="25" fill="#604A0E"/><text text-anchor="middle" pointer-events="none" y="5" font-size="10px" fill="#604A0E" font-family="sans-serif"> 11/23/20…</text></g><g class="node" transform="translate(575.8837737484297,225.24400587929708)"><circle class="outline" cx="0" cy="0" r="25" fill="#D9C8AE" stroke="#c0a378" stroke-width="2px"/><text text-anchor="middle" pointer-events="none" font-family="sans-serif" dy="1.5625" font-size="25" fill="#604A0E"/><text text-anchor="middle" pointer-events="none" y="5" font-size="10px" fill="#604A0E" font-family="sans-serif"> 11/16/20…</text></g><g class="node" transform="translate(629.6829595243435,137.36684980445554)"><circle class="outline" cx="0" cy="0" r="25" fill="#D9C8AE" stroke="#c0a378" stroke-width="2px"/><text text-anchor="middle" pointer-events="none" font-family="sans-serif" dy="1.5625" font-size="25" fill="#604A0E"/><text text-anchor="middle" pointer-events="none" y="5" font-size="10px" fill="#604A0E" font-family="sans-serif"> 11/20/20…</text></g><g class="node" transform="translate(595.5882187558982,88.21169661827767)"><circle class="outline" cx="0" cy="0" r="25" fill="#D9C8AE" stroke="#c0a378" stroke-width="2px"/><text text-anchor="middle" pointer-events="none" font-family="sans-serif" dy="1.5625" font-size="25" fill="#604A0E"/><text text-anchor="middle" pointer-events="none" y="5" font-size="10px" fill="#604A0E" font-family="sans-serif"> 11/25/20…</text></g><g class="node" transform="translate(653.1807958189834,72.08121228940009)"><circle class="outline" cx="0" cy="0" r="25" fill="#D9C8AE" stroke="#c0a378" stroke-width="2px"/><text text-anchor="middle" pointer-events="none" font-family="sans-serif" dy="1.5625" font-size="25" fill="#604A0E"/><text text-anchor="middle" pointer-events="none" y="5" font-size="10px" fill="#604A0E" font-family="sans-serif"> 11/11/20…</text></g><g class="node" transform="translate(80.7297113838352,421.8772823556925)"><circle class="outline" cx="0" cy="0" r="25" fill="#D9C8AE" stroke="#c0a378" stroke-width="2px"/><text text-anchor="middle" pointer-events="none" font-family="sans-serif" dy="1.5625" font-size="25" fill="#604A0E"/><text text-anchor="middle" pointer-events="none" y="5" font-size="10px" fill="#604A0E" font-family="sans-serif"> 11/3/2015</text></g><g class="node" transform="translate(199.1910270139092,375.7170877996028)"><circle class="outline" cx="0" cy="0" r="25" fill="#F16667" stroke="#eb2728" stroke-width="2px"/><text text-anchor="middle" pointer-events="none" font-family="sans-serif" dy="1.5625" font-size="25" fill="#FFFFFF"/><text text-anchor="middle" pointer-events="none" y="5" font-size="10px" fill="#FFFFFF" font-family="sans-serif"> SMF</text></g><g class="node" transform="translate(163.32946212155042,50.69161727639654)"><circle class="outline" cx="0" cy="0" r="25" fill="#D9C8AE" stroke="#c0a378" stroke-width="2px"/><text text-anchor="middle" pointer-events="none" font-family="sans-serif" dy="1.5625" font-size="25" fill="#604A0E"/><text text-anchor="middle" pointer-events="none" y="5" font-size="10px" fill="#604A0E" font-family="sans-serif"> 11/30/20…</text></g><g class="node" transform="translate(49.10954745219264,472.71223420498984)"><circle class="outline" cx="0" cy="0" r="25" fill="#D9C8AE" stroke="#c0a378" stroke-width="2px"/><text text-anchor="middle" pointer-events="none" font-family="sans-serif" dy="1.5625" font-size="25" fill="#604A0E"/><text text-anchor="middle" pointer-events="none" y="5" font-size="10px" fill="#604A0E" font-family="sans-serif"> 11/2/2015</text></g><g class="node" transform="translate(110.5476415307723,473.78946456842743)"><circle class="outline" cx="0" cy="0" r="25" fill="#D9C8AE" stroke="#c0a378" stroke-width="2px"/><text text-anchor="middle" pointer-events="none" font-family="sans-serif" dy="1.5625" font-size="25" fill="#604A0E"/><text text-anchor="middle" pointer-events="none" y="5" font-size="10px" fill="#604A0E" font-family="sans-serif"> 11/1/2015</text></g><g class="node" transform="translate(78.951901621302,524.5528711736788)"><circle class="outline" cx="0" cy="0" r="25" fill="#D9C8AE" stroke="#c0a378" stroke-width="2px"/><text text-anchor="middle" pointer-events="none" font-family="sans-serif" dy="1.5625" font-size="25" fill="#604A0E"/><text text-anchor="middle" pointer-events="none" y="5" font-size="10px" fill="#604A0E" font-family="sans-serif"> 11/4/2015</text></g><g class="node" transform="translate(112.56384883664731,121.38202185429587)"><circle class="outline" cx="0" cy="0" r="25" fill="#D9C8AE" stroke="#c0a378" stroke-width="2px"/><text text-anchor="middle" pointer-events="none" font-family="sans-serif" dy="1.5625" font-size="25" fill="#604A0E"/><text text-anchor="middle" pointer-events="none" y="5" font-size="10px" fill="#604A0E" font-family="sans-serif"> 11/29/20…</text></g><g class="node" transform="translate(275.4554909405606,-197.46880274721784)"><circle class="outline" cx="0" cy="0" r="25" fill="#F16667" stroke="#eb2728" stroke-width="2px"/><text text-anchor="middle" pointer-events="none" font-family="sans-serif" dy="1.5625" font-size="25" fill="#FFFFFF"/><text text-anchor="middle" pointer-events="none" y="5" font-size="10px" fill="#FFFFFF" font-family="sans-serif"> SFO</text></g><g class="node" transform="translate(215.0659444385896,-344.8172094959913)"><circle class="outline" cx="0" cy="0" r="25" fill="#D9C8AE" stroke="#c0a378" stroke-width="2px"/><text text-anchor="middle" pointer-events="none" font-family="sans-serif" dy="1.5625" font-size="25" fill="#604A0E"/><text text-anchor="middle" pointer-events="none" y="5" font-size="10px" fill="#604A0E" font-family="sans-serif"> 11/30/20…</text></g><g class="node" transform="translate(187.4469216691992,-244.80455077351704)"><circle class="outline" cx="0" cy="0" r="25" fill="#D9C8AE" stroke="#c0a378" stroke-width="2px"/><text text-anchor="middle" pointer-events="none" font-family="sans-serif" dy="1.5625" font-size="25" fill="#604A0E"/><text text-anchor="middle" pointer-events="none" y="5" font-size="10px" fill="#604A0E" font-family="sans-serif"> 11/30/20…</text></g><g class="node" transform="translate(230.07301592407063,-286.73788154818317)"><circle class="outline" cx="0" cy="0" r="25" fill="#D9C8AE" stroke="#c0a378" stroke-width="2px"/><text text-anchor="middle" pointer-events="none" font-family="sans-serif" dy="1.5625" font-size="25" fill="#604A0E"/><text text-anchor="middle" pointer-events="none" y="5" font-size="10px" fill="#604A0E" font-family="sans-serif"> 11/29/20…</text></g><g class="node" transform="translate(172.3573730097873,-302.82702103168566)"><circle class="outline" cx="0" cy="0" r="25" fill="#D9C8AE" stroke="#c0a378" stroke-width="2px"/><text text-anchor="middle" pointer-events="none" font-family="sans-serif" dy="1.5625" font-size="25" fill="#604A0E"/><text text-anchor="middle" pointer-events="none" y="5" font-size="10px" fill="#604A0E" font-family="sans-serif"> 11/29/20…</text></g><g class="node" transform="translate(272.7938858178269,-328.5141070318664)"><circle class="outline" cx="0" cy="0" r="25" fill="#D9C8AE" stroke="#c0a378" stroke-width="2px"/><text text-anchor="middle" pointer-events="none" font-family="sans-serif" dy="1.5625" font-size="25" fill="#604A0E"/><text text-anchor="middle" pointer-events="none" y="5" font-size="10px" fill="#604A0E" font-family="sans-serif"> 11/30/20…</text></g><g class="node" transform="translate(157.27529060045165,-360.66781373801007)"><circle class="outline" cx="0" cy="0" r="25" fill="#D9C8AE" stroke="#c0a378" stroke-width="2px"/><text text-anchor="middle" pointer-events="none" font-family="sans-serif" dy="1.5625" font-size="25" fill="#604A0E"/><text text-anchor="middle" pointer-events="none" y="5" font-size="10px" fill="#604A0E" font-family="sans-serif"> 11/29/20…</text></g><g class="node" transform="translate(6.384325110803135,265.95970043623436)"><circle class="outline" cx="0" cy="0" r="25" fill="#D9C8AE" stroke="#c0a378" stroke-width="2px"/><text text-anchor="middle" pointer-events="none" font-family="sans-serif" dy="1.5625" font-size="25" fill="#604A0E"/><text text-anchor="middle" pointer-events="none" y="5" font-size="10px" fill="#604A0E" font-family="sans-serif"> 11/30/20…</text></g><g class="node" transform="translate(41.538480060330976,56.288680907785874)"><circle class="outline" cx="0" cy="0" r="25" fill="#F16667" stroke="#eb2728" stroke-width="2px"/><text text-anchor="middle" pointer-events="none" font-family="sans-serif" dy="1.5625" font-size="25" fill="#FFFFFF"/><text text-anchor="middle" pointer-events="none" y="5" font-size="10px" fill="#FFFFFF" font-family="sans-serif"> ORD</text></g><g class="node" transform="translate(253.09288229785085,81.31359992917167)"><circle class="outline" cx="0" cy="0" r="25" fill="#D9C8AE" stroke="#c0a378" stroke-width="2px"/><text text-anchor="middle" pointer-events="none" font-family="sans-serif" dy="1.5625" font-size="25" fill="#604A0E"/><text text-anchor="middle" pointer-events="none" y="5" font-size="10px" fill="#604A0E" font-family="sans-serif"> 11/29/20…</text></g><g class="node" transform="translate(298.0162638115092,120.54148664866004)"><circle class="outline" cx="0" cy="0" r="25" fill="#D9C8AE" stroke="#c0a378" stroke-width="2px"/><text text-anchor="middle" pointer-events="none" font-family="sans-serif" dy="1.5625" font-size="25" fill="#604A0E"/><text text-anchor="middle" pointer-events="none" y="5" font-size="10px" fill="#604A0E" font-family="sans-serif"> 11/29/20…</text></g><g class="node" transform="translate(300.7868331756835,45.407647170428035)"><circle class="outline" cx="0" cy="0" r="25" fill="#D9C8AE" stroke="#c0a378" stroke-width="2px"/><text text-anchor="middle" pointer-events="none" font-family="sans-serif" dy="1.5625" font-size="25" fill="#604A0E"/><text text-anchor="middle" pointer-events="none" y="5" font-size="10px" fill="#604A0E" font-family="sans-serif"> 11/30/20…</text></g><g class="node" transform="translate(-48.79920797615793,242.75529759983024)"><circle class="outline" cx="0" cy="0" r="25" fill="#D9C8AE" stroke="#c0a378" stroke-width="2px"/><text text-anchor="middle" pointer-events="none" font-family="sans-serif" dy="1.5625" font-size="25" fill="#604A0E"/><text text-anchor="middle" pointer-events="none" y="5" font-size="10px" fill="#604A0E" font-family="sans-serif"> 11/29/20…</text></g><g class="node" transform="translate(-141.06825602167123,-14.64469142635875)"><circle class="outline" cx="0" cy="0" r="25" fill="#D9C8AE" stroke="#c0a378" stroke-width="2px"/><text text-anchor="middle" pointer-events="none" font-family="sans-serif" dy="1.5625" font-size="25" fill="#604A0E"/><text text-anchor="middle" pointer-events="none" y="5" font-size="10px" fill="#604A0E" font-family="sans-serif"> 11/29/20…</text></g><g class="node" transform="translate(-124.53753858652678,-72.19936664404004)"><circle class="outline" cx="0" cy="0" r="25" fill="#D9C8AE" stroke="#c0a378" stroke-width="2px"/><text text-anchor="middle" pointer-events="none" font-family="sans-serif" dy="1.5625" font-size="25" fill="#604A0E"/><text text-anchor="middle" pointer-events="none" y="5" font-size="10px" fill="#604A0E" font-family="sans-serif"> 11/29/20…</text></g><g class="node" transform="translate(136.55589657499547,236.95347843215998)"><circle class="outline" cx="0" cy="0" r="25" fill="#D9C8AE" stroke="#c0a378" stroke-width="2px"/><text text-anchor="middle" pointer-events="none" font-family="sans-serif" dy="1.5625" font-size="25" fill="#604A0E"/><text text-anchor="middle" pointer-events="none" y="5" font-size="10px" fill="#604A0E" font-family="sans-serif"> 11/30/20…</text></g><g class="node" transform="translate(189.97963083369507,210.10444192012721)"><circle class="outline" cx="0" cy="0" r="25" fill="#D9C8AE" stroke="#c0a378" stroke-width="2px"/><text text-anchor="middle" pointer-events="none" font-family="sans-serif" dy="1.5625" font-size="25" fill="#604A0E"/><text text-anchor="middle" pointer-events="none" y="5" font-size="10px" fill="#604A0E" font-family="sans-serif"> 11/29/20…</text></g><g class="node" transform="translate(174.49099112144557,-82.48914233760495)"><circle class="outline" cx="0" cy="0" r="25" fill="#D9C8AE" stroke="#c0a378" stroke-width="2px"/><text text-anchor="middle" pointer-events="none" font-family="sans-serif" dy="1.5625" font-size="25" fill="#604A0E"/><text text-anchor="middle" pointer-events="none" y="5" font-size="10px" fill="#604A0E" font-family="sans-serif"> 11/29/20…</text></g><g class="node" transform="translate(217.6434710609567,-41.138399514479545)"><circle class="outline" cx="0" cy="0" r="25" fill="#D9C8AE" stroke="#c0a378" stroke-width="2px"/><text text-anchor="middle" pointer-events="none" font-family="sans-serif" dy="1.5625" font-size="25" fill="#604A0E"/><text text-anchor="middle" pointer-events="none" y="5" font-size="10px" fill="#604A0E" font-family="sans-serif"> 11/30/20…</text></g><g class="node" transform="translate(-257.969422294926,320.71685420533004)"><circle class="outline" cx="0" cy="0" r="25" fill="#D9C8AE" stroke="#c0a378" stroke-width="2px"/><text text-anchor="middle" pointer-events="none" font-family="sans-serif" dy="1.5625" font-size="25" fill="#604A0E"/><text text-anchor="middle" pointer-events="none" y="5" font-size="10px" fill="#604A0E" font-family="sans-serif"> 11/30/20…</text></g><g class="node" transform="translate(-312.88075519124885,134.97176672688485)"><circle class="outline" cx="0" cy="0" r="25" fill="#F16667" stroke="#eb2728" stroke-width="2px"/><text text-anchor="middle" pointer-events="none" font-family="sans-serif" dy="1.5625" font-size="25" fill="#FFFFFF"/><text text-anchor="middle" pointer-events="none" y="5" font-size="10px" fill="#FFFFFF" font-family="sans-serif"> IAH</text></g><g class="node" transform="translate(-184.2627494011042,47.105557253289675)"><circle class="outline" cx="0" cy="0" r="25" fill="#D9C8AE" stroke="#c0a378" stroke-width="2px"/><text text-anchor="middle" pointer-events="none" font-family="sans-serif" dy="1.5625" font-size="25" fill="#604A0E"/><text text-anchor="middle" pointer-events="none" y="5" font-size="10px" fill="#604A0E" font-family="sans-serif"> 11/29/20…</text></g><g class="node" transform="translate(-170.86836571852606,105.55925332519598)"><circle class="outline" cx="0" cy="0" r="25" fill="#D9C8AE" stroke="#c0a378" stroke-width="2px"/><text text-anchor="middle" pointer-events="none" font-family="sans-serif" dy="1.5625" font-size="25" fill="#604A0E"/><text text-anchor="middle" pointer-events="none" y="5" font-size="10px" fill="#604A0E" font-family="sans-serif"> 11/29/20…</text></g><g class="node" transform="translate(-127.08359809284877,64.87652280536874)"><circle class="outline" cx="0" cy="0" r="25" fill="#D9C8AE" stroke="#c0a378" stroke-width="2px"/><text text-anchor="middle" pointer-events="none" font-family="sans-serif" dy="1.5625" font-size="25" fill="#604A0E"/><text text-anchor="middle" pointer-events="none" y="5" font-size="10px" fill="#604A0E" font-family="sans-serif"> 11/30/20…</text></g><g class="node" transform="translate(66.92076436684354,-135.36078360755076)"><circle class="outline" cx="0" cy="0" r="25" fill="#D9C8AE" stroke="#c0a378" stroke-width="2px"/><text text-anchor="middle" pointer-events="none" font-family="sans-serif" dy="1.5625" font-size="25" fill="#604A0E"/><text text-anchor="middle" pointer-events="none" y="5" font-size="10px" fill="#604A0E" font-family="sans-serif"> 11/29/20…</text></g><g class="node" transform="translate(-36.114600145959955,-123.39280126245114)"><circle class="outline" cx="0" cy="0" r="25" fill="#D9C8AE" stroke="#c0a378" stroke-width="2px"/><text text-anchor="middle" pointer-events="none" font-family="sans-serif" dy="1.5625" font-size="25" fill="#604A0E"/><text text-anchor="middle" pointer-events="none" y="5" font-size="10px" fill="#604A0E" font-family="sans-serif"> 11/29/20…</text></g><g class="node" transform="translate(11.768619821771539,-158.96646711227055)"><circle class="outline" cx="0" cy="0" r="25" fill="#D9C8AE" stroke="#c0a378" stroke-width="2px"/><text text-anchor="middle" pointer-events="none" font-family="sans-serif" dy="1.5625" font-size="25" fill="#604A0E"/><text text-anchor="middle" pointer-events="none" y="5" font-size="10px" fill="#604A0E" font-family="sans-serif"> 11/29/20…</text></g><g class="node" transform="translate(73.89996243745402,-75.99027344426885)"><circle class="outline" cx="0" cy="0" r="25" fill="#D9C8AE" stroke="#c0a378" stroke-width="2px"/><text text-anchor="middle" pointer-events="none" font-family="sans-serif" dy="1.5625" font-size="25" fill="#604A0E"/><text text-anchor="middle" pointer-events="none" y="5" font-size="10px" fill="#604A0E" font-family="sans-serif"> 11/29/20…</text></g><g class="node" transform="translate(121.84188915443188,-111.66985819931007)"><circle class="outline" cx="0" cy="0" r="25" fill="#D9C8AE" stroke="#c0a378" stroke-width="2px"/><text text-anchor="middle" pointer-events="none" font-family="sans-serif" dy="1.5625" font-size="25" fill="#604A0E"/><text text-anchor="middle" pointer-events="none" y="5" font-size="10px" fill="#604A0E" font-family="sans-serif"> 11/30/20…</text></g><g class="node" transform="translate(18.84310466283528,-99.61134021714602)"><circle class="outline" cx="0" cy="0" r="25" fill="#D9C8AE" stroke="#c0a378" stroke-width="2px"/><text text-anchor="middle" pointer-events="none" font-family="sans-serif" dy="1.5625" font-size="25" fill="#604A0E"/><text text-anchor="middle" pointer-events="none" y="5" font-size="10px" fill="#604A0E" font-family="sans-serif"> 11/29/20…</text></g><g class="node" transform="translate(-201.44765174128835,444.5053954189693)"><circle class="outline" cx="0" cy="0" r="25" fill="#D9C8AE" stroke="#c0a378" stroke-width="2px"/><text text-anchor="middle" pointer-events="none" font-family="sans-serif" dy="1.5625" font-size="25" fill="#604A0E"/><text text-anchor="middle" pointer-events="none" y="5" font-size="10px" fill="#604A0E" font-family="sans-serif"> 11/30/20…</text></g><g class="node" transform="translate(-214.37536986681738,259.79322536982784)"><circle class="outline" cx="0" cy="0" r="25" fill="#F16667" stroke="#eb2728" stroke-width="2px"/><text text-anchor="middle" pointer-events="none" font-family="sans-serif" dy="1.5625" font-size="25" fill="#FFFFFF"/><text text-anchor="middle" pointer-events="none" y="5" font-size="10px" fill="#FFFFFF" font-family="sans-serif"> EWR</text></g><g class="node" transform="translate(-115.1827578001075,136.02330393665963)"><circle class="outline" cx="0" cy="0" r="25" fill="#D9C8AE" stroke="#c0a378" stroke-width="2px"/><text text-anchor="middle" pointer-events="none" font-family="sans-serif" dy="1.5625" font-size="25" fill="#604A0E"/><text text-anchor="middle" pointer-events="none" y="5" font-size="10px" fill="#604A0E" font-family="sans-serif"> 11/30/20…</text></g><g class="node" transform="translate(-191.45748232420019,385.46652143624044)"><circle class="outline" cx="0" cy="0" r="25" fill="#D9C8AE" stroke="#c0a378" stroke-width="2px"/><text text-anchor="middle" pointer-events="none" font-family="sans-serif" dy="1.5625" font-size="25" fill="#604A0E"/><text text-anchor="middle" pointer-events="none" y="5" font-size="10px" fill="#604A0E" font-family="sans-serif"> 11/29/20…</text></g><g class="node" transform="translate(-78.61396501042245,183.29860306924337)"><circle class="outline" cx="0" cy="0" r="25" fill="#D9C8AE" stroke="#c0a378" stroke-width="2px"/><text text-anchor="middle" pointer-events="none" font-family="sans-serif" dy="1.5625" font-size="25" fill="#604A0E"/><text text-anchor="middle" pointer-events="none" y="5" font-size="10px" fill="#604A0E" font-family="sans-serif"> 11/30/20…</text></g><g class="node" transform="translate(-247.6045806357438,406.28363262790197)"><circle class="outline" cx="0" cy="0" r="25" fill="#D9C8AE" stroke="#c0a378" stroke-width="2px"/><text text-anchor="middle" pointer-events="none" font-family="sans-serif" dy="1.5625" font-size="25" fill="#604A0E"/><text text-anchor="middle" pointer-events="none" y="5" font-size="10px" fill="#604A0E" font-family="sans-serif"> 11/29/20…</text></g><g class="node" transform="translate(-60.76085851373134,532.739117385506)"><circle class="outline" cx="0" cy="0" r="25" fill="#D9C8AE" stroke="#c0a378" stroke-width="2px"/><text text-anchor="middle" pointer-events="none" font-family="sans-serif" dy="1.5625" font-size="25" fill="#604A0E"/><text text-anchor="middle" pointer-events="none" y="5" font-size="10px" fill="#604A0E" font-family="sans-serif"> 11/29/20…</text></g><g class="node" transform="translate(10.624606028040853,387.71247918015376)"><circle class="outline" cx="0" cy="0" r="25" fill="#F16667" stroke="#eb2728" stroke-width="2px"/><text text-anchor="middle" pointer-events="none" font-family="sans-serif" dy="1.5625" font-size="25" fill="#FFFFFF"/><text text-anchor="middle" pointer-events="none" y="5" font-size="10px" fill="#FFFFFF" font-family="sans-serif"> BOS</text></g><g class="node" transform="translate(21.87454704643927,207.99763778863624)"><circle class="outline" cx="0" cy="0" r="25" fill="#D9C8AE" stroke="#c0a378" stroke-width="2px"/><text text-anchor="middle" pointer-events="none" font-family="sans-serif" dy="1.5625" font-size="25" fill="#604A0E"/><text text-anchor="middle" pointer-events="none" y="5" font-size="10px" fill="#604A0E" font-family="sans-serif"> 11/30/20…</text></g><g class="node" transform="translate(76.63650246443969,232.26080240599325)"><circle class="outline" cx="0" cy="0" r="25" fill="#D9C8AE" stroke="#c0a378" stroke-width="2px"/><text text-anchor="middle" pointer-events="none" font-family="sans-serif" dy="1.5625" font-size="25" fill="#604A0E"/><text text-anchor="middle" pointer-events="none" y="5" font-size="10px" fill="#604A0E" font-family="sans-serif"> 11/29/20…</text></g><g class="node" transform="translate(-74.24026366581785,-22.702574402429264)"><circle class="outline" cx="0" cy="0" r="25" fill="#D9C8AE" stroke="#c0a378" stroke-width="2px"/><text text-anchor="middle" pointer-events="none" font-family="sans-serif" dy="1.5625" font-size="25" fill="#604A0E"/><text text-anchor="middle" pointer-events="none" y="5" font-size="10px" fill="#604A0E" font-family="sans-serif"> 11/30/20…</text></g></g></svg>