<svg xmlns="http://www.w3.org/2000/svg" width="869.4237060546875" height="1082.2659912109375" viewBox="-331.9957275390625 -356.8747863769531 869.4237060546875 1082.2659912109375"><title>Neo4j Graph Visualization</title><desc>Created using Neo4j (http://www.neo4j.com/)</desc><g class="layer relationships"><g class="relationship" transform="translate(-152.15875765183188 86.03478196861322) rotate(266.19472634477285)"><path class="outline" fill="#A5ABB6" stroke="none" d="M 25 0.5 L 98.046503901352 0.5 L 98.046503901352 -0.5 L 25 -0.5 Z M 132.82983672605903 0.5 L 205.87634062741103 0.5 L 205.87634062741103 3.5 L 212.87634062741103 0 L 205.87634062741103 -3.5 L 205.87634062741103 -0.5 L 132.82983672605903 -0.5 Z"/><text text-anchor="middle" pointer-events="none" font-size="8px" fill="#000000" x="115.43817031370551" y="3" transform="rotate(180 115.43817031370551 0)" font-family="sans-serif">ORIGIN</text></g><g class="relationship" transform="translate(-152.15875765183188 86.03478196861322) rotate(419.8112478703051)"><path class="outline" fill="#A5ABB6" stroke="none" d="M 25 0.5 L 110.1773746870461 0.5 L 110.1773746870461 -0.5 L 25 -0.5 Z M 170.09404262527852 0.5 L 255.27141731232462 0.5 L 255.27141731232462 3.5 L 262.2714173123246 0 L 255.27141731232462 -3.5 L 255.27141731232462 -0.5 L 170.09404262527852 -0.5 Z"/><text text-anchor="middle" pointer-events="none" font-size="8px" fill="#000000" x="140.1357086561623" y="3" font-family="sans-serif">DESTINATION</text></g><g class="relationship" transform="translate(232.3761506782482 207.9579047377937) rotate(512.2361179770015)"><path class="outline" fill="#A5ABB6" stroke="none" d="M 25 0.5 L 114.76616849402097 0.5 L 114.76616849402097 -0.5 L 25 -0.5 Z M 149.549501318728 0.5 L 239.31566981274898 0.5 L 239.31566981274898 3.5 L 246.31566981274898 0 L 239.31566981274898 -3.5 L 239.31566981274898 -0.5 L 149.549501318728 -0.5 Z"/><text text-anchor="middle" pointer-events="none" font-size="8px" fill="#000000" x="132.1578349063745" y="3" transform="rotate(180 132.1578349063745 0)" font-family="sans-serif">ORIGIN</text></g><g class="relationship" transform="translate(232.3761506782482 207.9579047377937) rotate(315.2860575425327)"><path class="outline" fill="#A5ABB6" stroke="none" d="M 25 0.5 L 90.40649416521005 0.5 L 90.40649416521005 -0.5 L 25 -0.5 Z M 150.32316210344248 0.5 L 215.72965626865252 0.5 L 215.72965626865252 3.5 L 222.72965626865252 0 L 215.72965626865252 -3.5 L 215.72965626865252 -0.5 L 150.32316210344248 -0.5 Z"/><text text-anchor="middle" pointer-events="none" font-size="8px" fill="#000000" x="120.36482813432626" y="3" font-family="sans-serif">DESTINATION</text></g><g class="relationship" transform="translate(431.9156287166419 261.73785613547676) rotate(264.11825306191236)"><path class="outline" fill="#A5ABB6" stroke="none" d="M 25 0.5 L 81.18245250793656 0.5 L 81.18245250793656 -0.5 L 25 -0.5 Z M 141.09912044616897 0.5 L 197.28157295410554 0.5 L 197.28157295410554 3.5 L 204.28157295410554 0 L 197.28157295410554 -3.5 L 197.28157295410554 -0.5 L 141.09912044616897 -0.5 Z"/><text text-anchor="middle" pointer-events="none" font-size="8px" fill="#000000" x="111.14078647705277" y="3" transform="rotate(180 111.14078647705277 0)" font-family="sans-serif">DESTINATION</text></g><g class="relationship" transform="translate(431.9156287166419 261.73785613547676) rotate(473.4770094011887)"><path class="outline" fill="#A5ABB6" stroke="none" d="M 25 0.5 L 88.6919246152619 0.5 L 88.6919246152619 -0.5 L 25 -0.5 Z M 123.47525743996893 0.5 L 187.16718205523082 0.5 L 187.16718205523082 3.5 L 194.16718205523082 0 L 187.16718205523082 -3.5 L 187.16718205523082 -0.5 L 123.47525743996893 -0.5 Z"/><text text-anchor="middle" pointer-events="none" font-size="8px" fill="#000000" x="106.08359102761541" y="3" transform="rotate(180 106.08359102761541 0)" font-family="sans-serif">ORIGIN</text></g><g class="relationship" transform="translate(434.6662056800331 610.069906361144) rotate(238.55872185498373)"><path class="outline" fill="#A5ABB6" stroke="none" d="M 25 0.5 L 65.43733339787366 0.5 L 65.43733339787366 -0.5 L 25 -0.5 Z M 100.22066622258069 0.5 L 140.65799962045435 0.5 L 140.65799962045435 3.5 L 147.65799962045435 0 L 140.65799962045435 -3.5 L 140.65799962045435 -0.5 L 100.22066622258069 -0.5 Z"/><text text-anchor="middle" pointer-events="none" font-size="8px" fill="#000000" x="82.82899981022717" y="3" transform="rotate(180 82.82899981022717 0)" font-family="sans-serif">ORIGIN</text></g><g class="relationship" transform="translate(434.6662056800331 610.069906361144) rotate(483.6919809062953)"><path class="outline" fill="#A5ABB6" stroke="none" d="M 25 0.5 L 26.60714930543753 0.5 L 26.60714930543753 -0.5 L 25 -0.5 Z M 70.14048213014456 0.5 L 71.7476314355821 0.5 L 71.7476314355821 3.5 L 78.7476314355821 0 L 71.7476314355821 -3.5 L 71.7476314355821 -0.5 L 70.14048213014456 -0.5 Z"/><text text-anchor="middle" pointer-events="none" font-size="8px" fill="#000000" x="48.37381571779105" y="3" transform="rotate(180 48.37381571779105 0)" font-family="sans-serif">DESTIN…</text></g><g class="relationship" transform="translate(270.84491380935555 612.4382173908282) rotate(296.23358781558295)"><path class="outline" fill="#A5ABB6" stroke="none" d="M 25 0.5 L 62.53973741097349 0.5 L 62.53973741097349 -0.5 L 25 -0.5 Z M 97.32307023568052 0.5 L 134.862807646654 0.5 L 134.862807646654 3.5 L 141.862807646654 0 L 134.862807646654 -3.5 L 134.862807646654 -0.5 L 97.32307023568052 -0.5 Z"/><text text-anchor="middle" pointer-events="none" font-size="8px" fill="#000000" x="79.931403823327" y="3" font-family="sans-serif">ORIGIN</text></g><g class="relationship" transform="translate(270.84491380935555 612.4382173908282) rotate(398.3087515112334)"><path class="outline" fill="#A5ABB6" stroke="none" d="M 25 0.5 L 34.256752519869394 0.5 L 34.256752519869394 -0.5 L 25 -0.5 Z M 94.17342045810182 0.5 L 103.43017297797121 0.5 L 103.43017297797121 3.5 L 110.43017297797121 0 L 103.43017297797121 -3.5 L 103.43017297797121 -0.5 L 94.17342045810182 -0.5 Z"/><text text-anchor="middle" pointer-events="none" font-size="8px" fill="#000000" x="64.2150864889856" y="3" font-family="sans-serif">DESTINATION</text></g><g class="relationship" transform="translate(329.0702452928595 598.4873426962333) rotate(276.52892976160604)"><path class="outline" fill="#A5ABB6" stroke="none" d="M 25 0.5 L 47.413805470343036 0.5 L 47.413805470343036 -0.5 L 25 -0.5 Z M 82.19713829505007 0.5 L 104.6109437653931 0.5 L 104.6109437653931 3.5 L 111.6109437653931 0 L 104.6109437653931 -3.5 L 104.6109437653931 -0.5 L 82.19713829505007 -0.5 Z"/><text text-anchor="middle" pointer-events="none" font-size="8px" fill="#000000" x="64.80547188269655" y="3" font-family="sans-serif">ORIGIN</text></g><g class="relationship" transform="translate(329.0702452928595 598.4873426962333) rotate(423.8614888539493)"><path class="outline" fill="#A5ABB6" stroke="none" d="M 25 0.5 L 26.528481277377864 0.5 L 26.528481277377864 -0.5 L 25 -0.5 Z M 75.52848127737786 0.5 L 77.05696255475573 0.5 L 77.05696255475573 3.5 L 84.05696255475573 0 L 77.05696255475573 -3.5 L 77.05696255475573 -0.5 L 75.52848127737786 -0.5 Z"/><text text-anchor="middle" pointer-events="none" font-size="8px" fill="#000000" x="51.028481277377864" y="3" font-family="sans-serif">DESTINA…</text></g><g class="relationship" transform="translate(59.834467379606004 263.7791526532254) rotate(493.74449282222645)"><path class="outline" fill="#A5ABB6" stroke="none" d="M 25 0.5 L 26.563917658260202 0.5 L 26.563917658260202 -0.5 L 25 -0.5 Z M 64.11391689532076 0.5 L 65.67783455358095 0.5 L 65.67783455358095 3.5 L 72.67783455358095 0 L 65.67783455358095 -3.5 L 65.67783455358095 -0.5 L 64.11391689532076 -0.5 Z"/><text text-anchor="middle" pointer-events="none" font-size="8px" fill="#000000" x="45.338917276790475" y="3" transform="rotate(180 45.338917276790475 0)" font-family="sans-serif">DESTI…</text></g><g class="relationship" transform="translate(59.834467379606004 263.7791526532254) rotate(290.0804200816464)"><path class="outline" fill="#A5ABB6" stroke="none" d="M 25 0.5 L 42.64443867234825 0.5 L 42.64443867234825 -0.5 L 25 -0.5 Z M 77.42777149705529 0.5 L 95.07221016940353 0.5 L 95.07221016940353 3.5 L 102.07221016940353 0 L 95.07221016940353 -3.5 L 95.07221016940353 -0.5 L 77.42777149705529 -0.5 Z"/><text text-anchor="middle" pointer-events="none" font-size="8px" fill="#000000" x="60.03610508470177" y="3" font-family="sans-serif">ORIGIN</text></g><g class="relationship" transform="translate(264.80082627290955 319.74501657413725) rotate(227.37726020913715)"><path class="outline" fill="#A5ABB6" stroke="none" d="M 25 0.5 L 85.66833022849735 0.5 L 85.66833022849735 -0.5 L 25 -0.5 Z M 145.58499816672978 0.5 L 206.25332839522713 0.5 L 206.25332839522713 3.5 L 213.25332839522713 0 L 206.25332839522713 -3.5 L 206.25332839522713 -0.5 L 145.58499816672978 -0.5 Z"/><text text-anchor="middle" pointer-events="none" font-size="8px" fill="#000000" x="115.62666419761356" y="3" transform="rotate(180 115.62666419761356 0)" font-family="sans-serif">DESTINATION</text></g><g class="relationship" transform="translate(264.80082627290955 319.74501657413725) rotate(420.83876979665786)"><path class="outline" fill="#A5ABB6" stroke="none" d="M 25 0.5 L 60.996130110096274 0.5 L 60.996130110096274 -0.5 L 25 -0.5 Z M 95.7794629348033 0.5 L 131.77559304489958 0.5 L 131.77559304489958 3.5 L 138.77559304489958 0 L 131.77559304489958 -3.5 L 131.77559304489958 -0.5 L 95.7794629348033 -0.5 Z"/><text text-anchor="middle" pointer-events="none" font-size="8px" fill="#000000" x="78.38779652244979" y="3" font-family="sans-serif">ORIGIN</text></g><g class="relationship" transform="translate(99.21330565573511 -222.33747894962812) rotate(525.1130465933315)"><path class="outline" fill="#A5ABB6" stroke="none" d="M 25 0.5 L 104.7604867407805 0.5 L 104.7604867407805 -0.5 L 25 -0.5 Z M 164.67715467901292 0.5 L 244.4376414197934 0.5 L 244.4376414197934 3.5 L 251.4376414197934 0 L 244.4376414197934 -3.5 L 244.4376414197934 -0.5 L 164.67715467901292 -0.5 Z"/><text text-anchor="middle" pointer-events="none" font-size="8px" fill="#000000" x="134.7188207098967" y="3" transform="rotate(180 134.7188207098967 0)" font-family="sans-serif">DESTINATION</text></g><g class="relationship" transform="translate(99.21330565573511 -222.33747894962812) rotate(363.8626734430896)"><path class="outline" fill="#A5ABB6" stroke="none" d="M 25 0.5 L 110.21407510063514 0.5 L 110.21407510063514 -0.5 L 25 -0.5 Z M 144.99740792534217 0.5 L 230.21148302597732 0.5 L 230.21148302597732 3.5 L 237.21148302597732 0 L 230.21148302597732 -3.5 L 230.21148302597732 -0.5 L 144.99740792534217 -0.5 Z"/><text text-anchor="middle" pointer-events="none" font-size="8px" fill="#000000" x="127.60574151298866" y="3" font-family="sans-serif">ORIGIN</text></g><g class="relationship" transform="translate(264.70416034445674 -30.595804317586698) rotate(298.90729519116064)"><path class="outline" fill="#A5ABB6" stroke="none" d="M 25 0.5 L 78.53552235156116 0.5 L 78.53552235156116 -0.5 L 25 -0.5 Z M 113.31885517626819 0.5 L 166.85437752782934 0.5 L 166.85437752782934 3.5 L 173.85437752782934 0 L 166.85437752782934 -3.5 L 166.85437752782934 -0.5 L 113.31885517626819 -0.5 Z"/><text text-anchor="middle" pointer-events="none" font-size="8px" fill="#000000" x="95.92718876391467" y="3" font-family="sans-serif">ORIGIN</text></g><g class="relationship" transform="translate(264.70416034445674 -30.595804317586698) rotate(492.65229243137725)"><path class="outline" fill="#A5ABB6" stroke="none" d="M 25 0.5 L 85.53028116293407 0.5 L 85.53028116293407 -0.5 L 25 -0.5 Z M 145.4469491011665 0.5 L 205.97723026410057 0.5 L 205.97723026410057 3.5 L 212.97723026410057 0 L 205.97723026410057 -3.5 L 205.97723026410057 -0.5 L 145.4469491011665 -0.5 Z"/><text text-anchor="middle" pointer-events="none" font-size="8px" fill="#000000" x="115.48861513205028" y="3" transform="rotate(180 115.48861513205028 0)" font-family="sans-serif">DESTINATION</text></g><g class="relationship" transform="translate(215.01625219007371 -63.93917113841968) rotate(316.0153598186577)"><path class="outline" fill="#A5ABB6" stroke="none" d="M 25 0.5 L 67.86732436415154 0.5 L 67.86732436415154 -0.5 L 25 -0.5 Z M 127.78399230238396 0.5 L 170.6513166665355 0.5 L 170.6513166665355 3.5 L 177.6513166665355 0 L 170.6513166665355 -3.5 L 170.6513166665355 -0.5 L 127.78399230238396 -0.5 Z"/><text text-anchor="middle" pointer-events="none" font-size="8px" fill="#000000" x="97.82565833326775" y="3" font-family="sans-serif">DESTINATION</text></g><g class="relationship" transform="translate(215.01625219007371 -63.93917113841968) rotate(478.16274528762415)"><path class="outline" fill="#A5ABB6" stroke="none" d="M 25 0.5 L 97.28445498409269 0.5 L 97.28445498409269 -0.5 L 25 -0.5 Z M 132.06778780879972 0.5 L 204.3522427928924 0.5 L 204.3522427928924 3.5 L 211.3522427928924 0 L 204.3522427928924 -3.5 L 204.3522427928924 -0.5 L 132.06778780879972 -0.5 Z"/><text text-anchor="middle" pointer-events="none" font-size="8px" fill="#000000" x="114.6761213964462" y="3" transform="rotate(180 114.6761213964462 0)" font-family="sans-serif">ORIGIN</text></g><g class="relationship" transform="translate(-28.514846263783955 -30.636414560060988) rotate(220.87698664540733)"><path class="outline" fill="#A5ABB6" stroke="none" d="M 25 0.5 L 58.74357607519431 0.5 L 58.74357607519431 -0.5 L 25 -0.5 Z M 118.66024401342673 0.5 L 152.40382008862105 0.5 L 152.40382008862105 3.5 L 159.40382008862105 0 L 152.40382008862105 -3.5 L 152.40382008862105 -0.5 L 118.66024401342673 -0.5 Z"/><text text-anchor="middle" pointer-events="none" font-size="8px" fill="#000000" x="88.70191004431052" y="3" transform="rotate(180 88.70191004431052 0)" font-family="sans-serif">DESTINATION</text></g><g class="relationship" transform="translate(-28.514846263783955 -30.636414560060988) rotate(412.9885152958682)"><path class="outline" fill="#A5ABB6" stroke="none" d="M 25 0.5 L 88.72925413110683 0.5 L 88.72925413110683 -0.5 L 25 -0.5 Z M 123.51258695581386 0.5 L 187.2418410869207 0.5 L 187.2418410869207 3.5 L 194.2418410869207 0 L 187.2418410869207 -3.5 L 187.2418410869207 -0.5 L 123.51258695581386 -0.5 Z"/><text text-anchor="middle" pointer-events="none" font-size="8px" fill="#000000" x="106.12092054346034" y="3" font-family="sans-serif">ORIGIN</text></g><g class="relationship" transform="translate(-73.67718017169616 8.72906326245706) rotate(239.5015931927074)"><path class="outline" fill="#A5ABB6" stroke="none" d="M 25 0.5 L 59.414317748026036 0.5 L 59.414317748026036 -0.5 L 25 -0.5 Z M 119.33098568625846 0.5 L 153.7453034342845 0.5 L 153.7453034342845 3.5 L 160.7453034342845 0 L 153.7453034342845 -3.5 L 153.7453034342845 -0.5 L 119.33098568625846 -0.5 Z"/><text text-anchor="middle" pointer-events="none" font-size="8px" fill="#000000" x="89.37265171714225" y="3" transform="rotate(180 89.37265171714225 0)" font-family="sans-serif">DESTINATION</text></g><g class="relationship" transform="translate(-73.67718017169616 8.72906326245706) rotate(397.45472328959835)"><path class="outline" fill="#A5ABB6" stroke="none" d="M 25 0.5 L 90.68104765642421 0.5 L 90.68104765642421 -0.5 L 25 -0.5 Z M 125.46438048113124 0.5 L 191.14542813755546 0.5 L 191.14542813755546 3.5 L 198.14542813755546 0 L 191.14542813755546 -3.5 L 191.14542813755546 -0.5 L 125.46438048113124 -0.5 Z"/><text text-anchor="middle" pointer-events="none" font-size="8px" fill="#000000" x="108.07271406877773" y="3" font-family="sans-serif">ORIGIN</text></g><g class="relationship" transform="translate(-121.00767121543305 -268.2506850975591) rotate(471.870862095386)"><path class="outline" fill="#A5ABB6" stroke="none" d="M 25 0.5 L 42.10957500737992 0.5 L 42.10957500737992 -0.5 L 25 -0.5 Z M 76.89290783208695 0.5 L 94.00248283946686 0.5 L 94.00248283946686 3.5 L 101.00248283946686 0 L 94.00248283946686 -3.5 L 94.00248283946686 -0.5 L 76.89290783208695 -0.5 Z"/><text text-anchor="middle" pointer-events="none" font-size="8px" fill="#000000" x="59.50124141973343" y="3" transform="rotate(180 59.50124141973343 0)" font-family="sans-serif">ORIGIN</text></g><g class="relationship" transform="translate(-121.00767121543305 -268.2506850975591) rotate(355.83795751540265)"><path class="outline" fill="#A5ABB6" stroke="none" d="M 25 0.5 L 50.223760784825245 0.5 L 50.223760784825245 -0.5 L 25 -0.5 Z M 110.14042872305767 0.5 L 135.3641895078829 0.5 L 135.3641895078829 3.5 L 142.3641895078829 0 L 135.3641895078829 -3.5 L 135.3641895078829 -0.5 L 110.14042872305767 -0.5 Z"/><text text-anchor="middle" pointer-events="none" font-size="8px" fill="#000000" x="80.18209475394146" y="3" font-family="sans-serif">DESTINATION</text></g><g class="relationship" transform="translate(255.08237131036233 -167.7301590161123) rotate(208.30901320179106)"><path class="outline" fill="#A5ABB6" stroke="none" d="M 25 0.5 L 97.89898159250045 0.5 L 97.89898159250045 -0.5 L 25 -0.5 Z M 132.68231441720746 0.5 L 205.58129600970793 0.5 L 205.58129600970793 3.5 L 212.58129600970793 0 L 205.58129600970793 -3.5 L 205.58129600970793 -0.5 L 132.68231441720746 -0.5 Z"/><text text-anchor="middle" pointer-events="none" font-size="8px" fill="#000000" x="115.29064800485396" y="3" transform="rotate(180 115.29064800485396 0)" font-family="sans-serif">ORIGIN</text></g><g class="relationship" transform="translate(255.08237131036233 -167.7301590161123) rotate(412.714989292383)"><path class="outline" fill="#A5ABB6" stroke="none" d="M 25 0.5 L 93.103628691249 0.5 L 93.103628691249 -0.5 L 25 -0.5 Z M 153.02029662948144 0.5 L 221.12392532073042 0.5 L 221.12392532073042 3.5 L 228.12392532073042 0 L 221.12392532073042 -3.5 L 221.12392532073042 -0.5 L 153.02029662948144 -0.5 Z"/><text text-anchor="middle" pointer-events="none" font-size="8px" fill="#000000" x="123.06196266036521" y="3" font-family="sans-serif">DESTINATION</text></g><g class="relationship" transform="translate(384.92462735942235 576.6002470169682) rotate(250.49599789690717)"><path class="outline" fill="#A5ABB6" stroke="none" d="M 25 0.5 L 39.49220415815743 0.5 L 39.49220415815743 -0.5 L 25 -0.5 Z M 74.27553698286445 0.5 L 88.76774114102189 0.5 L 88.76774114102189 3.5 L 95.76774114102189 0 L 88.76774114102189 -3.5 L 88.76774114102189 -0.5 L 74.27553698286445 -0.5 Z"/><text text-anchor="middle" pointer-events="none" font-size="8px" fill="#000000" x="56.88387057051094" y="3" transform="rotate(180 56.88387057051094 0)" font-family="sans-serif">ORIGIN</text></g><g class="relationship" transform="translate(384.92462735942235 576.6002470169682) rotate(453.7302922284721)"><path class="outline" fill="#A5ABB6" stroke="none" d="M 25 0.5 L 26.564324767816032 0.5 L 26.564324767816032 -0.5 L 25 -0.5 Z M 86.48099270604845 0.5 L 88.04531747386449 0.5 L 88.04531747386449 3.5 L 95.04531747386449 0 L 88.04531747386449 -3.5 L 88.04531747386449 -0.5 L 86.48099270604845 -0.5 Z"/><text text-anchor="middle" pointer-events="none" font-size="8px" fill="#000000" x="56.52265873693224" y="3" transform="rotate(180 56.52265873693224 0)" font-family="sans-serif">DESTINATION</text></g><g class="relationship" transform="translate(445.30282383306445 551.1722672045922) rotate(221.2818305743582)"><path class="outline" fill="#A5ABB6" stroke="none" d="M 25 0.5 L 46.10954044092138 0.5 L 46.10954044092138 -0.5 L 25 -0.5 Z M 80.89287326562841 0.5 L 102.00241370654979 0.5 L 102.00241370654979 3.5 L 109.00241370654979 0 L 102.00241370654979 -3.5 L 102.00241370654979 -0.5 L 80.89287326562841 -0.5 Z"/><text text-anchor="middle" pointer-events="none" font-size="8px" fill="#000000" x="63.501206853274894" y="3" transform="rotate(180 63.501206853274894 0)" font-family="sans-serif">ORIGIN</text></g><g class="relationship" transform="translate(445.30282383306445 551.1722672045922) rotate(475.1526508931065)"><path class="outline" fill="#A5ABB6" stroke="none" d="M 25 0.5 L 46.75730717739002 0.5 L 46.75730717739002 -0.5 L 25 -0.5 Z M 106.67397511562244 0.5 L 128.43128229301246 0.5 L 128.43128229301246 3.5 L 135.43128229301246 0 L 128.43128229301246 -3.5 L 128.43128229301246 -0.5 L 106.67397511562244 -0.5 Z"/><text text-anchor="middle" pointer-events="none" font-size="8px" fill="#000000" x="76.71564114650623" y="3" transform="rotate(180 76.71564114650623 0)" font-family="sans-serif">DESTINATION</text></g><g class="relationship" transform="translate(205.71635255515318 310.5705286648891) rotate(238.3890858967896)"><path class="outline" fill="#A5ABB6" stroke="none" d="M 25 0.5 L 64.08381411358907 0.5 L 64.08381411358907 -0.5 L 25 -0.5 Z M 124.00048205182149 0.5 L 163.08429616541056 0.5 L 163.08429616541056 3.5 L 170.08429616541056 0 L 163.08429616541056 -3.5 L 163.08429616541056 -0.5 L 124.00048205182149 -0.5 Z"/><text text-anchor="middle" pointer-events="none" font-size="8px" fill="#000000" x="94.04214808270528" y="3" transform="rotate(180 94.04214808270528 0)" font-family="sans-serif">DESTINATION</text></g><g class="relationship" transform="translate(205.71635255515318 310.5705286648891) rotate(407.6170511862732)"><path class="outline" fill="#A5ABB6" stroke="none" d="M 25 0.5 L 82.12777366370216 0.5 L 82.12777366370216 -0.5 L 25 -0.5 Z M 116.91110648840919 0.5 L 174.03888015211135 0.5 L 174.03888015211135 3.5 L 181.03888015211135 0 L 174.03888015211135 -3.5 L 174.03888015211135 -0.5 L 116.91110648840919 -0.5 Z"/><text text-anchor="middle" pointer-events="none" font-size="8px" fill="#000000" x="99.51944007605567" y="3" font-family="sans-serif">ORIGIN</text></g><g class="relationship" transform="translate(195.1271062831376 369.40030667165826) rotate(247.83150321646065)"><path class="outline" fill="#A5ABB6" stroke="none" d="M 25 0.5 L 88.00487175864309 0.5 L 88.00487175864309 -0.5 L 25 -0.5 Z M 147.92153969687553 0.5 L 210.9264114555186 0.5 L 210.9264114555186 3.5 L 217.9264114555186 0 L 210.9264114555186 -3.5 L 210.9264114555186 -0.5 L 147.92153969687553 -0.5 Z"/><text text-anchor="middle" pointer-events="none" font-size="8px" fill="#000000" x="117.9632057277593" y="3" transform="rotate(180 117.9632057277593 0)" font-family="sans-serif">DESTINATION</text></g><g class="relationship" transform="translate(195.1271062831376 369.40030667165826) rotate(391.98864331702987)"><path class="outline" fill="#A5ABB6" stroke="none" d="M 25 0.5 L 67.2271333076895 0.5 L 67.2271333076895 -0.5 L 25 -0.5 Z M 102.01046613239653 0.5 L 144.23759944008603 0.5 L 144.23759944008603 3.5 L 151.23759944008603 0 L 144.23759944008603 -3.5 L 144.23759944008603 -0.5 L 102.01046613239653 -0.5 Z"/><text text-anchor="middle" pointer-events="none" font-size="8px" fill="#000000" x="84.61879972004301" y="3" font-family="sans-serif">ORIGIN</text></g><g class="relationship" transform="translate(508.4279728629226 -59.03603049643549) rotate(224.61677722947854)"><path class="outline" fill="#A5ABB6" stroke="none" d="M 25 0.5 L 82.78534761643688 0.5 L 82.78534761643688 -0.5 L 25 -0.5 Z M 117.56868044114391 0.5 L 175.3540280575808 0.5 L 175.3540280575808 3.5 L 182.3540280575808 0 L 175.3540280575808 -3.5 L 175.3540280575808 -0.5 L 117.56868044114391 -0.5 Z"/><text text-anchor="middle" pointer-events="none" font-size="8px" fill="#000000" x="100.1770140287904" y="3" transform="rotate(180 100.1770140287904 0)" font-family="sans-serif">ORIGIN</text></g><g class="relationship" transform="translate(508.4279728629226 -59.03603049643549) rotate(497.1719983721084)"><path class="outline" fill="#A5ABB6" stroke="none" d="M 25 0.5 L 34.72303479507961 0.5 L 34.72303479507961 -0.5 L 25 -0.5 Z M 94.63970273331203 0.5 L 104.36273752839165 0.5 L 104.36273752839165 3.5 L 111.36273752839165 0 L 104.36273752839165 -3.5 L 104.36273752839165 -0.5 L 94.63970273331203 -0.5 Z"/><text text-anchor="middle" pointer-events="none" font-size="8px" fill="#000000" x="64.68136876419582" y="3" transform="rotate(180 64.68136876419582 0)" font-family="sans-serif">DESTINATION</text></g><g class="relationship" transform="translate(451.0811997739079 -76.39841946082856) rotate(234.87046944599342)"><path class="outline" fill="#A5ABB6" stroke="none" d="M 25 0.5 L 44.96349844919108 0.5 L 44.96349844919108 -0.5 L 25 -0.5 Z M 104.8801663874235 0.5 L 124.84366483661458 0.5 L 124.84366483661458 3.5 L 131.84366483661458 0 L 124.84366483661458 -3.5 L 124.84366483661458 -0.5 L 104.8801663874235 -0.5 Z"/><text text-anchor="middle" pointer-events="none" font-size="8px" fill="#000000" x="74.92183241830729" y="3" transform="rotate(180 74.92183241830729 0)" font-family="sans-serif">DESTINATION</text></g><g class="relationship" transform="translate(451.0811997739079 -76.39841946082856) rotate(471.1869701732422)"><path class="outline" fill="#A5ABB6" stroke="none" d="M 25 0.5 L 38.12862651076127 0.5 L 38.12862651076127 -0.5 L 25 -0.5 Z M 72.91195933546831 0.5 L 86.04058584622958 0.5 L 86.04058584622958 3.5 L 93.04058584622958 0 L 86.04058584622958 -3.5 L 86.04058584622958 -0.5 L 72.91195933546831 -0.5 Z"/><text text-anchor="middle" pointer-events="none" font-size="8px" fill="#000000" x="55.52029292311479" y="3" transform="rotate(180 55.52029292311479 0)" font-family="sans-serif">ORIGIN</text></g><g class="relationship" transform="translate(393.7048851308828 -93.87770551765564) rotate(253.4731301374277)"><path class="outline" fill="#A5ABB6" stroke="none" d="M 25 0.5 L 26.468553217623914 0.5 L 26.468553217623914 -0.5 L 25 -0.5 Z M 82.1018883311493 0.5 L 83.57044154877322 0.5 L 83.57044154877322 3.5 L 90.57044154877322 0 L 83.57044154877322 -3.5 L 83.57044154877322 -0.5 L 82.1018883311493 -0.5 Z"/><text text-anchor="middle" pointer-events="none" font-size="8px" fill="#000000" x="54.28522077438661" y="3" transform="rotate(180 54.28522077438661 0)" font-family="sans-serif">DESTINATI…</text></g><g class="relationship" transform="translate(393.7048851308828 -93.87770551765564) rotate(443.41863465195013)"><path class="outline" fill="#A5ABB6" stroke="none" d="M 25 0.5 L 43.30188216848289 0.5 L 43.30188216848289 -0.5 L 25 -0.5 Z M 78.08521499318992 0.5 L 96.38709716167281 0.5 L 96.38709716167281 3.5 L 103.38709716167281 0 L 96.38709716167281 -3.5 L 96.38709716167281 -0.5 L 78.08521499318992 -0.5 Z"/><text text-anchor="middle" pointer-events="none" font-size="8px" fill="#000000" x="60.693548580836406" y="3" font-family="sans-serif">ORIGIN</text></g><g class="relationship" transform="translate(-72.02621186470452 -302.80070040064226) rotate(482.34198729235095)"><path class="outline" fill="#A5ABB6" stroke="none" d="M 25 0.5 L 68.75737317891503 0.5 L 68.75737317891503 -0.5 L 25 -0.5 Z M 103.54070600362206 0.5 L 147.2980791825371 0.5 L 147.2980791825371 3.5 L 154.2980791825371 0 L 147.2980791825371 -3.5 L 147.2980791825371 -0.5 L 103.54070600362206 -0.5 Z"/><text text-anchor="middle" pointer-events="none" font-size="8px" fill="#000000" x="86.14903959126855" y="3" transform="rotate(180 86.14903959126855 0)" font-family="sans-serif">ORIGIN</text></g><g class="relationship" transform="translate(-72.02621186470452 -302.80070040064226) rotate(370.75528866816563)"><path class="outline" fill="#A5ABB6" stroke="none" d="M 25 0.5 L 26.566793626165804 0.5 L 26.566793626165804 -0.5 L 25 -0.5 Z M 86.48346156439823 0.5 L 88.05025519056403 0.5 L 88.05025519056403 3.5 L 95.05025519056403 0 L 88.05025519056403 -3.5 L 88.05025519056403 -0.5 L 86.48346156439823 -0.5 Z"/><text text-anchor="middle" pointer-events="none" font-size="8px" fill="#000000" x="56.525127595282015" y="3" font-family="sans-serif">DESTINATION</text></g><g class="relationship" transform="translate(-126.36178025141035 -327.8747942468031) rotate(463.2530761899361)"><path class="outline" fill="#A5ABB6" stroke="none" d="M 25 0.5 L 69.80263242014699 0.5 L 69.80263242014699 -0.5 L 25 -0.5 Z M 104.58596524485402 0.5 L 149.38859766500102 0.5 L 149.38859766500102 3.5 L 156.38859766500102 0 L 149.38859766500102 -3.5 L 149.38859766500102 -0.5 L 104.58596524485402 -0.5 Z"/><text text-anchor="middle" pointer-events="none" font-size="8px" fill="#000000" x="87.19429883250051" y="3" transform="rotate(180 87.19429883250051 0)" font-family="sans-serif">ORIGIN</text></g><g class="relationship" transform="translate(-126.36178025141035 -327.8747942468031) rotate(375.4075017127372)"><path class="outline" fill="#A5ABB6" stroke="none" d="M 25 0.5 L 55.8912967184564 0.5 L 55.8912967184564 -0.5 L 25 -0.5 Z M 115.80796465668882 0.5 L 146.69926137514523 0.5 L 146.69926137514523 3.5 L 153.69926137514523 0 L 146.69926137514523 -3.5 L 146.69926137514523 -0.5 L 115.80796465668882 -0.5 Z"/><text text-anchor="middle" pointer-events="none" font-size="8px" fill="#000000" x="85.84963068757261" y="3" font-family="sans-serif">DESTINATION</text></g><g class="relationship" transform="translate(-66.59308735529935 -243.07277300577564) rotate(497.8450783774878)"><path class="outline" fill="#A5ABB6" stroke="none" d="M 25 0.5 L 47.46663527908163 0.5 L 47.46663527908163 -0.5 L 25 -0.5 Z M 82.24996810378866 0.5 L 104.71660338287029 0.5 L 104.71660338287029 3.5 L 111.71660338287029 0 L 104.71660338287029 -3.5 L 104.71660338287029 -0.5 L 82.24996810378866 -0.5 Z"/><text text-anchor="middle" pointer-events="none" font-size="8px" fill="#000000" x="64.85830169143514" y="3" transform="rotate(180 64.85830169143514 0)" font-family="sans-serif">ORIGIN</text></g><g class="relationship" transform="translate(-66.59308735529935 -243.07277300577564) rotate(341.6466549051347)"><path class="outline" fill="#A5ABB6" stroke="none" d="M 25 0.5 L 25.81063135032101 0.5 L 25.81063135032101 -0.5 L 25 -0.5 Z M 85.72729928855344 0.5 L 86.53793063887444 0.5 L 86.53793063887444 3.5 L 93.53793063887444 0 L 86.53793063887444 -3.5 L 86.53793063887444 -0.5 L 85.72729928855344 -0.5 Z"/><text text-anchor="middle" pointer-events="none" font-size="8px" fill="#000000" x="55.76896531943722" y="3" font-family="sans-serif">DESTINATION</text></g><g class="relationship" transform="translate(94.82606229912624 312.4455181173699) rotate(527.9435601657912)"><path class="outline" fill="#A5ABB6" stroke="none" d="M 25 0.5 L 27.154784372254852 0.5 L 27.154784372254852 -0.5 L 25 -0.5 Z M 70.68811719696188 0.5 L 72.84290156921674 0.5 L 72.84290156921674 3.5 L 79.84290156921674 0 L 72.84290156921674 -3.5 L 72.84290156921674 -0.5 L 70.68811719696188 -0.5 Z"/><text text-anchor="middle" pointer-events="none" font-size="8px" fill="#000000" x="48.92145078460837" y="3" transform="rotate(180 48.92145078460837 0)" font-family="sans-serif">DESTIN…</text></g><g class="relationship" transform="translate(94.82606229912624 312.4455181173699) rotate(272.9428546086837)"><path class="outline" fill="#A5ABB6" stroke="none" d="M 25 0.5 L 63.22629730392312 0.5 L 63.22629730392312 -0.5 L 25 -0.5 Z M 98.00963012863015 0.5 L 136.23592743255327 0.5 L 136.23592743255327 3.5 L 143.23592743255327 0 L 136.23592743255327 -3.5 L 136.23592743255327 -0.5 L 98.00963012863015 -0.5 Z"/><text text-anchor="middle" pointer-events="none" font-size="8px" fill="#000000" x="80.61796371627663" y="3" font-family="sans-serif">ORIGIN</text></g><g class="relationship" transform="translate(-253.32041860468297 52.44028362231693) rotate(292.7337954909533)"><path class="outline" fill="#A5ABB6" stroke="none" d="M 25 0.5 L 89.56866911943558 0.5 L 89.56866911943558 -0.5 L 25 -0.5 Z M 124.35200194414261 0.5 L 188.9206710635782 0.5 L 188.9206710635782 3.5 L 195.9206710635782 0 L 188.9206710635782 -3.5 L 188.9206710635782 -0.5 L 124.35200194414261 -0.5 Z"/><text text-anchor="middle" pointer-events="none" font-size="8px" fill="#000000" x="106.9603355317891" y="3" font-family="sans-serif">ORIGIN</text></g><g class="relationship" transform="translate(-253.32041860468297 52.44028362231693) rotate(439.26347132120566)"><path class="outline" fill="#A5ABB6" stroke="none" d="M 25 0.5 L 79.43058828301463 0.5 L 79.43058828301463 -0.5 L 25 -0.5 Z M 139.34725622124705 0.5 L 193.77784450426168 0.5 L 193.77784450426168 3.5 L 200.77784450426168 0 L 193.77784450426168 -3.5 L 193.77784450426168 -0.5 L 139.34725622124705 -0.5 Z"/><text text-anchor="middle" pointer-events="none" font-size="8px" fill="#000000" x="109.38892225213084" y="3" font-family="sans-serif">DESTINATION</text></g><g class="relationship" transform="translate(-79.90406425310769 278.9827316256974) rotate(182.05662643575397)"><path class="outline" fill="#A5ABB6" stroke="none" d="M 25 0.5 L 44.82842424327822 0.5 L 44.82842424327822 -0.5 L 25 -0.5 Z M 79.61175706798525 0.5 L 99.44018131126347 0.5 L 99.44018131126347 3.5 L 106.44018131126347 0 L 99.44018131126347 -3.5 L 99.44018131126347 -0.5 L 79.61175706798525 -0.5 Z"/><text text-anchor="middle" pointer-events="none" font-size="8px" fill="#000000" x="62.220090655631736" y="3" transform="rotate(180 62.220090655631736 0)" font-family="sans-serif">ORIGIN</text></g><g class="relationship" transform="translate(-79.90406425310769 278.9827316256974) rotate(323.7295262871352)"><path class="outline" fill="#A5ABB6" stroke="none" d="M 25 0.5 L 80.26021097123879 0.5 L 80.26021097123879 -0.5 L 25 -0.5 Z M 140.1768789094712 0.5 L 195.43708988071 0.5 L 195.43708988071 3.5 L 202.43708988071 0 L 195.43708988071 -3.5 L 195.43708988071 -0.5 L 140.1768789094712 -0.5 Z"/><text text-anchor="middle" pointer-events="none" font-size="8px" fill="#000000" x="110.218544940355" y="3" font-family="sans-serif">DESTINATION</text></g><g class="relationship" transform="translate(481.17268025269624 -175.6056194736167) rotate(193.57918922140868)"><path class="outline" fill="#A5ABB6" stroke="none" d="M 25 0.5 L 41.01049386949183 0.5 L 41.01049386949183 -0.5 L 25 -0.5 Z M 75.79382669419886 0.5 L 91.8043205636907 0.5 L 91.8043205636907 3.5 L 98.8043205636907 0 L 91.8043205636907 -3.5 L 91.8043205636907 -0.5 L 75.79382669419886 -0.5 Z"/><text text-anchor="middle" pointer-events="none" font-size="8px" fill="#000000" x="58.40216028184535" y="3" transform="rotate(180 58.40216028184535 0)" font-family="sans-serif">ORIGIN</text></g><g class="relationship" transform="translate(481.17268025269624 -175.6056194736167) rotate(469.17012385462755)"><path class="outline" fill="#A5ABB6" stroke="none" d="M 25 0.5 L 77.31899720714148 0.5 L 77.31899720714148 -0.5 L 25 -0.5 Z M 137.2356651453739 0.5 L 189.55466235251538 0.5 L 189.55466235251538 3.5 L 196.55466235251538 0 L 189.55466235251538 -3.5 L 189.55466235251538 -0.5 L 137.2356651453739 -0.5 Z"/><text text-anchor="middle" pointer-events="none" font-size="8px" fill="#000000" x="107.27733117625769" y="3" transform="rotate(180 107.27733117625769 0)" font-family="sans-serif">DESTINATION</text></g><g class="relationship" transform="translate(437.488369141167 -134.6767239951023) rotate(222.39890098050398)"><path class="outline" fill="#A5ABB6" stroke="none" d="M 25 0.5 L 26.637544435739372 0.5 L 26.637544435739372 -0.5 L 25 -0.5 Z M 70.1708772604464 0.5 L 71.80842169618577 0.5 L 71.80842169618577 3.5 L 78.80842169618577 0 L 71.80842169618577 -3.5 L 71.80842169618577 -0.5 L 70.1708772604464 -0.5 Z"/><text text-anchor="middle" pointer-events="none" font-size="8px" fill="#000000" x="48.40421084809289" y="3" transform="rotate(180 48.40421084809289 0)" font-family="sans-serif">DESTIN…</text></g><g class="relationship" transform="translate(437.488369141167 -134.6767239951023) rotate(459.7970718608924)"><path class="outline" fill="#A5ABB6" stroke="none" d="M 25 0.5 L 64.52401338303956 0.5 L 64.52401338303956 -0.5 L 25 -0.5 Z M 99.30734620774659 0.5 L 138.83135959078615 0.5 L 138.83135959078615 3.5 L 145.83135959078615 0 L 138.83135959078615 -3.5 L 138.83135959078615 -0.5 L 99.30734620774659 -0.5 Z"/><text text-anchor="middle" pointer-events="none" font-size="8px" fill="#000000" x="81.91567979539307" y="3" transform="rotate(180 81.91567979539307 0)" font-family="sans-serif">ORIGIN</text></g><g class="relationship" transform="translate(494.8403567095986 -117.32914023174203) rotate(213.0950697301015)"><path class="outline" fill="#A5ABB6" stroke="none" d="M 25 0.5 L 46.52298585827994 0.5 L 46.52298585827994 -0.5 L 25 -0.5 Z M 106.43965379651236 0.5 L 127.9626396547923 0.5 L 127.9626396547923 3.5 L 134.9626396547923 0 L 127.9626396547923 -3.5 L 127.9626396547923 -0.5 L 106.43965379651236 -0.5 Z"/><text text-anchor="middle" pointer-events="none" font-size="8px" fill="#000000" x="76.48131982739615" y="3" transform="rotate(180 76.48131982739615 0)" font-family="sans-serif">DESTINATION</text></g><g class="relationship" transform="translate(494.8403567095986 -117.32914023174203) rotate(479.7846533599219)"><path class="outline" fill="#A5ABB6" stroke="none" d="M 25 0.5 L 66.09573288404484 0.5 L 66.09573288404484 -0.5 L 25 -0.5 Z M 100.87906570875187 0.5 L 141.9747985927967 0.5 L 141.9747985927967 3.5 L 148.9747985927967 0 L 141.9747985927967 -3.5 L 141.9747985927967 -0.5 L 100.87906570875187 -0.5 Z"/><text text-anchor="middle" pointer-events="none" font-size="8px" fill="#000000" x="83.48739929639835" y="3" transform="rotate(180 83.48739929639835 0)" font-family="sans-serif">ORIGIN</text></g><g class="relationship" transform="translate(44.667880392108145 -73.31913984224794) rotate(270.3450960517172)"><path class="outline" fill="#A5ABB6" stroke="none" d="M 25 0.5 L 70.08275202115169 0.5 L 70.08275202115169 -0.5 L 25 -0.5 Z M 129.9994199593841 0.5 L 175.0821719805358 0.5 L 175.0821719805358 3.5 L 182.0821719805358 0 L 175.0821719805358 -3.5 L 175.0821719805358 -0.5 L 129.9994199593841 -0.5 Z"/><text text-anchor="middle" pointer-events="none" font-size="8px" fill="#000000" x="100.0410859902679" y="3" font-family="sans-serif">DESTINATION</text></g><g class="relationship" transform="translate(44.667880392108145 -73.31913984224794) rotate(434.88975267020066)"><path class="outline" fill="#A5ABB6" stroke="none" d="M 25 0.5 L 91.8826883409355 0.5 L 91.8826883409355 -0.5 L 25 -0.5 Z M 126.66602116564253 0.5 L 193.54870950657804 0.5 L 193.54870950657804 3.5 L 200.54870950657804 0 L 193.54870950657804 -3.5 L 193.54870950657804 -0.5 L 126.66602116564253 -0.5 Z"/><text text-anchor="middle" pointer-events="none" font-size="8px" fill="#000000" x="109.27435475328902" y="3" font-family="sans-serif">ORIGIN</text></g><g class="relationship" transform="translate(102.6531346947043 -87.94055582957913) rotate(253.57402583601834)"><path class="outline" fill="#A5ABB6" stroke="none" d="M 25 0.5 L 66.86476485307954 0.5 L 66.86476485307954 -0.5 L 25 -0.5 Z M 126.78143279131196 0.5 L 168.6461976443915 0.5 L 168.6461976443915 3.5 L 175.6461976443915 0 L 168.6461976443915 -3.5 L 168.6461976443915 -0.5 L 126.78143279131196 -0.5 Z"/><text text-anchor="middle" pointer-events="none" font-size="8px" fill="#000000" x="96.82309882219575" y="3" transform="rotate(180 96.82309882219575 0)" font-family="sans-serif">DESTINATION</text></g><g class="relationship" transform="translate(102.6531346947043 -87.94055582957913) rotate(449.8002435156876)"><path class="outline" fill="#A5ABB6" stroke="none" d="M 25 0.5 L 95.29504466023258 0.5 L 95.29504466023258 -0.5 L 25 -0.5 Z M 130.0783774849396 0.5 L 200.37342214517219 0.5 L 200.37342214517219 3.5 L 207.37342214517219 0 L 200.37342214517219 -3.5 L 200.37342214517219 -0.5 L 130.0783774849396 -0.5 Z"/><text text-anchor="middle" pointer-events="none" font-size="8px" fill="#000000" x="112.68671107258609" y="3" font-family="sans-serif">ORIGIN</text></g><g class="relationship" transform="translate(-55.2119404728223 224.30765688189112) rotate(522.2477311021433)"><path class="outline" fill="#A5ABB6" stroke="none" d="M 25 0.5 L 48.46643711103789 0.5 L 48.46643711103789 -0.5 L 25 -0.5 Z M 108.38310504927031 0.5 L 131.8495421603082 0.5 L 131.8495421603082 3.5 L 138.8495421603082 0 L 131.8495421603082 -3.5 L 131.8495421603082 -0.5 L 108.38310504927031 -0.5 Z"/><text text-anchor="middle" pointer-events="none" font-size="8px" fill="#000000" x="78.4247710801541" y="3" transform="rotate(180 78.4247710801541 0)" font-family="sans-serif">DESTINATION</text></g><g class="relationship" transform="translate(-55.2119404728223 224.30765688189112) rotate(333.2795767805753)"><path class="outline" fill="#A5ABB6" stroke="none" d="M 25 0.5 L 67.93123872251465 0.5 L 67.93123872251465 -0.5 L 25 -0.5 Z M 102.71457154722168 0.5 L 145.64581026973633 0.5 L 145.64581026973633 3.5 L 152.64581026973633 0 L 145.64581026973633 -3.5 L 145.64581026973633 -0.5 L 102.71457154722168 -0.5 Z"/><text text-anchor="middle" pointer-events="none" font-size="8px" fill="#000000" x="85.32290513486817" y="3" font-family="sans-serif">ORIGIN</text></g><g class="relationship" transform="translate(-20.3981760977073 273.0217835613892) rotate(539.6265832157144)"><path class="outline" fill="#A5ABB6" stroke="none" d="M 25 0.5 L 61.974393767604994 0.5 L 61.974393767604994 -0.5 L 25 -0.5 Z M 121.89106170583742 0.5 L 158.8654554734424 0.5 L 158.8654554734424 3.5 L 165.8654554734424 0 L 158.8654554734424 -3.5 L 158.8654554734424 -0.5 L 121.89106170583742 -0.5 Z"/><text text-anchor="middle" pointer-events="none" font-size="8px" fill="#000000" x="91.9327277367212" y="3" transform="rotate(180 91.9327277367212 0)" font-family="sans-serif">DESTINATION</text></g><g class="relationship" transform="translate(-20.3981760977073 273.0217835613892) rotate(313.92687348083973)"><path class="outline" fill="#A5ABB6" stroke="none" d="M 25 0.5 L 68.3791764855428 0.5 L 68.3791764855428 -0.5 L 25 -0.5 Z M 103.16250931024983 0.5 L 146.54168579579263 0.5 L 146.54168579579263 3.5 L 153.54168579579263 0 L 146.54168579579263 -3.5 L 146.54168579579263 -0.5 L 103.16250931024983 -0.5 Z"/><text text-anchor="middle" pointer-events="none" font-size="8px" fill="#000000" x="85.77084289789632" y="3" font-family="sans-serif">ORIGIN</text></g><g class="relationship" transform="translate(-275.8057182934096 -100.09242999719447) rotate(334.59612191091367)"><path class="outline" fill="#A5ABB6" stroke="none" d="M 25 0.5 L 38.8112971166897 0.5 L 38.8112971166897 -0.5 L 25 -0.5 Z M 73.59462994139673 0.5 L 87.40592705808643 0.5 L 87.40592705808643 3.5 L 94.40592705808643 0 L 87.40592705808643 -3.5 L 87.40592705808643 -0.5 L 73.59462994139673 -0.5 Z"/><text text-anchor="middle" pointer-events="none" font-size="8px" fill="#000000" x="56.20296352904322" y="3" font-family="sans-serif">ORIGIN</text></g><g class="relationship" transform="translate(-275.8057182934096 -100.09242999719447) rotate(365.9849514210731)"><path class="outline" fill="#A5ABB6" stroke="none" d="M 25 0.5 L 38.185093803733736 0.5 L 38.185093803733736 -0.5 L 25 -0.5 Z M 98.10176174196616 0.5 L 111.2868555456999 0.5 L 111.2868555456999 3.5 L 118.2868555456999 0 L 111.2868555456999 -3.5 L 111.2868555456999 -0.5 L 98.10176174196616 -0.5 Z"/><text text-anchor="middle" pointer-events="none" font-size="8px" fill="#000000" x="68.14342777284995" y="3" font-family="sans-serif">DESTINATION</text></g><g class="relationship" transform="translate(-46.709889897516284 68.89656877919961) rotate(240.65990980907122)"><path class="outline" fill="#A5ABB6" stroke="none" d="M 25 0.5 L 54.90014103131351 0.5 L 54.90014103131351 -0.5 L 25 -0.5 Z M 114.81680896954593 0.5 L 144.71695000085944 0.5 L 144.71695000085944 3.5 L 151.71695000085944 0 L 144.71695000085944 -3.5 L 144.71695000085944 -0.5 L 114.81680896954593 -0.5 Z"/><text text-anchor="middle" pointer-events="none" font-size="8px" fill="#000000" x="84.85847500042972" y="3" transform="rotate(180 84.85847500042972 0)" font-family="sans-serif">DESTINATION</text></g><g class="relationship" transform="translate(-46.709889897516284 68.89656877919961) rotate(386.70171998598937)"><path class="outline" fill="#A5ABB6" stroke="none" d="M 25 0.5 L 63.15817053051252 0.5 L 63.15817053051252 -0.5 L 25 -0.5 Z M 97.94150335521955 0.5 L 136.09967388573207 0.5 L 136.09967388573207 3.5 L 143.09967388573207 0 L 136.09967388573207 -3.5 L 136.09967388573207 -0.5 L 97.94150335521955 -0.5 Z"/><text text-anchor="middle" pointer-events="none" font-size="8px" fill="#000000" x="80.54983694286604" y="3" font-family="sans-serif">ORIGIN</text></g><g class="relationship" transform="translate(-1.008830997043209 30.10042849734332) rotate(221.0625708490362)"><path class="outline" fill="#A5ABB6" stroke="none" d="M 25 0.5 L 66.83534245424138 0.5 L 66.83534245424138 -0.5 L 25 -0.5 Z M 101.61867527894842 0.5 L 143.4540177331898 0.5 L 143.4540177331898 3.5 L 150.4540177331898 0 L 143.4540177331898 -3.5 L 143.4540177331898 -0.5 L 101.61867527894842 -0.5 Z"/><text text-anchor="middle" pointer-events="none" font-size="8px" fill="#000000" x="84.2270088665949" y="3" transform="rotate(180 84.2270088665949 0)" font-family="sans-serif">ORIGIN</text></g><g class="relationship" transform="translate(-1.008830997043209 30.10042849734332) rotate(407.5799094472974)"><path class="outline" fill="#A5ABB6" stroke="none" d="M 25 0.5 L 43.97874651695655 0.5 L 43.97874651695655 -0.5 L 25 -0.5 Z M 103.89541445518897 0.5 L 122.87416097214552 0.5 L 122.87416097214552 3.5 L 129.87416097214552 0 L 122.87416097214552 -3.5 L 122.87416097214552 -0.5 L 103.89541445518897 -0.5 Z"/><text text-anchor="middle" pointer-events="none" font-size="8px" fill="#000000" x="73.93708048607276" y="3" font-family="sans-serif">DESTINATION</text></g><g class="relationship" transform="translate(231.48566545301222 89.27808810718271) rotate(516.6931230375603)"><path class="outline" fill="#A5ABB6" stroke="none" d="M 25 0.5 L 36.24034700774369 0.5 L 36.24034700774369 -0.5 L 25 -0.5 Z M 96.15701494597612 0.5 L 107.39736195371981 0.5 L 107.39736195371981 3.5 L 114.39736195371981 0 L 107.39736195371981 -3.5 L 107.39736195371981 -0.5 L 96.15701494597612 -0.5 Z"/><text text-anchor="middle" pointer-events="none" font-size="8px" fill="#000000" x="66.1986809768599" y="3" transform="rotate(180 66.1986809768599 0)" font-family="sans-serif">DESTINATION</text></g><g class="relationship" transform="translate(231.48566545301222 89.27808810718271) rotate(342.5507874856021)"><path class="outline" fill="#A5ABB6" stroke="none" d="M 25 0.5 L 71.8427762175754 0.5 L 71.8427762175754 -0.5 L 25 -0.5 Z M 106.62610904228244 0.5 L 153.46888525985784 0.5 L 153.46888525985784 3.5 L 160.46888525985784 0 L 153.46888525985784 -3.5 L 153.46888525985784 -0.5 L 106.62610904228244 -0.5 Z"/><text text-anchor="middle" pointer-events="none" font-size="8px" fill="#000000" x="89.23444262992892" y="3" font-family="sans-serif">ORIGIN</text></g><g class="relationship" transform="translate(327.1744297123719 129.3527276016561) rotate(536.1439444988146)"><path class="outline" fill="#A5ABB6" stroke="none" d="M 25 0.5 L 78.65103867605517 0.5 L 78.65103867605517 -0.5 L 25 -0.5 Z M 138.5677066142876 0.5 L 192.21874529034275 0.5 L 192.21874529034275 3.5 L 199.21874529034275 0 L 192.21874529034275 -3.5 L 192.21874529034275 -0.5 L 138.5677066142876 -0.5 Z"/><text text-anchor="middle" pointer-events="none" font-size="8px" fill="#000000" x="108.60937264517138" y="3" transform="rotate(180 108.60937264517138 0)" font-family="sans-serif">DESTINATION</text></g><g class="relationship" transform="translate(327.1744297123719 129.3527276016561) rotate(310.33304066704267)"><path class="outline" fill="#A5ABB6" stroke="none" d="M 25 0.5 L 41.87233386836265 0.5 L 41.87233386836265 -0.5 L 25 -0.5 Z M 76.65566669306969 0.5 L 93.52800056143234 0.5 L 93.52800056143234 3.5 L 100.52800056143234 0 L 93.52800056143234 -3.5 L 93.52800056143234 -0.5 L 76.65566669306969 -0.5 Z"/><text text-anchor="middle" pointer-events="none" font-size="8px" fill="#000000" x="59.26400028071617" y="3" font-family="sans-serif">ORIGIN</text></g><g class="relationship" transform="translate(254.69859057763495 34.09274334357251) rotate(503.8861452295844)"><path class="outline" fill="#A5ABB6" stroke="none" d="M 25 0.5 L 60.145551816120744 0.5 L 60.145551816120744 -0.5 L 25 -0.5 Z M 120.06221975435317 0.5 L 155.2077715704739 0.5 L 155.2077715704739 3.5 L 162.2077715704739 0 L 155.2077715704739 -3.5 L 155.2077715704739 -0.5 L 120.06221975435317 -0.5 Z"/><text text-anchor="middle" pointer-events="none" font-size="8px" fill="#000000" x="90.10388578523695" y="3" transform="rotate(180 90.10388578523695 0)" font-family="sans-serif">DESTINATION</text></g><g class="relationship" transform="translate(254.69859057763495 34.09274334357251) rotate(359.8399483240719)"><path class="outline" fill="#A5ABB6" stroke="none" d="M 25 0.5 L 55.96926421919359 0.5 L 55.96926421919359 -0.5 L 25 -0.5 Z M 90.75259704390062 0.5 L 121.72186126309421 0.5 L 121.72186126309421 3.5 L 128.7218612630942 0 L 121.72186126309421 -3.5 L 121.72186126309421 -0.5 L 90.75259704390062 -0.5 Z"/><text text-anchor="middle" pointer-events="none" font-size="8px" fill="#000000" x="73.3609306315471" y="3" font-family="sans-serif">ORIGIN</text></g><g class="relationship" transform="translate(290.85204772829525 81.74438387321577) rotate(521.5033915609326)"><path class="outline" fill="#A5ABB6" stroke="none" d="M 25 0.5 L 65.33971561302376 0.5 L 65.33971561302376 -0.5 L 25 -0.5 Z M 125.25638355125618 0.5 L 165.59609916427993 0.5 L 165.59609916427993 3.5 L 172.59609916427993 0 L 165.59609916427993 -3.5 L 165.59609916427993 -0.5 L 125.25638355125618 -0.5 Z"/><text text-anchor="middle" pointer-events="none" font-size="8px" fill="#000000" x="95.29804958213997" y="3" transform="rotate(180 95.29804958213997 0)" font-family="sans-serif">DESTINATION</text></g><g class="relationship" transform="translate(290.85204772829525 81.74438387321577) rotate(337.7571840329447)"><path class="outline" fill="#A5ABB6" stroke="none" d="M 25 0.5 L 42.61812828048616 0.5 L 42.61812828048616 -0.5 L 25 -0.5 Z M 77.40146110519319 0.5 L 95.01958938567935 0.5 L 95.01958938567935 3.5 L 102.01958938567935 0 L 95.01958938567935 -3.5 L 95.01958938567935 -0.5 L 77.40146110519319 -0.5 Z"/><text text-anchor="middle" pointer-events="none" font-size="8px" fill="#000000" x="60.00979469283968" y="3" font-family="sans-serif">ORIGIN</text></g><g class="relationship" transform="translate(267.7057544917138 136.92808828282693) rotate(537.3842790471956)"><path class="outline" fill="#A5ABB6" stroke="none" d="M 25 0.5 L 48.7485549892849 0.5 L 48.7485549892849 -0.5 L 25 -0.5 Z M 108.66522292751732 0.5 L 132.41377791680222 0.5 L 132.41377791680222 3.5 L 139.41377791680222 0 L 132.41377791680222 -3.5 L 132.41377791680222 -0.5 L 108.66522292751732 -0.5 Z"/><text text-anchor="middle" pointer-events="none" font-size="8px" fill="#000000" x="78.70688895840111" y="3" transform="rotate(180 78.70688895840111 0)" font-family="sans-serif">DESTINATION</text></g><g class="relationship" transform="translate(267.7057544917138 136.92808828282693) rotate(323.7264627574528)"><path class="outline" fill="#A5ABB6" stroke="none" d="M 25 0.5 L 66.37812643680657 0.5 L 66.37812643680657 -0.5 L 25 -0.5 Z M 101.1614592615136 0.5 L 142.53958569832017 0.5 L 142.53958569832017 3.5 L 149.53958569832017 0 L 142.53958569832017 -3.5 L 142.53958569832017 -0.5 L 101.1614592615136 -0.5 Z"/><text text-anchor="middle" pointer-events="none" font-size="8px" fill="#000000" x="83.76979284916008" y="3" font-family="sans-serif">ORIGIN</text></g><g class="relationship" transform="translate(304.1381139345628 184.51035682438288) rotate(191.29454025061642)"><path class="outline" fill="#A5ABB6" stroke="none" d="M 25 0.5 L 81.42732833147168 0.5 L 81.42732833147168 -0.5 L 25 -0.5 Z M 116.21066115617872 0.5 L 172.6379894876504 0.5 L 172.6379894876504 3.5 L 179.6379894876504 0 L 172.6379894876504 -3.5 L 172.6379894876504 -0.5 L 116.21066115617872 -0.5 Z"/><text text-anchor="middle" pointer-events="none" font-size="8px" fill="#000000" x="98.8189947438252" y="3" transform="rotate(180 98.8189947438252 0)" font-family="sans-serif">ORIGIN</text></g><g class="relationship" transform="translate(304.1381139345628 184.51035682438288) rotate(304.65641119094187)"><path class="outline" fill="#A5ABB6" stroke="none" d="M 25 0.5 L 58.23341259894383 0.5 L 58.23341259894383 -0.5 L 25 -0.5 Z M 118.15008053717625 0.5 L 151.38349313612008 0.5 L 151.38349313612008 3.5 L 158.38349313612008 0 L 151.38349313612008 -3.5 L 151.38349313612008 -0.5 L 118.15008053717625 -0.5 Z"/><text text-anchor="middle" pointer-events="none" font-size="8px" fill="#000000" x="88.19174656806004" y="3" font-family="sans-serif">DESTINATION</text></g><g class="relationship" transform="translate(-250.8593159661793 -210.64327677518742) rotate(395.58435234318875)"><path class="outline" fill="#A5ABB6" stroke="none" d="M 25 0.5 L 30.084496423516576 0.5 L 30.084496423516576 -0.5 L 25 -0.5 Z M 64.86782924822361 0.5 L 69.95232567174018 0.5 L 69.95232567174018 3.5 L 76.95232567174018 0 L 69.95232567174018 -3.5 L 69.95232567174018 -0.5 L 64.86782924822361 -0.5 Z"/><text text-anchor="middle" pointer-events="none" font-size="8px" fill="#000000" x="47.47616283587009" y="3" font-family="sans-serif">ORIGIN</text></g><g class="relationship" transform="translate(-250.8593159661793 -210.64327677518742) rotate(406.86908577156333)"><path class="outline" fill="#A5ABB6" stroke="none" d="M 25 0.5 L 52.51870763245719 0.5 L 52.51870763245719 -0.5 L 25 -0.5 Z M 112.43537557068962 0.5 L 139.9540832031468 0.5 L 139.9540832031468 3.5 L 146.9540832031468 0 L 139.9540832031468 -3.5 L 139.9540832031468 -0.5 L 112.43537557068962 -0.5 Z"/><text text-anchor="middle" pointer-events="none" font-size="8px" fill="#000000" x="82.4770416015734" y="3" font-family="sans-serif">DESTINATION</text></g><g class="relationship" transform="translate(-282.5180982105938 -159.67292260223124) rotate(364.1712074575524)"><path class="outline" fill="#A5ABB6" stroke="none" d="M 25 0.5 L 26.12172837782093 0.5 L 26.12172837782093 -0.5 L 25 -0.5 Z M 81.75506349134632 0.5 L 82.87679186916725 0.5 L 82.87679186916725 3.5 L 89.87679186916725 0 L 82.87679186916725 -3.5 L 82.87679186916725 -0.5 L 81.75506349134632 -0.5 Z"/><text text-anchor="middle" pointer-events="none" font-size="8px" fill="#000000" x="53.938395934583625" y="3" font-family="sans-serif">DESTINATI…</text></g><g class="relationship" transform="translate(-282.5180982105938 -159.67292260223124) rotate(386.5378616421914)"><path class="outline" fill="#A5ABB6" stroke="none" d="M 25 0.5 L 62.50407845423888 0.5 L 62.50407845423888 -0.5 L 25 -0.5 Z M 97.28741127894591 0.5 L 134.7914897331848 0.5 L 134.7914897331848 3.5 L 141.7914897331848 0 L 134.7914897331848 -3.5 L 134.7914897331848 -0.5 L 97.28741127894591 -0.5 Z"/><text text-anchor="middle" pointer-events="none" font-size="8px" fill="#000000" x="79.8957448665924" y="3" font-family="sans-serif">ORIGIN</text></g><g class="relationship" transform="translate(-302.9957368557398 -15.779959279495039) rotate(314.89687368857835)"><path class="outline" fill="#A5ABB6" stroke="none" d="M 25 0.5 L 74.7755488785391 0.5 L 74.7755488785391 -0.5 L 25 -0.5 Z M 109.55888170324613 0.5 L 159.33443058178523 0.5 L 159.33443058178523 3.5 L 166.33443058178523 0 L 159.33443058178523 -3.5 L 159.33443058178523 -0.5 L 109.55888170324613 -0.5 Z"/><text text-anchor="middle" pointer-events="none" font-size="8px" fill="#000000" x="92.16721529089261" y="3" font-family="sans-serif">ORIGIN</text></g><g class="relationship" transform="translate(-302.9957368557398 -15.779959279495039) rotate(442.12905508385586)"><path class="outline" fill="#A5ABB6" stroke="none" d="M 25 0.5 L 57.29598000838277 0.5 L 57.29598000838277 -0.5 L 25 -0.5 Z M 117.21264794661519 0.5 L 149.50862795499796 0.5 L 149.50862795499796 3.5 L 156.50862795499796 0 L 149.50862795499796 -3.5 L 149.50862795499796 -0.5 L 117.21264794661519 -0.5 Z"/><text text-anchor="middle" pointer-events="none" font-size="8px" fill="#000000" x="87.25431397749898" y="3" font-family="sans-serif">DESTINATION</text></g><g class="relationship" transform="translate(-113.112898694814 208.5679001612261) rotate(195.10699431913895)"><path class="outline" fill="#A5ABB6" stroke="none" d="M 25 0.5 L 52.008655413286405 0.5 L 52.008655413286405 -0.5 L 25 -0.5 Z M 111.92532335151883 0.5 L 138.93397876480523 0.5 L 138.93397876480523 3.5 L 145.93397876480523 0 L 138.93397876480523 -3.5 L 138.93397876480523 -0.5 L 111.92532335151883 -0.5 Z"/><text text-anchor="middle" pointer-events="none" font-size="8px" fill="#000000" x="81.96698938240262" y="3" transform="rotate(180 81.96698938240262 0)" font-family="sans-serif">DESTINATION</text></g><g class="relationship" transform="translate(-113.112898694814 208.5679001612261) rotate(343.5039744703581)"><path class="outline" fill="#A5ABB6" stroke="none" d="M 25 0.5 L 92.04495921214155 0.5 L 92.04495921214155 -0.5 L 25 -0.5 Z M 126.82829203684858 0.5 L 193.87325124899013 0.5 L 193.87325124899013 3.5 L 200.87325124899013 0 L 193.87325124899013 -3.5 L 193.87325124899013 -0.5 L 126.82829203684858 -0.5 Z"/><text text-anchor="middle" pointer-events="none" font-size="8px" fill="#000000" x="109.43662562449506" y="3" font-family="sans-serif">ORIGIN</text></g><g class="relationship" transform="translate(-86.97484883306277 154.68747359100982) rotate(537.2054731600244)"><path class="outline" fill="#A5ABB6" stroke="none" d="M 25 0.5 L 62.23781346120251 0.5 L 62.23781346120251 -0.5 L 25 -0.5 Z M 122.15448139943493 0.5 L 159.39229486063743 0.5 L 159.39229486063743 3.5 L 166.39229486063743 0 L 159.39229486063743 -3.5 L 159.39229486063743 -0.5 L 122.15448139943493 -0.5 Z"/><text text-anchor="middle" pointer-events="none" font-size="8px" fill="#000000" x="92.19614743031872" y="3" transform="rotate(180 92.19614743031872 0)" font-family="sans-serif">DESTINATION</text></g><g class="relationship" transform="translate(-86.97484883306277 154.68747359100982) rotate(356.9173215908646)"><path class="outline" fill="#A5ABB6" stroke="none" d="M 25 0.5 L 74.46538300593075 0.5 L 74.46538300593075 -0.5 L 25 -0.5 Z M 109.24871583063778 0.5 L 158.71409883656852 0.5 L 158.71409883656852 3.5 L 165.71409883656852 0 L 158.71409883656852 -3.5 L 158.71409883656852 -0.5 L 109.24871583063778 -0.5 Z"/><text text-anchor="middle" pointer-events="none" font-size="8px" fill="#000000" x="91.85704941828426" y="3" font-family="sans-serif">ORIGIN</text></g><g class="relationship" transform="translate(153.42506150793625 -38.776343511322324) rotate(189.1876647608184)"><path class="outline" fill="#A5ABB6" stroke="none" d="M 25 0.5 L 111.7672822597427 0.5 L 111.7672822597427 -0.5 L 25 -0.5 Z M 171.68395019797512 0.5 L 258.4512324577178 0.5 L 258.4512324577178 3.5 L 265.4512324577178 0 L 258.4512324577178 -3.5 L 258.4512324577178 -0.5 L 171.68395019797512 -0.5 Z"/><text text-anchor="middle" pointer-events="none" font-size="8px" fill="#000000" x="141.7256162288589" y="3" transform="rotate(180 141.7256162288589 0)" font-family="sans-serif">DESTINATION</text></g><g class="relationship" transform="translate(153.42506150793625 -38.776343511322324) rotate(375.8589451334987)"><path class="outline" fill="#A5ABB6" stroke="none" d="M 25 0.5 L 111.65063808608275 0.5 L 111.65063808608275 -0.5 L 25 -0.5 Z M 146.43397091078978 0.5 L 233.08460899687253 0.5 L 233.08460899687253 3.5 L 240.08460899687253 0 L 233.08460899687253 -3.5 L 233.08460899687253 -0.5 L 146.43397091078978 -0.5 Z"/><text text-anchor="middle" pointer-events="none" font-size="8px" fill="#000000" x="129.04230449843627" y="3" font-family="sans-serif">ORIGIN</text></g></g><g class="layer nodes"><g class="node" transform="translate(-167.94559712306554,-151.31712792426626)"><circle class="outline" cx="0" cy="0" r="25" fill="#D9C8AE" stroke="#c0a378" stroke-width="2px"/><text text-anchor="middle" pointer-events="none" font-family="sans-serif" dy="1.5625" font-size="25" fill="#604A0E"/><text text-anchor="middle" pointer-events="none" y="5" font-size="10px" fill="#604A0E" font-family="sans-serif"> LAX</text></g><g class="node" transform="translate(-152.15875765183188,86.03478196861322)"><circle class="outline" cx="0" cy="0" r="25" fill="#8DCC93" stroke="#5db665" stroke-width="2px"/><text text-anchor="middle" pointer-events="none" font-family="sans-serif" dy="1.5625" font-size="25" fill="#604A0E"/><text text-anchor="middle" pointer-events="none" y="5" font-size="10px" fill="#604A0E" font-family="sans-serif"> 11/29/2…</text></g><g class="node" transform="translate(-7.704248150665583,334.344592264963)"><circle class="outline" cx="0" cy="0" r="25" fill="#D9C8AE" stroke="#c0a378" stroke-width="2px"/><text text-anchor="middle" pointer-events="none" font-family="sans-serif" dy="1.5625" font-size="25" fill="#604A0E"/><text text-anchor="middle" pointer-events="none" y="5" font-size="10px" fill="#604A0E" font-family="sans-serif"> LAS</text></g><g class="node" transform="translate(232.3761506782482,207.9579047377937)"><circle class="outline" cx="0" cy="0" r="25" fill="#8DCC93" stroke="#5db665" stroke-width="2px"/><text text-anchor="middle" pointer-events="none" font-family="sans-serif" dy="1.5625" font-size="25" fill="#604A0E"/><text text-anchor="middle" pointer-events="none" y="5" font-size="10px" fill="#604A0E" font-family="sans-serif"> 11/29/2…</text></g><g class="node" transform="translate(408.41985207652306,33.66333284015896)"><circle class="outline" cx="0" cy="0" r="25" fill="#D9C8AE" stroke="#c0a378" stroke-width="2px"/><text text-anchor="middle" pointer-events="none" font-family="sans-serif" dy="1.5625" font-size="25" fill="#604A0E"/><text text-anchor="middle" pointer-events="none" y="5" font-size="10px" fill="#604A0E" font-family="sans-serif"> DEN</text></g><g class="node" transform="translate(431.9156287166419,261.73785613547676)"><circle class="outline" cx="0" cy="0" r="25" fill="#8DCC93" stroke="#5db665" stroke-width="2px"/><text text-anchor="middle" pointer-events="none" font-family="sans-serif" dy="1.5625" font-size="25" fill="#604A0E"/><text text-anchor="middle" pointer-events="none" y="5" font-size="10px" fill="#604A0E" font-family="sans-serif"> 11/29/2…</text></g><g class="node" transform="translate(344.60357533310196,462.7623795747342)"><circle class="outline" cx="0" cy="0" r="25" fill="#D9C8AE" stroke="#c0a378" stroke-width="2px"/><text text-anchor="middle" pointer-events="none" font-family="sans-serif" dy="1.5625" font-size="25" fill="#604A0E"/><text text-anchor="middle" pointer-events="none" y="5" font-size="10px" fill="#604A0E" font-family="sans-serif"> MSP</text></g><g class="node" transform="translate(434.6662056800331,610.069906361144)"><circle class="outline" cx="0" cy="0" r="25" fill="#8DCC93" stroke="#5db665" stroke-width="2px"/><text text-anchor="middle" pointer-events="none" font-family="sans-serif" dy="1.5625" font-size="25" fill="#604A0E"/><text text-anchor="middle" pointer-events="none" y="5" font-size="10px" fill="#604A0E" font-family="sans-serif"> 11/23/2…</text></g><g class="node" transform="translate(377.1144914505034,696.3912317549072)"><circle class="outline" cx="0" cy="0" r="25" fill="#D9C8AE" stroke="#c0a378" stroke-width="2px"/><text text-anchor="middle" pointer-events="none" font-family="sans-serif" dy="1.5625" font-size="25" fill="#604A0E"/><text text-anchor="middle" pointer-events="none" y="5" font-size="10px" fill="#604A0E" font-family="sans-serif"> DAY</text></g><g class="node" transform="translate(270.84491380935555,612.4382173908282)"><circle class="outline" cx="0" cy="0" r="25" fill="#8DCC93" stroke="#5db665" stroke-width="2px"/><text text-anchor="middle" pointer-events="none" font-family="sans-serif" dy="1.5625" font-size="25" fill="#604A0E"/><text text-anchor="middle" pointer-events="none" y="5" font-size="10px" fill="#604A0E" font-family="sans-serif"> 11/25/2…</text></g><g class="node" transform="translate(329.0702452928595,598.4873426962333)"><circle class="outline" cx="0" cy="0" r="25" fill="#8DCC93" stroke="#5db665" stroke-width="2px"/><text text-anchor="middle" pointer-events="none" font-family="sans-serif" dy="1.5625" font-size="25" fill="#604A0E"/><text text-anchor="middle" pointer-events="none" y="5" font-size="10px" fill="#604A0E" font-family="sans-serif"> 11/11/2…</text></g><g class="node" transform="translate(59.834467379606004,263.7791526532254)"><circle class="outline" cx="0" cy="0" r="25" fill="#8DCC93" stroke="#5db665" stroke-width="2px"/><text text-anchor="middle" pointer-events="none" font-family="sans-serif" dy="1.5625" font-size="25" fill="#604A0E"/><text text-anchor="middle" pointer-events="none" y="5" font-size="10px" fill="#604A0E" font-family="sans-serif"> 11/29/2…</text></g><g class="node" transform="translate(103.4632816935623,144.4314540625304)"><circle class="outline" cx="0" cy="0" r="25" fill="#D9C8AE" stroke="#c0a378" stroke-width="2px"/><text text-anchor="middle" pointer-events="none" font-family="sans-serif" dy="1.5625" font-size="25" fill="#604A0E"/><text text-anchor="middle" pointer-events="none" y="5" font-size="10px" fill="#604A0E" font-family="sans-serif"> ORD</text></g><g class="node" transform="translate(264.80082627290955,319.74501657413725)"><circle class="outline" cx="0" cy="0" r="25" fill="#8DCC93" stroke="#5db665" stroke-width="2px"/><text text-anchor="middle" pointer-events="none" font-family="sans-serif" dy="1.5625" font-size="25" fill="#604A0E"/><text text-anchor="middle" pointer-events="none" y="5" font-size="10px" fill="#604A0E" font-family="sans-serif"> 11/29/2…</text></g><g class="node" transform="translate(99.21330565573511,-222.33747894962812)"><circle class="outline" cx="0" cy="0" r="25" fill="#8DCC93" stroke="#5db665" stroke-width="2px"/><text text-anchor="middle" pointer-events="none" font-family="sans-serif" dy="1.5625" font-size="25" fill="#604A0E"/><text text-anchor="middle" pointer-events="none" y="5" font-size="10px" fill="#604A0E" font-family="sans-serif"> 11/29/2…</text></g><g class="node" transform="translate(360.829143079414,-204.6735201694)"><circle class="outline" cx="0" cy="0" r="25" fill="#D9C8AE" stroke="#c0a378" stroke-width="2px"/><text text-anchor="middle" pointer-events="none" font-family="sans-serif" dy="1.5625" font-size="25" fill="#604A0E"/><text text-anchor="middle" pointer-events="none" y="5" font-size="10px" fill="#604A0E" font-family="sans-serif"> SFO</text></g><g class="node" transform="translate(264.70416034445674,-30.595804317586698)"><circle class="outline" cx="0" cy="0" r="25" fill="#8DCC93" stroke="#5db665" stroke-width="2px"/><text text-anchor="middle" pointer-events="none" font-family="sans-serif" dy="1.5625" font-size="25" fill="#604A0E"/><text text-anchor="middle" pointer-events="none" y="5" font-size="10px" fill="#604A0E" font-family="sans-serif"> 11/29/2…</text></g><g class="node" transform="translate(215.01625219007371,-63.93917113841968)"><circle class="outline" cx="0" cy="0" r="25" fill="#8DCC93" stroke="#5db665" stroke-width="2px"/><text text-anchor="middle" pointer-events="none" font-family="sans-serif" dy="1.5625" font-size="25" fill="#604A0E"/><text text-anchor="middle" pointer-events="none" y="5" font-size="10px" fill="#604A0E" font-family="sans-serif"> 11/30/2…</text></g><g class="node" transform="translate(-28.514846263783955,-30.636414560060988)"><circle class="outline" cx="0" cy="0" r="25" fill="#8DCC93" stroke="#5db665" stroke-width="2px"/><text text-anchor="middle" pointer-events="none" font-family="sans-serif" dy="1.5625" font-size="25" fill="#604A0E"/><text text-anchor="middle" pointer-events="none" y="5" font-size="10px" fill="#604A0E" font-family="sans-serif"> 11/30/2…</text></g><g class="node" transform="translate(-73.67718017169616,8.72906326245706)"><circle class="outline" cx="0" cy="0" r="25" fill="#8DCC93" stroke="#5db665" stroke-width="2px"/><text text-anchor="middle" pointer-events="none" font-family="sans-serif" dy="1.5625" font-size="25" fill="#604A0E"/><text text-anchor="middle" pointer-events="none" y="5" font-size="10px" fill="#604A0E" font-family="sans-serif"> 11/29/2…</text></g><g class="node" transform="translate(-121.00767121543305,-268.2506850975591)"><circle class="outline" cx="0" cy="0" r="25" fill="#8DCC93" stroke="#5db665" stroke-width="2px"/><text text-anchor="middle" pointer-events="none" font-family="sans-serif" dy="1.5625" font-size="25" fill="#604A0E"/><text text-anchor="middle" pointer-events="none" y="5" font-size="10px" fill="#604A0E" font-family="sans-serif"> 11/4/20…</text></g><g class="node" transform="translate(45.91514168181572,-280.3975556451785)"><circle class="outline" cx="0" cy="0" r="25" fill="#D9C8AE" stroke="#c0a378" stroke-width="2px"/><text text-anchor="middle" pointer-events="none" font-family="sans-serif" dy="1.5625" font-size="25" fill="#604A0E"/><text text-anchor="middle" pointer-events="none" y="5" font-size="10px" fill="#604A0E" font-family="sans-serif"> SMF</text></g><g class="node" transform="translate(255.08237131036233,-167.7301590161123)"><circle class="outline" cx="0" cy="0" r="25" fill="#8DCC93" stroke="#5db665" stroke-width="2px"/><text text-anchor="middle" pointer-events="none" font-family="sans-serif" dy="1.5625" font-size="25" fill="#604A0E"/><text text-anchor="middle" pointer-events="none" y="5" font-size="10px" fill="#604A0E" font-family="sans-serif"> 11/30/2…</text></g><g class="node" transform="translate(384.92462735942235,576.6002470169682)"><circle class="outline" cx="0" cy="0" r="25" fill="#8DCC93" stroke="#5db665" stroke-width="2px"/><text text-anchor="middle" pointer-events="none" font-family="sans-serif" dy="1.5625" font-size="25" fill="#604A0E"/><text text-anchor="middle" pointer-events="none" y="5" font-size="10px" fill="#604A0E" font-family="sans-serif"> 11/16/2…</text></g><g class="node" transform="translate(445.30282383306445,551.1722672045922)"><circle class="outline" cx="0" cy="0" r="25" fill="#8DCC93" stroke="#5db665" stroke-width="2px"/><text text-anchor="middle" pointer-events="none" font-family="sans-serif" dy="1.5625" font-size="25" fill="#604A0E"/><text text-anchor="middle" pointer-events="none" y="5" font-size="10px" fill="#604A0E" font-family="sans-serif"> 11/20/2…</text></g><g class="node" transform="translate(205.71635255515318,310.5705286648891)"><circle class="outline" cx="0" cy="0" r="25" fill="#8DCC93" stroke="#5db665" stroke-width="2px"/><text text-anchor="middle" pointer-events="none" font-family="sans-serif" dy="1.5625" font-size="25" fill="#604A0E"/><text text-anchor="middle" pointer-events="none" y="5" font-size="10px" fill="#604A0E" font-family="sans-serif"> 11/29/2…</text></g><g class="node" transform="translate(195.1271062831376,369.40030667165826)"><circle class="outline" cx="0" cy="0" r="25" fill="#8DCC93" stroke="#5db665" stroke-width="2px"/><text text-anchor="middle" pointer-events="none" font-family="sans-serif" dy="1.5625" font-size="25" fill="#604A0E"/><text text-anchor="middle" pointer-events="none" y="5" font-size="10px" fill="#604A0E" font-family="sans-serif"> 11/30/2…</text></g><g class="node" transform="translate(508.4279728629226,-59.03603049643549)"><circle class="outline" cx="0" cy="0" r="25" fill="#8DCC93" stroke="#5db665" stroke-width="2px"/><text text-anchor="middle" pointer-events="none" font-family="sans-serif" dy="1.5625" font-size="25" fill="#604A0E"/><text text-anchor="middle" pointer-events="none" y="5" font-size="10px" fill="#604A0E" font-family="sans-serif"> 11/30/2…</text></g><g class="node" transform="translate(451.0811997739079,-76.39841946082856)"><circle class="outline" cx="0" cy="0" r="25" fill="#8DCC93" stroke="#5db665" stroke-width="2px"/><text text-anchor="middle" pointer-events="none" font-family="sans-serif" dy="1.5625" font-size="25" fill="#604A0E"/><text text-anchor="middle" pointer-events="none" y="5" font-size="10px" fill="#604A0E" font-family="sans-serif"> 11/29/2…</text></g><g class="node" transform="translate(393.7048851308828,-93.87770551765564)"><circle class="outline" cx="0" cy="0" r="25" fill="#8DCC93" stroke="#5db665" stroke-width="2px"/><text text-anchor="middle" pointer-events="none" font-family="sans-serif" dy="1.5625" font-size="25" fill="#604A0E"/><text text-anchor="middle" pointer-events="none" y="5" font-size="10px" fill="#604A0E" font-family="sans-serif"> 11/29/2…</text></g><g class="node" transform="translate(-72.02621186470452,-302.80070040064226)"><circle class="outline" cx="0" cy="0" r="25" fill="#8DCC93" stroke="#5db665" stroke-width="2px"/><text text-anchor="middle" pointer-events="none" font-family="sans-serif" dy="1.5625" font-size="25" fill="#604A0E"/><text text-anchor="middle" pointer-events="none" y="5" font-size="10px" fill="#604A0E" font-family="sans-serif"> 11/3/20…</text></g><g class="node" transform="translate(-126.36178025141035,-327.8747942468031)"><circle class="outline" cx="0" cy="0" r="25" fill="#8DCC93" stroke="#5db665" stroke-width="2px"/><text text-anchor="middle" pointer-events="none" font-family="sans-serif" dy="1.5625" font-size="25" fill="#604A0E"/><text text-anchor="middle" pointer-events="none" y="5" font-size="10px" fill="#604A0E" font-family="sans-serif"> 11/2/20…</text></g><g class="node" transform="translate(-66.59308735529935,-243.07277300577564)"><circle class="outline" cx="0" cy="0" r="25" fill="#8DCC93" stroke="#5db665" stroke-width="2px"/><text text-anchor="middle" pointer-events="none" font-family="sans-serif" dy="1.5625" font-size="25" fill="#604A0E"/><text text-anchor="middle" pointer-events="none" y="5" font-size="10px" fill="#604A0E" font-family="sans-serif"> 11/1/20…</text></g><g class="node" transform="translate(94.82606229912624,312.4455181173699)"><circle class="outline" cx="0" cy="0" r="25" fill="#8DCC93" stroke="#5db665" stroke-width="2px"/><text text-anchor="middle" pointer-events="none" font-family="sans-serif" dy="1.5625" font-size="25" fill="#604A0E"/><text text-anchor="middle" pointer-events="none" y="5" font-size="10px" fill="#604A0E" font-family="sans-serif"> 11/29/2…</text></g><g class="node" transform="translate(-253.32041860468297,52.44028362231693)"><circle class="outline" cx="0" cy="0" r="25" fill="#8DCC93" stroke="#5db665" stroke-width="2px"/><text text-anchor="middle" pointer-events="none" font-family="sans-serif" dy="1.5625" font-size="25" fill="#604A0E"/><text text-anchor="middle" pointer-events="none" y="5" font-size="10px" fill="#604A0E" font-family="sans-serif"> 11/30/2…</text></g><g class="node" transform="translate(-211.25957799622637,274.2657121833829)"><circle class="outline" cx="0" cy="0" r="25" fill="#D9C8AE" stroke="#c0a378" stroke-width="2px"/><text text-anchor="middle" pointer-events="none" font-family="sans-serif" dy="1.5625" font-size="25" fill="#604A0E"/><text text-anchor="middle" pointer-events="none" y="5" font-size="10px" fill="#604A0E" font-family="sans-serif"> IAH</text></g><g class="node" transform="translate(-79.90406425310769,278.9827316256974)"><circle class="outline" cx="0" cy="0" r="25" fill="#8DCC93" stroke="#5db665" stroke-width="2px"/><text text-anchor="middle" pointer-events="none" font-family="sans-serif" dy="1.5625" font-size="25" fill="#604A0E"/><text text-anchor="middle" pointer-events="none" y="5" font-size="10px" fill="#604A0E" font-family="sans-serif"> 11/29/2…</text></g><g class="node" transform="translate(481.17268025269624,-175.6056194736167)"><circle class="outline" cx="0" cy="0" r="25" fill="#8DCC93" stroke="#5db665" stroke-width="2px"/><text text-anchor="middle" pointer-events="none" font-family="sans-serif" dy="1.5625" font-size="25" fill="#604A0E"/><text text-anchor="middle" pointer-events="none" y="5" font-size="10px" fill="#604A0E" font-family="sans-serif"> 11/30/2…</text></g><g class="node" transform="translate(437.488369141167,-134.6767239951023)"><circle class="outline" cx="0" cy="0" r="25" fill="#8DCC93" stroke="#5db665" stroke-width="2px"/><text text-anchor="middle" pointer-events="none" font-family="sans-serif" dy="1.5625" font-size="25" fill="#604A0E"/><text text-anchor="middle" pointer-events="none" y="5" font-size="10px" fill="#604A0E" font-family="sans-serif"> 11/29/2…</text></g><g class="node" transform="translate(494.8403567095986,-117.32914023174203)"><circle class="outline" cx="0" cy="0" r="25" fill="#8DCC93" stroke="#5db665" stroke-width="2px"/><text text-anchor="middle" pointer-events="none" font-family="sans-serif" dy="1.5625" font-size="25" fill="#604A0E"/><text text-anchor="middle" pointer-events="none" y="5" font-size="10px" fill="#604A0E" font-family="sans-serif"> 11/30/2…</text></g><g class="node" transform="translate(44.667880392108145,-73.31913984224794)"><circle class="outline" cx="0" cy="0" r="25" fill="#8DCC93" stroke="#5db665" stroke-width="2px"/><text text-anchor="middle" pointer-events="none" font-family="sans-serif" dy="1.5625" font-size="25" fill="#604A0E"/><text text-anchor="middle" pointer-events="none" y="5" font-size="10px" fill="#604A0E" font-family="sans-serif"> 11/30/2…</text></g><g class="node" transform="translate(102.6531346947043,-87.94055582957913)"><circle class="outline" cx="0" cy="0" r="25" fill="#8DCC93" stroke="#5db665" stroke-width="2px"/><text text-anchor="middle" pointer-events="none" font-family="sans-serif" dy="1.5625" font-size="25" fill="#604A0E"/><text text-anchor="middle" pointer-events="none" y="5" font-size="10px" fill="#604A0E" font-family="sans-serif"> 11/29/2…</text></g><g class="node" transform="translate(-55.2119404728223,224.30765688189112)"><circle class="outline" cx="0" cy="0" r="25" fill="#8DCC93" stroke="#5db665" stroke-width="2px"/><text text-anchor="middle" pointer-events="none" font-family="sans-serif" dy="1.5625" font-size="25" fill="#604A0E"/><text text-anchor="middle" pointer-events="none" y="5" font-size="10px" fill="#604A0E" font-family="sans-serif"> 11/29/2…</text></g><g class="node" transform="translate(-20.3981760977073,273.0217835613892)"><circle class="outline" cx="0" cy="0" r="25" fill="#8DCC93" stroke="#5db665" stroke-width="2px"/><text text-anchor="middle" pointer-events="none" font-family="sans-serif" dy="1.5625" font-size="25" fill="#604A0E"/><text text-anchor="middle" pointer-events="none" y="5" font-size="10px" fill="#604A0E" font-family="sans-serif"> 11/30/2…</text></g><g class="node" transform="translate(-275.8057182934096,-100.09242999719447)"><circle class="outline" cx="0" cy="0" r="25" fill="#8DCC93" stroke="#5db665" stroke-width="2px"/><text text-anchor="middle" pointer-events="none" font-family="sans-serif" dy="1.5625" font-size="25" fill="#604A0E"/><text text-anchor="middle" pointer-events="none" y="5" font-size="10px" fill="#604A0E" font-family="sans-serif"> 11/30/2…</text></g><g class="node" transform="translate(-133.2998742363467,-85.1523034328596)"><circle class="outline" cx="0" cy="0" r="25" fill="#D9C8AE" stroke="#c0a378" stroke-width="2px"/><text text-anchor="middle" pointer-events="none" font-family="sans-serif" dy="1.5625" font-size="25" fill="#604A0E"/><text text-anchor="middle" pointer-events="none" y="5" font-size="10px" fill="#604A0E" font-family="sans-serif"> EWR</text></g><g class="node" transform="translate(-46.709889897516284,68.89656877919961)"><circle class="outline" cx="0" cy="0" r="25" fill="#8DCC93" stroke="#5db665" stroke-width="2px"/><text text-anchor="middle" pointer-events="none" font-family="sans-serif" dy="1.5625" font-size="25" fill="#604A0E"/><text text-anchor="middle" pointer-events="none" y="5" font-size="10px" fill="#604A0E" font-family="sans-serif"> 11/30/2…</text></g><g class="node" transform="translate(-1.008830997043209,30.10042849734332)"><circle class="outline" cx="0" cy="0" r="25" fill="#8DCC93" stroke="#5db665" stroke-width="2px"/><text text-anchor="middle" pointer-events="none" font-family="sans-serif" dy="1.5625" font-size="25" fill="#604A0E"/><text text-anchor="middle" pointer-events="none" y="5" font-size="10px" fill="#604A0E" font-family="sans-serif"> 11/30/2…</text></g><g class="node" transform="translate(231.48566545301222,89.27808810718271)"><circle class="outline" cx="0" cy="0" r="25" fill="#8DCC93" stroke="#5db665" stroke-width="2px"/><text text-anchor="middle" pointer-events="none" font-family="sans-serif" dy="1.5625" font-size="25" fill="#604A0E"/><text text-anchor="middle" pointer-events="none" y="5" font-size="10px" fill="#604A0E" font-family="sans-serif"> 11/29/2…</text></g><g class="node" transform="translate(327.1744297123719,129.3527276016561)"><circle class="outline" cx="0" cy="0" r="25" fill="#8DCC93" stroke="#5db665" stroke-width="2px"/><text text-anchor="middle" pointer-events="none" font-family="sans-serif" dy="1.5625" font-size="25" fill="#604A0E"/><text text-anchor="middle" pointer-events="none" y="5" font-size="10px" fill="#604A0E" font-family="sans-serif"> 11/29/2…</text></g><g class="node" transform="translate(254.69859057763495,34.09274334357251)"><circle class="outline" cx="0" cy="0" r="25" fill="#8DCC93" stroke="#5db665" stroke-width="2px"/><text text-anchor="middle" pointer-events="none" font-family="sans-serif" dy="1.5625" font-size="25" fill="#604A0E"/><text text-anchor="middle" pointer-events="none" y="5" font-size="10px" fill="#604A0E" font-family="sans-serif"> 11/29/2…</text></g><g class="node" transform="translate(290.85204772829525,81.74438387321577)"><circle class="outline" cx="0" cy="0" r="25" fill="#8DCC93" stroke="#5db665" stroke-width="2px"/><text text-anchor="middle" pointer-events="none" font-family="sans-serif" dy="1.5625" font-size="25" fill="#604A0E"/><text text-anchor="middle" pointer-events="none" y="5" font-size="10px" fill="#604A0E" font-family="sans-serif"> 11/29/2…</text></g><g class="node" transform="translate(267.7057544917138,136.92808828282693)"><circle class="outline" cx="0" cy="0" r="25" fill="#8DCC93" stroke="#5db665" stroke-width="2px"/><text text-anchor="middle" pointer-events="none" font-family="sans-serif" dy="1.5625" font-size="25" fill="#604A0E"/><text text-anchor="middle" pointer-events="none" y="5" font-size="10px" fill="#604A0E" font-family="sans-serif"> 11/30/2…</text></g><g class="node" transform="translate(304.1381139345628,184.51035682438288)"><circle class="outline" cx="0" cy="0" r="25" fill="#8DCC93" stroke="#5db665" stroke-width="2px"/><text text-anchor="middle" pointer-events="none" font-family="sans-serif" dy="1.5625" font-size="25" fill="#604A0E"/><text text-anchor="middle" pointer-events="none" y="5" font-size="10px" fill="#604A0E" font-family="sans-serif"> 11/29/2…</text></g><g class="node" transform="translate(-250.8593159661793,-210.64327677518742)"><circle class="outline" cx="0" cy="0" r="25" fill="#8DCC93" stroke="#5db665" stroke-width="2px"/><text text-anchor="middle" pointer-events="none" font-family="sans-serif" dy="1.5625" font-size="25" fill="#604A0E"/><text text-anchor="middle" pointer-events="none" y="5" font-size="10px" fill="#604A0E" font-family="sans-serif"> 11/29/2…</text></g><g class="node" transform="translate(-282.5180982105938,-159.67292260223124)"><circle class="outline" cx="0" cy="0" r="25" fill="#8DCC93" stroke="#5db665" stroke-width="2px"/><text text-anchor="middle" pointer-events="none" font-family="sans-serif" dy="1.5625" font-size="25" fill="#604A0E"/><text text-anchor="middle" pointer-events="none" y="5" font-size="10px" fill="#604A0E" font-family="sans-serif"> 11/29/2…</text></g><g class="node" transform="translate(-302.9957368557398,-15.779959279495039)"><circle class="outline" cx="0" cy="0" r="25" fill="#8DCC93" stroke="#5db665" stroke-width="2px"/><text text-anchor="middle" pointer-events="none" font-family="sans-serif" dy="1.5625" font-size="25" fill="#604A0E"/><text text-anchor="middle" pointer-events="none" y="5" font-size="10px" fill="#604A0E" font-family="sans-serif"> 11/29/2…</text></g><g class="node" transform="translate(-278.13953981247306,164.01868223554024)"><circle class="outline" cx="0" cy="0" r="25" fill="#D9C8AE" stroke="#c0a378" stroke-width="2px"/><text text-anchor="middle" pointer-events="none" font-family="sans-serif" dy="1.5625" font-size="25" fill="#604A0E"/><text text-anchor="middle" pointer-events="none" y="5" font-size="10px" fill="#604A0E" font-family="sans-serif"> BOS</text></g><g class="node" transform="translate(-113.112898694814,208.5679001612261)"><circle class="outline" cx="0" cy="0" r="25" fill="#8DCC93" stroke="#5db665" stroke-width="2px"/><text text-anchor="middle" pointer-events="none" font-family="sans-serif" dy="1.5625" font-size="25" fill="#604A0E"/><text text-anchor="middle" pointer-events="none" y="5" font-size="10px" fill="#604A0E" font-family="sans-serif"> 11/30/2…</text></g><g class="node" transform="translate(-86.97484883306277,154.68747359100982)"><circle class="outline" cx="0" cy="0" r="25" fill="#8DCC93" stroke="#5db665" stroke-width="2px"/><text text-anchor="middle" pointer-events="none" font-family="sans-serif" dy="1.5625" font-size="25" fill="#604A0E"/><text text-anchor="middle" pointer-events="none" y="5" font-size="10px" fill="#604A0E" font-family="sans-serif"> 11/29/2…</text></g><g class="node" transform="translate(153.42506150793625,-38.776343511322324)"><circle class="outline" cx="0" cy="0" r="25" fill="#8DCC93" stroke="#5db665" stroke-width="2px"/><text text-anchor="middle" pointer-events="none" font-family="sans-serif" dy="1.5625" font-size="25" fill="#604A0E"/><text text-anchor="middle" pointer-events="none" y="5" font-size="10px" fill="#604A0E" font-family="sans-serif"> 11/30/2…</text></g></g></svg>