<svg xmlns="http://www.w3.org/2000/svg" width="286.43988037109375" height="265.87298583984375" viewBox="-53.958099365234375 -32.23800277709961 286.43988037109375 265.87298583984375"><title>Neo4j Graph Visualization</title><desc>Created using Neo4j (http://www.neo4j.com/)</desc><g class="layer relationships"><g class="relationship" transform="translate(156.6836104766086 193.3126163656669) rotate(233.4911471347446)"><path class="outline" fill="#A5ABB6" stroke="none" d="M 25 0.5 L 30.949523193568176 0.5 L 30.949523193568176 -0.5 L 25 -0.5 Z M 76.51202319356818 0.5 L 82.46154638713635 0.5 L 82.46154638713635 3.5 L 89.46154638713635 0 L 82.46154638713635 -3.5 L 82.46154638713635 -0.5 L 76.51202319356818 -0.5 Z"/><text text-anchor="middle" pointer-events="none" font-size="8px" fill="#000000" x="53.730773193568176" y="3" transform="rotate(180 53.730773193568176 0)" font-family="sans-serif">ACTED_IN</text></g><g class="relationship" transform="translate(203.48180239243644 100.23836414430232) rotate(539.464405159045)"><path class="outline" fill="#A5ABB6" stroke="none" d="M 25 0.5 L 31.169632012943595 0.5 L 31.169632012943595 -0.5 L 25 -0.5 Z M 76.7321320129436 0.5 L 82.90176402588719 0.5 L 82.90176402588719 3.5 L 89.90176402588719 0 L 82.90176402588719 -3.5 L 82.90176402588719 -0.5 L 76.7321320129436 -0.5 Z"/><text text-anchor="middle" pointer-events="none" font-size="8px" fill="#000000" x="53.950882012943595" y="3" transform="rotate(180 53.950882012943595 0)" font-family="sans-serif">ACTED_IN</text></g><g class="relationship" transform="translate(149.97395392827872 4.245952850220604) rotate(482.31096821019196)"><path class="outline" fill="#A5ABB6" stroke="none" d="M 25 0.5 L 31.143698852133312 0.5 L 31.143698852133312 -0.5 L 25 -0.5 Z M 76.70619885213331 0.5 L 82.84989770426662 0.5 L 82.84989770426662 3.5 L 89.84989770426662 0 L 82.84989770426662 -3.5 L 82.84989770426662 -0.5 L 76.70619885213331 -0.5 Z"/><text text-anchor="middle" pointer-events="none" font-size="8px" fill="#000000" x="53.92494885213331" y="3" transform="rotate(180 53.92494885213331 0)" font-family="sans-serif">ACTED_IN</text></g><g class="relationship" transform="translate(40.82564223215786 -3.238004223208782) rotate(425.4487283229155)"><path class="outline" fill="#A5ABB6" stroke="none" d="M 25 0.5 L 30.525890738116573 0.5 L 30.525890738116573 -0.5 L 25 -0.5 Z M 77.41651573811657 0.5 L 82.94240647623315 0.5 L 82.94240647623315 3.5 L 89.94240647623315 0 L 82.94240647623315 -3.5 L 82.94240647623315 -0.5 L 77.41651573811657 -0.5 Z"/><text text-anchor="middle" pointer-events="none" font-size="8px" fill="#000000" x="53.97120323811657" y="3" font-family="sans-serif">DIRECTED</text></g><g class="relationship" transform="translate(-24.958102024647296 101.47009232343443) rotate(359.920445013528)"><path class="outline" fill="#A5ABB6" stroke="none" d="M 25 0.5 L 35.3849162713816 0.5 L 35.3849162713816 -0.5 L 25 -0.5 Z M 71.1583537713816 0.5 L 81.5432700427632 0.5 L 81.5432700427632 3.5 L 88.5432700427632 0 L 81.5432700427632 -3.5 L 81.5432700427632 -0.5 L 71.1583537713816 -0.5 Z"/><text text-anchor="middle" pointer-events="none" font-size="8px" fill="#000000" x="53.2716350213816" y="3" font-family="sans-serif">WROTE</text></g><g class="relationship" transform="translate(40.23948396099558 204.6349955856585) rotate(295.07532584001115)"><path class="outline" fill="#A5ABB6" stroke="none" d="M 25 0.5 L 35.65021117489158 0.5 L 35.65021117489158 -0.5 L 25 -0.5 Z M 71.42364867489158 0.5 L 82.07385984978316 0.5 L 82.07385984978316 3.5 L 89.07385984978316 0 L 82.07385984978316 -3.5 L 82.07385984978316 -0.5 L 71.42364867489158 -0.5 Z"/><text text-anchor="middle" pointer-events="none" font-size="8px" fill="#000000" x="53.53692992489158" y="3" font-family="sans-serif">WROTE</text></g></g><g class="layer nodes"><g class="node" transform="translate(88.58505856682706,101.31243794668038)"><circle class="outline" cx="0" cy="0" r="25" fill="#57C7E3" stroke="#23b3d7" stroke-width="2px"/><text text-anchor="middle" pointer-events="none" font-family="sans-serif" dy="1.5625" font-size="25" fill="#FFFFFF"/><text text-anchor="middle" pointer-events="none" font-family="sans-serif" dy="1.5625" font-size="25" fill="#FFFFFF"/><text text-anchor="middle" pointer-events="none" font-family="sans-serif" dy="1.5625" font-size="25" fill="#FFFFFF"/><text text-anchor="middle" pointer-events="none" y="-5" font-size="10px" fill="#FFFFFF" font-family="sans-serif"> Captain</text><text text-anchor="middle" pointer-events="none" y="5" font-size="10px" fill="#FFFFFF" font-family="sans-serif"> America:</text><text text-anchor="middle" pointer-events="none" y="15" font-size="10px" fill="#FFFFFF" font-family="sans-serif"> The Fi…</text></g><g class="node" transform="translate(156.6836104766086,193.3126163656669)"><circle class="outline" cx="0" cy="0" r="25" fill="#F79767" stroke="#f36924" stroke-width="2px"/><text text-anchor="middle" pointer-events="none" font-family="sans-serif" dy="1.5625" font-size="25" fill="#FFFFFF"/><text text-anchor="middle" pointer-events="none" font-family="sans-serif" dy="1.5625" font-size="25" fill="#FFFFFF"/><text text-anchor="middle" pointer-events="none" y="0" font-size="10px" fill="#FFFFFF" font-family="sans-serif"> Hugo</text><text text-anchor="middle" pointer-events="none" y="10" font-size="10px" fill="#FFFFFF" font-family="sans-serif"> Weaving</text></g><g class="node" transform="translate(203.48180239243644,100.23836414430232)"><circle class="outline" cx="0" cy="0" r="25" fill="#F79767" stroke="#f36924" stroke-width="2px"/><text text-anchor="middle" pointer-events="none" font-family="sans-serif" dy="1.5625" font-size="25" fill="#FFFFFF"/><text text-anchor="middle" pointer-events="none" font-family="sans-serif" dy="1.5625" font-size="25" fill="#FFFFFF"/><text text-anchor="middle" pointer-events="none" y="0" font-size="10px" fill="#FFFFFF" font-family="sans-serif"> Samuel</text><text text-anchor="middle" pointer-events="none" y="10" font-size="10px" fill="#FFFFFF" font-family="sans-serif"> L.Jacks…</text></g><g class="node" transform="translate(149.97395392827872,4.245952850220604)"><circle class="outline" cx="0" cy="0" r="25" fill="#F79767" stroke="#f36924" stroke-width="2px"/><text text-anchor="middle" pointer-events="none" font-family="sans-serif" dy="1.5625" font-size="25" fill="#FFFFFF"/><text text-anchor="middle" pointer-events="none" font-family="sans-serif" dy="1.5625" font-size="25" fill="#FFFFFF"/><text text-anchor="middle" pointer-events="none" y="0" font-size="10px" fill="#FFFFFF" font-family="sans-serif"> Chris</text><text text-anchor="middle" pointer-events="none" y="10" font-size="10px" fill="#FFFFFF" font-family="sans-serif"> Evans</text></g><g class="node" transform="translate(40.82564223215786,-3.238004223208782)"><circle class="outline" cx="0" cy="0" r="25" fill="#F79767" stroke="#f36924" stroke-width="2px"/><text text-anchor="middle" pointer-events="none" font-family="sans-serif" dy="1.5625" font-size="25" fill="#FFFFFF"/><text text-anchor="middle" pointer-events="none" font-family="sans-serif" dy="1.5625" font-size="25" fill="#FFFFFF"/><text text-anchor="middle" pointer-events="none" y="0" font-size="10px" fill="#FFFFFF" font-family="sans-serif"> Joe</text><text text-anchor="middle" pointer-events="none" y="10" font-size="10px" fill="#FFFFFF" font-family="sans-serif"> Johnston</text></g><g class="node" transform="translate(-24.958102024647296,101.47009232343443)"><circle class="outline" cx="0" cy="0" r="25" fill="#F79767" stroke="#f36924" stroke-width="2px"/><text text-anchor="middle" pointer-events="none" font-family="sans-serif" dy="1.5625" font-size="25" fill="#FFFFFF"/><text text-anchor="middle" pointer-events="none" y="5" font-size="10px" fill="#FFFFFF" font-family="sans-serif"> Christop…</text></g><g class="node" transform="translate(40.23948396099558,204.6349955856585)"><circle class="outline" cx="0" cy="0" r="25" fill="#F79767" stroke="#f36924" stroke-width="2px"/><text text-anchor="middle" pointer-events="none" font-family="sans-serif" dy="1.5625" font-size="25" fill="#FFFFFF"/><text text-anchor="middle" pointer-events="none" font-family="sans-serif" dy="1.5625" font-size="25" fill="#FFFFFF"/><text text-anchor="middle" pointer-events="none" y="0" font-size="10px" fill="#FFFFFF" font-family="sans-serif"> Stephen</text><text text-anchor="middle" pointer-events="none" y="10" font-size="10px" fill="#FFFFFF" font-family="sans-serif"> McFeely</text></g></g></svg>